<?xml version="1.0" standalone="no"?>
<!DOCTYPE svg PUBLIC "-//W3C//DTD SVG 1.1//EN" "http://www.w3.org/Graphics/SVG/1.1/DTD/svg11.dtd" >
<svg>
<metadata>
Created by FontForge 20090914 at Sat Mar 27 12:01:37 2021
 By www-data
(C) 1999 Ray Larabie - rlarabie@hotmail.com
</metadata>
<defs>
<font id="Zrnic" horiz-adv-x="249" >
  <font-face 
    font-family="Zrnic"
    font-weight="400"
    font-stretch="normal"
    units-per-em="1000"
    panose-1="0 0 4 0 0 0 0 0 0 0"
    ascent="800"
    descent="-200"
    x-height="523"
    cap-height="661"
    bbox="-18 -229 707 804"
    underline-thickness="20"
    underline-position="-123"
    unicode-range="U+0020-U+2026"
  />
<missing-glyph horiz-adv-x="500" 
d="M63 0v800h375v-800h-375zM125 63h250v675h-250v-675z" />
    <glyph glyph-name=".notdef" horiz-adv-x="500" 
d="M63 0v800h375v-800h-375zM125 63h250v675h-250v-675z" />
    <glyph glyph-name="space" unicode=" " horiz-adv-x="223" 
 />
    <glyph glyph-name="exclam" unicode="!" horiz-adv-x="210" 
d="M161 185h-100v478h100v-478zM161 1h-100v73h100v-73z" />
    <glyph glyph-name="quotedbl" unicode="&#x22;" horiz-adv-x="275" 
d="M244 731l-27 -200h-56l-5 200h88zM104 731l-27 -200h-57l-5 200h89z" />
    <glyph glyph-name="numbersign" unicode="#" horiz-adv-x="390" 
d="M377 416h-83v-91h-58v91h-57v-91h-59v91h-90v58h90v57h-90v59h90v81h59v-81h57v81h58v-81h83v-59h-83v-57h83v-58zM236 474v57h-57v-57h57z" />
    <glyph glyph-name="dollar" unicode="$" horiz-adv-x="389" 
d="M366 366c0 -30.667 -5.66699 -57.332 -17 -79.999c-14 -28.667 -34.667 -43 -62 -43h-74v-55h-32v55h-123v55h123v125h-69c-28.667 0 -51.667 15.333 -69 46c-14 26 -21 54.667 -21 86c0 33.333 7.66699 60.666 23 81.999c17.333 24.667 41.666 37 72.999 37h63v44h32
v-44h90v-56h-90v-117h74c26.667 0 47.334 -16.667 62.001 -50c11.333 -26 17 -54.333 17 -85zM181 501.002l0.000976562 117h-28c-13.333 0 -23.333 -6.16699 -30 -18.5s-10 -25.5 -10 -39.5c0 -14.667 3 -27.667 9 -39c7.33301 -13.333 17.666 -20 30.999 -20h28z
M280.001 360.002c0 16 -4.00098 30.5 -12.001 43.5s-19.333 19.5 -34 19.5h-21v-125h21c14.667 0 26.334 7 35.001 21c7.33301 11.333 11 25 11 41z" />
    <glyph glyph-name="percent" unicode="%" horiz-adv-x="466" 
d="M212 542v-108.998c0 -38 -3.66699 -65 -11 -81c-11.333 -25.333 -33.666 -38 -66.999 -38c-38 0 -63.333 10.333 -76 31c-9.33301 15.333 -14 43.666 -14 84.999l1 112c0 42.667 4.66699 72 14 88c12.667 21.333 39 32 79 32c31.333 0 52.666 -13.333 63.999 -40
c6.66699 -16.667 10 -43.334 10 -80.001zM332 661.002l-145 -661h-37l146 661h36zM442 228.002v-108.998c0 -38 -3.66699 -65 -11 -81c-11.333 -25.333 -33.666 -38 -66.999 -38c-38 0 -63.333 10.333 -76 31c-9.33301 15.333 -14 43.666 -14 84.999v112
c0 42.667 5 72 15 88c12.667 21.333 39 32 79 32c31.333 0 52.666 -13.333 63.999 -40c6.66699 -16.667 10 -43.334 10 -80.001zM173 464.004c0 94.667 -11.667 142 -35 142h-12c-28 0 -42 -32.667 -42 -98c0 -93.333 11.333 -140 34 -140h13c28 0 42 32 42 96zM403 150.004
c0 94.667 -11.667 142 -35 142h-12c-28 0 -42 -32.667 -42 -98c0 -93.333 11.333 -140 34 -140h13c28 0 42 32 42 96z" />
    <glyph glyph-name="ampersand" unicode="&#x26;" horiz-adv-x="412" 
d="M394 -1l-264.999 0.000976562c-39.333 0 -69 24.333 -89 73c-15.333 37.333 -23 79 -23 125c0 74 16.667 129 50 165c-33.333 35.333 -50 82.666 -50 141.999c0 40 8.33301 74.667 25 104c20.667 35.333 49.667 53 87 53h97v-56h-43
c-24.667 0 -43.334 -12.667 -56.001 -38c-10.667 -20 -16 -43.667 -16 -71c0 -26.667 5 -50 15 -70c13.333 -24.667 32.333 -37 57 -37h176v-55h-59v-280h94v-55zM235.001 54.001v280h-52c-26 0 -45.333 -17.667 -58 -53c-9.33301 -25.333 -14 -54 -14 -86
s4.66699 -61 14 -87c12.667 -36 32 -54 58 -54h52z" />
    <glyph glyph-name="quotesingle" unicode="'" horiz-adv-x="121" 
d="M109 731l-27 -200h-56l-5 200h88z" />
    <glyph glyph-name="parenleft" unicode="(" horiz-adv-x="325" 
d="M325 -208h-51c-54.667 0 -99.334 12.667 -134.001 38c-40 28.667 -60 69 -60 121v660c0 48 17.833 88.5 53.5 121.5s77.834 49.5 126.501 49.5h65v-56h-77c-24 0 -44.667 -13.333 -62 -40c-15.333 -24 -23 -48.667 -23 -74v-654c0 -51.333 16 -84 48 -98
c18 -8 56 -12 114 -12v-56z" />
    <glyph glyph-name="parenright" unicode=")" horiz-adv-x="350" 
d="M307 -49c0 -52 -20.001 -92.333 -60.001 -121c-35.333 -25.333 -80 -38 -134 -38h-51v56h24c48.667 0 82.334 6 101.001 18c24 15.333 36 46 36 92v654c0 25.333 -7.66699 50 -23 74c-16.667 26.667 -37.334 40 -62.001 40h-76v56h65
c48.667 0 90.834 -16.5 126.501 -49.5s53.5 -73.5 53.5 -121.5v-660z" />
    <glyph glyph-name="asterisk" unicode="*" horiz-adv-x="406" 
d="M379 358c0 -48.667 -17.5 -90.5 -52.5 -125.5s-76.833 -52.5 -125.5 -52.5c-49.333 0 -91.5 17.5 -126.5 52.5s-52.5 76.833 -52.5 125.5c0 49.333 17.5 91.333 52.5 126s77.167 52 126.5 52c48.667 0 90.5 -17.333 125.5 -52s52.5 -76.667 52.5 -126zM323 280l-82 82
l78 79l-40 40l-78 -79l-75 75l-40 -40l75 -75l-79 -78l40 -40l79 78l82 -82z" />
    <glyph glyph-name="plus" unicode="+" horiz-adv-x="406" 
d="M379 358c0 -48.667 -17.5 -90.5 -52.5 -125.5s-76.833 -52.5 -125.5 -52.5c-49.333 0 -91.5 17.5 -126.5 52.5s-52.5 76.833 -52.5 125.5c0 49.333 17.5 91.333 52.5 126s77.167 52 126.5 52c48.667 0 90.5 -17.333 125.5 -52s52.5 -76.667 52.5 -126zM343 333v56h-111
v106h-57v-106h-111v-56h111v-117h57v117h111z" />
    <glyph glyph-name="comma" unicode="," horiz-adv-x="167" 
d="M138 51l-28 -199h-56l-5 199h89z" />
    <glyph glyph-name="hyphen" unicode="-" horiz-adv-x="266" 
d="M239 277h-190v57h190v-57z" />
    <glyph glyph-name="hyphen" unicode="&#x2010;" horiz-adv-x="266" 
d="M239 277h-190v57h190v-57z" />
    <glyph glyph-name="period" unicode="." horiz-adv-x="182" 
d="M153 1h-99v73h99v-73z" />
    <glyph glyph-name="slash" unicode="/" horiz-adv-x="340" 
d="M323 661l-224 -661h-56l226 661h54z" />
    <glyph glyph-name="zero" unicode="0" horiz-adv-x="438" 
d="M399 171c0 -42 -8.33301 -79 -25 -111c-20.667 -40.667 -49.667 -61 -87 -61h-143c-38 0 -67.333 20.333 -88 61c-16 32 -24 69 -24 111v315c0 42 8 79.667 24 113c20.667 41.333 50 62 88 62h143c38 0 67 -20.667 87 -62c16.667 -33.333 25 -71 25 -113v-315zM305 171
l-0.000976562 315c0 28 -5 53.333 -15 76c-13.333 28.667 -32.333 43 -57 43h-35c-24.667 0 -43.667 -14.333 -57 -43c-10 -22.667 -15 -48 -15 -76v-315c0 -27.333 5 -52 15 -74c13.333 -28.667 32.333 -43 57 -43h35c24.667 0 43.334 14.333 56.001 43
c10.667 22 16 46.667 16 74z" />
    <glyph glyph-name="one" unicode="1" horiz-adv-x="238" 
d="M189 0h-100v606h-53v56h153v-662z" />
    <glyph glyph-name="two" unicode="2" horiz-adv-x="486" 
d="M465 483c0 -42.667 -8.33301 -80 -25 -112c-20 -40 -49.333 -60 -88 -60h-152c-24 0 -41.333 -14.333 -52 -43c-8.66699 -20.667 -13 -45.667 -13 -75v-138h314v-55h-383c-14 0 -22.167 1.16699 -24.5 3.5s-3.5 10.5 -3.5 24.5v165c0 42.667 7.33301 80 22 112
c20 40.667 49 61 87 61h151c25.333 0 44.666 14.333 57.999 43c10 22 15 47.333 15 76s-5 54 -15 76c-13.333 29.333 -32.666 44 -57.999 44h-199v56h253c38 0 67.333 -21.333 88 -64c16.667 -33.333 25 -71.333 25 -114z" />
    <glyph glyph-name="three" unicode="3" horiz-adv-x="406" 
d="M367 174c0 -42.667 -8 -80.333 -24 -113c-20.667 -41.333 -50.334 -62 -89.001 -62h-226v55h173c24.667 0 43.667 15.333 57 46c10 22.667 15 48.667 15 78c0 28.667 -5 54.334 -15 77.001c-12.667 29.333 -31.667 44 -57 44h-91v56h91c25.333 0 44.333 15 57 45
c10 23.333 15 49.666 15 78.999s-5 55.666 -15 78.999c-12.667 31.333 -31.667 47 -57 47h-173v56h226c38.667 0 68.334 -21.333 89.001 -64c16 -33.333 24 -71.666 24 -114.999c0 -68 -17 -119.667 -51 -155c34 -36 51 -87 51 -153z" />
    <glyph glyph-name="four" unicode="4" horiz-adv-x="449" 
d="M424 125h-59v-125h-89v125l-248 -1v74l204 463h133v-484h59v-52zM276 177v371l-166 -371h166z" />
    <glyph glyph-name="five" unicode="5" horiz-adv-x="446" 
d="M425 193c0 -45.333 -8.33398 -86.333 -25.001 -123c-21.333 -46.667 -51.666 -70 -90.999 -70h-272v55h218c26.667 0 46.667 17 60 51c10.667 26 16 54.333 16 85c0 28.667 -4.66699 54 -14 76c-12 29.333 -30.333 44 -55 44h-241v350h354v-56h-260v-239h201
c38 0 66.667 -20.333 86 -61c15.333 -32 23 -69.333 23 -112z" />
    <glyph glyph-name="six" unicode="6" horiz-adv-x="483" 
d="M450 153c0 -53.333 -6.66797 -90.666 -20.001 -111.999c-17.333 -27.333 -51 -41 -101 -41h-157c-51.333 0 -85.666 13.667 -102.999 41c-13.333 20.667 -20 58 -20 112v358c0 54 6.66699 91.333 20 112c17.333 27.333 51.666 41 102.999 41h202v-55h-161
c-27.333 0 -45.666 -12 -54.999 -36c-6 -14.667 -9 -38 -9 -70v-341c0 -32.667 3 -56.334 9 -71.001c9.33301 -24 27.666 -36 54.999 -36h75c41.333 0 62 29.667 62 89v122c0 49.333 -13.667 74 -41 74h-109v55h156c32.667 0 57.334 -13.333 74.001 -40
c13.333 -22 20 -50.333 20 -85v-117z" />
    <glyph glyph-name="seven" unicode="7" horiz-adv-x="410" 
d="M389 661l-201 -661h-103l195 609h-258v52h367z" />
    <glyph glyph-name="eight" unicode="8" horiz-adv-x="479" 
d="M440 174c0 -42.667 -8 -80.334 -24 -113.001c-20.667 -41.333 -50.334 -62 -89.001 -62h-179c-38 0 -67.333 20.667 -88 62c-16 32.667 -24 70.334 -24 113.001c0 66 16.667 117 50 153c-33.333 35.333 -50 87 -50 155c0 43.333 8 81.666 24 114.999
c20 42.667 49.333 64 88 64h179c38.667 0 68.334 -21.333 89.001 -64c16 -33.333 24 -71.666 24 -114.999c0 -67.333 -17 -119 -51 -155c34 -36 51 -87 51 -153zM346 479c0 29.333 -5 55.666 -15 78.999c-12.667 31.333 -31.667 47 -57 47h-72
c-25.333 0 -44.666 -15.667 -57.999 -47c-9.33301 -23.333 -14 -49.666 -14 -78.999s4.66699 -55.666 14 -78.999c13.333 -30 32.666 -45 57.999 -45h72c25.333 0 44.333 15 57 45c10 23.333 15 49.666 15 78.999zM346 178c0 28.667 -5 54.334 -15 77.001
c-12.667 29.333 -31.667 44 -57 44h-72c-25.333 0 -44.333 -14.667 -57 -44c-10 -22.667 -15 -48.334 -15 -77.001c0 -29.333 5 -55.333 15 -78c12.667 -30.667 31.667 -46 57 -46h72c24.667 0 43.667 15.333 57 46c10 22.667 15 48.667 15 78z" />
    <glyph glyph-name="nine" unicode="9" horiz-adv-x="478" 
d="M431 153c0 -54 -6.66699 -91.334 -20 -112.001c-18 -27.333 -52.333 -41 -103 -41h-202v55h161c26.667 0 44.667 12 54 36c6 14.667 9 38 9 70v341c0 32.667 -2.66699 56.334 -8 71.001c-9.33301 24 -27.666 36 -54.999 36h-75c-42 0 -63 -29.667 -63 -89v-24
c-0.666992 -14 -1 -26 -1 -36c0 -67.333 14.333 -101 43 -101h108v-55h-156c-32.667 0 -57.334 13.333 -74.001 40c-13.333 22 -20 50.333 -20 85v82c0 54 6.66699 91.333 20 112c17.333 27.333 51.333 41 102 41h157c50.667 0 85 -13.667 103 -41
c13.333 -20.667 20 -58 20 -112v-358z" />
    <glyph glyph-name="colon" unicode=":" horiz-adv-x="175" 
d="M146 330c0 -16 -3.33301 -29.667 -10 -41c-8 -14.667 -19.333 -22 -34 -22c-14 0 -25 7.33301 -33 22c-6.66699 11.333 -10 25 -10 41c0 15.333 3.66699 29.5 11 42.5s18 19.5 32 19.5c14.667 0 25.667 -6.5 33 -19.5s11 -27.167 11 -42.5zM146 26
c0 -15.333 -3.33301 -29 -10 -41c-8 -14.667 -19.333 -22 -34 -22c-14 0 -25 7.33301 -33 22c-6.66699 12 -10 25.667 -10 41s3.33301 29 10 41c8 14.667 19 22 33 22c14.667 0 26 -7.33301 34 -22c6.66699 -12 10 -25.667 10 -41z" />
    <glyph glyph-name="semicolon" unicode=";" horiz-adv-x="172" 
d="M148 431c0 -16 -3 -30 -9 -42c-8 -14 -19.333 -21 -34 -21c-14 0 -25 7 -33 21c-6.66699 12 -10 26 -10 42c0 15.333 3.66699 29.5 11 42.5s18 19.5 32 19.5c14.667 0 26 -7 34 -21c6 -12 9 -25.667 9 -41zM142 237l-14 -160h-68v160h82z" />
    <glyph glyph-name="less" unicode="&#x3c;" horiz-adv-x="305" 
d="M280 102l-266 241l266 251v-74l-177 -165v-14l177 -165v-74z" />
    <glyph glyph-name="equal" unicode="=" horiz-adv-x="333" 
d="M313 358h-273v57h273v-57zM313 184h-273v56h273v-56z" />
    <glyph glyph-name="greater" unicode="&#x3e;" horiz-adv-x="308" 
d="M294 343l-265 -241v74l176 165v14l-176 165v74z" />
    <glyph glyph-name="question" unicode="?" horiz-adv-x="414" 
d="M393 483c0 -42.667 -8.33203 -79.999 -24.999 -111.999c-20 -40 -49.333 -60 -88 -60h-48c-31.333 0 -54.333 -17.667 -69 -53c-10.667 -25.333 -16 -56.333 -16 -93h-30c-14 33.333 -21 59.333 -21 78c0 31.333 10 59.666 30 84.999s45 38 75 38h25
c25.333 0 44.666 14.333 57.999 43c10 22 15 47.333 15 76s-5.33301 54 -16 76c-12.667 29.333 -31.667 44 -57 44h-199v56h253c38 0 67.333 -21.333 88 -64c16.667 -33.333 25 -71.333 25 -114zM182.001 0.000976562h-100v92h100v-92z" />
    <glyph glyph-name="at" unicode="@" horiz-adv-x="523" 
d="M498 92l-368.003 -0.00195312c-52.667 0 -79 26.667 -79 80v270c0 68 26.333 102 79 102h299c28.667 0 48 -9.66699 58 -29c7.33301 -13.333 11 -35.666 11 -66.999v-269h-267c-17.333 0 -30.666 8.66699 -39.999 26c-8 14.667 -12 31.334 -12 50.001
c0 31.333 8 53 24 65c12 9.33301 31.333 14 58 14c6.66699 0 17.834 -0.5 33.501 -1.5s27.834 -1.5 36.501 -1.5c0 4.66699 0.333008 12 1 22v22c0 24 -3.66699 39.833 -11 47.5s-19.666 11.5 -36.999 11.5c-4.66699 0 -12.834 -0.333008 -24.501 -1s-21.167 -1 -28.5 -1v25
h70c34.667 0 57.667 -13 69 -39c7.33301 -16.667 11 -45 11 -85v-129h45c0 28.667 0.333008 71 1 127s1 98 1 126c0 41.333 -8.66699 62 -26 62h-248c-22 0 -33 -19 -33 -57c0 -6 0.333008 -14.667 1 -26s1 -19.666 1 -24.999v-208c0 -5.33301 -0.333008 -12.833 -1 -22.5
s-1 -16.834 -1 -21.501c0 -27.333 11 -41 33 -41h344v-26zM330.997 203.998v102h-83c-15.333 0 -23 -17.667 -23 -53c0 -32.667 7.66699 -49 23 -49h83z" />
    <glyph glyph-name="A" unicode="A" horiz-adv-x="442" 
d="M428 -1h-99l-25 145h-158l-26 -145h-99l135 661h137zM295 200l-67 369c-1.33301 6.66699 -2 14.334 -2 23.001h-2c0 -8.66699 -0.333008 -16.334 -1 -23.001l-68 -369h140z" />
    <glyph glyph-name="B" unicode="B" horiz-adv-x="475" 
d="M436 174c0 -42.667 -8 -80.334 -24 -113.001c-20.667 -41.333 -50.334 -62 -89.001 -62h-283v662h283c38.667 0 68.334 -21.333 89.001 -64c16 -33.333 24 -71.666 24 -114.999c0 -67.333 -17 -119 -51 -155c34 -36 51 -87 51 -153zM342 178
c0 28.667 -5 54.335 -15 77.002c-12.667 29.333 -31.667 44 -57 44h-91v56h91c25.333 0 44.333 15 57 45c10 23.333 15 49.666 15 78.999s-5 55.666 -15 78.999c-12.667 31.333 -31.667 47 -57 47h-131v-551h131c24.667 0 43.667 15.333 57 46c10 22.667 15 48.667 15 78z
" />
    <glyph glyph-name="C" unicode="C" horiz-adv-x="406" 
d="M376 -1h-226c-38 0 -67.333 20.333 -88 61c-16.667 32 -25 69 -25 111v315c0 42 8.33301 79.667 25 113c20.667 41.333 50 62 88 62h226v-56h-173c-24 0 -42.667 -14.333 -56 -43c-10.667 -22.667 -16 -48 -16 -76v-315c0 -27.333 5.33301 -52 16 -74
c13.333 -28.667 32 -43 56 -43h173v-55z" />
    <glyph glyph-name="D" unicode="D" horiz-adv-x="463" 
d="M436 171c0 -42 -8.33301 -79 -25 -111c-20.667 -40.667 -49.667 -61 -87 -61h-284v662h284c38 0 67 -20.667 87 -62c16.667 -33.333 25 -71 25 -113v-315zM342 171l-0.000976562 315c0 28 -5 53.333 -15 76c-13.333 28.667 -32.333 43 -57 43h-130v-551h130
c24.667 0 43.334 14.333 56.001 43c10.667 22 16 46.667 16 74z" />
    <glyph glyph-name="E" unicode="E" horiz-adv-x="424" 
d="M374 0h-313v661h313v-56h-212v-246h137v-55h-137v-249h212v-55z" />
    <glyph glyph-name="F" unicode="F" horiz-adv-x="354" 
d="M354 605h-213v-246h138v-55h-138v-304h-100v661h313v-56z" />
    <glyph glyph-name="G" unicode="G" horiz-adv-x="446" 
d="M414 -1h-272c-38 0 -67.333 20.333 -88 61c-16.667 32 -25 69 -25 111v315c0 42 8.33301 79.667 25 113c20.667 41.333 50 62 88 62h226v-56h-172c-24.667 0 -43.667 -14.333 -57 -43c-10 -22.667 -15 -48 -15 -76l-1 -315c0 -27.333 5.33301 -52 16 -74
c13.333 -28.667 32.333 -43 57 -43h129v250h-145v56h234v-361z" />
    <glyph glyph-name="H" unicode="H" horiz-adv-x="517" 
d="M467 0h-100v304h-205v-304h-101v661h101v-302h205v302h100v-661z" />
    <glyph glyph-name="I" unicode="I" horiz-adv-x="210" 
d="M161 0h-101v661h101v-661z" />
    <glyph glyph-name="J" unicode="J" horiz-adv-x="426" 
d="M377 171c0 -42 -8.33301 -79 -25 -111c-20.667 -40.667 -50 -61 -88 -61h-226v55h172c24.667 0 43.667 14.333 57 43c10 22 15 46.667 15 74v434h-72v56h167v-490z" />
    <glyph glyph-name="K" unicode="K" horiz-adv-x="462" 
d="M447 0h-112l-182 313v-313h-101v661h101v-287l182 287h112l-222 -315z" />
    <glyph glyph-name="L" unicode="L" horiz-adv-x="378" 
d="M349 0h-293v665h99v-608h194v-57z" />
    <glyph glyph-name="M" unicode="M" horiz-adv-x="604" 
d="M554 0h-76v475l-125 -475h-87l-124 472v-472h-78v661h113l132 -512l132 512h113v-661z" />
    <glyph glyph-name="N" unicode="N" horiz-adv-x="473" 
d="M436 0h-127l-195 464v-464h-77v661h109l212 -522v522h78v-661z" />
    <glyph glyph-name="O" unicode="O" horiz-adv-x="496" 
d="M457 171c0 -42 -8.33301 -79 -25 -111c-20.667 -40.667 -50 -61 -88 -61h-200c-38 0 -67.333 20.333 -88 61c-16 32 -24 69 -24 111v315c0 42 8 79.667 24 113c20.667 41.333 50 62 88 62h200c38 0 67.333 -20.667 88 -62c16.667 -33.333 25 -71 25 -113v-315zM363 171
v315c0 28 -5.33301 53.333 -16 76c-13.333 28.667 -32 43 -56 43h-93c-24.667 0 -43.667 -14.333 -57 -43c-10 -22.667 -15 -48 -15 -76v-315c0 -27.333 5 -52 15 -74c13.333 -28.667 32.333 -43 57 -43h93c24 0 42.667 14.333 56 43c10.667 22 16 46.667 16 74z" />
    <glyph glyph-name="P" unicode="P" horiz-adv-x="459" 
d="M432 459c0 -46 -7.33301 -87.001 -22 -123.001c-20 -48 -50 -72 -90 -72h-145v56h91c26 0 45.667 18 59 54c8.66699 26 13 55 13 87c0 32.667 -4.66699 62.334 -14 89.001c-12.667 36.667 -32 55 -58 55h-130v-605h-100v661h284c39.333 0 69.333 -25.333 90 -76
c14.667 -37.333 22 -79.333 22 -126z" />
    <glyph glyph-name="Q" unicode="Q" horiz-adv-x="531" 
d="M491 171c0 -42 -8 -79 -24 -111c-20.667 -40.667 -50 -61 -88 -61h-64l30 -68h-68l-30 68h-103c-38 0 -67.333 20.333 -88 61c-16 32 -24 69 -24 111v315c0 42 8 79.667 24 113c20.667 41.333 50 62 88 62h235c38 0 67.333 -20.667 88 -62c16 -33.333 24 -71 24 -113
v-315zM397 171v315c0 28 -5 53.333 -15 76c-13.333 28.667 -32.333 43 -57 43h-127c-24.667 0 -43.667 -14.333 -57 -43c-10 -22.667 -15 -48 -15 -76v-315c0 -27.333 5 -52 15 -74c13.333 -28.667 32.333 -43 57 -43h127c24.667 0 43.667 14.333 57 43
c10 22 15 46.667 15 74z" />
    <glyph glyph-name="R" unicode="R" horiz-adv-x="479" 
d="M438 484c0 -72.667 -22.333 -125.665 -67 -158.998c41.333 -23.333 62 -81 62 -173v-152h-94v152c0 33.333 -4.66699 63.333 -14 90c-12.667 38 -32 57 -58 57h-89v56h91c25.333 0 44.333 15 57 45c10 23.333 15 49.666 15 78.999s-5 55.666 -15 78.999
c-12.667 31.333 -31.667 47 -57 47h-131v-605h-99v661h283c38.667 0 68.667 -21 90 -63c17.333 -34 26 -72 26 -114z" />
    <glyph glyph-name="S" unicode="S" horiz-adv-x="431" 
d="M408 199c0 -46 -8.33398 -88.001 -25.001 -126.001c-21.333 -48.667 -51.666 -73 -90.999 -73h-242v55h188c26 0 46 16 60 48c10.667 24.667 16 52 16 82c0 48 -9.66699 80 -29 96c-14 12.667 -40 19 -78 19h-32c-15.333 -0.666992 -27.333 -1 -36 -1
c-38.667 0 -68 21 -88 63c-16 32.667 -24 71 -24 115c0 43.333 8 82.333 24 117c20.667 44.667 50 67 88 67h219v-56h-165c-24.667 0 -43.667 -13.667 -57 -41c-10 -21.333 -15 -45.666 -15 -72.999c0 -28 5 -52.333 15 -73c13.333 -26.667 32.333 -40 57 -40h106
c38 0 66.667 -21.667 86 -65c15.333 -32.667 23 -70.667 23 -114z" />
    <glyph glyph-name="T" unicode="T" horiz-adv-x="417" 
d="M406 609h-142v-609h-100v609h-130v55h372v-55z" />
    <glyph glyph-name="U" unicode="U" horiz-adv-x="536" 
d="M486 171c0 -42 -8.33301 -79 -25 -111c-20 -40.667 -49 -61 -87 -61h-224c-38 0 -67 20.333 -87 61c-16.667 32 -25 69 -25 111v488h94v-488c0 -27.333 5 -52 15 -74c13.333 -28.667 32.333 -43 57 -43h116c24.667 0 43.667 14.333 57 43c10 22 15 46.667 15 74v488h94
v-488z" />
    <glyph glyph-name="V" unicode="V" horiz-adv-x="454" 
d="M434 661l-136 -661h-136l-136 661h100l101 -581c0 -0.666992 0.666992 -8.66699 2 -24h2c0 5.33301 0.666992 13.333 2 24l101 581h100z" />
    <glyph glyph-name="W" unicode="W" horiz-adv-x="728" 
d="M707 661l-136 -661h-136l-63 418l-62 -418h-137l-135 661h99l101 -579l2 -26h1c0.666992 5.33301 1.66699 14 3 26l102 579h53l101 -584l3 -21h1c0 4.66699 0.666992 11.667 2 21l101 584h100z" />
    <glyph glyph-name="X" unicode="X" horiz-adv-x="472" 
d="M440 661l-141 -337l140 -324h-107l-88 254l-91 -254h-111l140 324l-140 337h102l93 -266l101 266h102z" />
    <glyph glyph-name="Y" unicode="Y" horiz-adv-x="431" 
d="M418 661l-142 -344v-317h-100l-1 319l-136 342h106l84 -263l83 263h106z" />
    <glyph glyph-name="Z" unicode="Z" horiz-adv-x="439" 
d="M397 0h-349v36l250 569h-250v56h349v-52l-237 -554h237v-55z" />
    <glyph glyph-name="bracketleft" unicode="[" 
 />
    <glyph glyph-name="backslash" unicode="\" horiz-adv-x="321" 
d="M292 -1h-50l-203 606h48z" />
    <glyph glyph-name="bracketright" unicode="]" 
 />
    <glyph glyph-name="asciicircum" unicode="^" horiz-adv-x="263" 
d="M224 524h-33l-49 68l-48 -68h-33l54 147h55z" />
    <glyph glyph-name="underscore" unicode="_" horiz-adv-x="493" 
d="M493 -211h-504v56h504v-56z" />
    <glyph glyph-name="grave" unicode="`" horiz-adv-x="203" 
d="M189 550l-2 -27l-178 86l2 26z" />
    <glyph glyph-name="a" unicode="a" horiz-adv-x="432" 
d="M403 0l-278.001 -0.00195312c-35.333 0 -62.333 18 -81 54c-15.333 28.667 -23 62.334 -23 101.001s7.66699 73 23 103c18.667 36.667 45.667 55 81 55h134v-55h-36c-14.667 0.666992 -24.667 1 -30 1c-28.667 0 -48 -5.33301 -58 -16c-12.667 -13.333 -19 -40 -19 -80
c0 -22.667 3 -44 9 -64c8.66699 -29.333 21.334 -44 38.001 -44h141v325c0 28.667 -3.33301 49.334 -10 62.001c-10 17.333 -28 26 -54 26h-127v55h168c50.667 0 84.667 -13.667 102 -41c13.333 -20.667 20 -58 20 -112v-370z" />
    <glyph glyph-name="b" unicode="b" horiz-adv-x="472" 
d="M448 176c0 -55.333 -6.33398 -95.667 -19.001 -121c-18.667 -36.667 -53 -55 -103 -55h-276v662h100v-607h50h50c46 0 75 9.33301 87 28c8 13.333 12 44 12 92v183c0 33.333 -3 57.333 -9 72c-9.33301 25.333 -27.666 38 -54.999 38h-87v55h128c50 0 84.333 -18 103 -54
c12.667 -26 19 -66.667 19 -122v-171z" />
    <glyph glyph-name="c" unicode="c" horiz-adv-x="402" 
d="M373 0l-199.002 0.000976562c-50.667 0 -85 16 -103 48c-12.667 23.333 -19 62.333 -19 117v194c0 54 6.33301 92.667 19 116c18 32 52.333 48 103 48h199v-55h-157c-27.333 0 -45.666 -12.333 -54.999 -37c-6 -14.667 -9 -38.334 -9 -71.001v-205
c0 -36.667 4.33301 -61.334 13 -74.001c10.667 -16 33.334 -24.667 68.001 -26c18 -1.33301 41.333 -1.66602 70 -0.999023c40 0.666992 63.333 1 70 1v-55z" />
    <glyph glyph-name="d" unicode="d" horiz-adv-x="488" 
d="M438 0l-264 0.000976562c-50 0 -84 18.333 -102 55c-13.333 25.333 -20 65.666 -20 120.999v171c0 55.333 6.66699 96 20 122c18 36 52 54 102 54h116v-55h-75c-27.333 0 -46 -12.667 -56 -38c-5.33301 -15.333 -8 -39.333 -8 -72v-133c0 -63.333 4.33301 -105 13 -125
c14 -30 45.333 -45 94 -45h40h41v607h99v-662z" />
    <glyph glyph-name="e" unicode="e" horiz-adv-x="451" 
d="M426 369c0 -36 -6 -67.666 -18 -94.999c-16 -36.667 -39.667 -55 -71 -55h-140v55h83c19.333 0 33.666 13.667 42.999 41c6.66699 19.333 10 41 10 65c0 19.333 -2.33301 37 -7 53c-6 23.333 -15.667 35 -29 35h-99c-27.333 0 -45.666 -12 -54.999 -36
c-6 -14.667 -9 -38.334 -9 -71.001v-199c0 -38.667 3.66699 -64.667 11 -78c11.333 -19.333 34.666 -29 69.999 -29c-14 0 44.333 0 175 0v-55h-234c-50.667 0 -85 16 -103 48c-12.667 23.333 -19 62.333 -19 117v194c0 54 6.33301 92.667 19 116c18 32 52.333 48 103 48
h181c30.667 0 54.334 -19 71.001 -57c12 -28.667 18 -61 18 -97z" />
    <glyph glyph-name="f" unicode="f" horiz-adv-x="271" 
d="M255 450l-106 0.000976562v-450h-99v519c0 52 7 87.667 21 107c16.667 23.333 50.334 35 101.001 35h83v-57l-39 1c-30.667 0 -50.334 -9.33301 -59.001 -28c-5.33301 -10.667 -8 -34.334 -8 -71.001h106v-56z" />
    <glyph glyph-name="g" unicode="g" horiz-adv-x="471" 
d="M442 -56c0 -54.667 -6.66797 -93.668 -20.001 -117.001c-18 -32 -52 -48 -102 -48h-146v56c20.667 -0.666992 38.334 -1 53.001 -1c44.667 0 74 5 88 15c18.667 12.667 28 41.334 28 86.001l-1 533h-50c-21.333 0.666992 -38 1 -50 1c-50.667 0 -81.334 -13 -92.001 -39
c-5.33301 -12 -7.66602 -48 -6.99902 -108l1 -162c0 -32 3 -55 9 -69c9.33301 -22.667 27.333 -34 54 -34h88v-56h-129c-50.667 0 -85 16 -103 48c-13.333 23.333 -20 62.333 -20 117v194c0 54 7 92.667 21 116c18 32 52 48 102 48h276v-580z" />
    <glyph glyph-name="h" unicode="h" horiz-adv-x="480" 
d="M451 0h-98.999v352c0 36 -2.33301 61 -7 75c-8.66699 27.333 -27.334 41 -56.001 41h-139v-468h-101v661h101v-138h179c50.667 0 84.667 -13.667 102 -41c13.333 -20.667 20 -58 20 -112v-370z" />
    <glyph glyph-name="i" unicode="i" horiz-adv-x="191" 
d="M152 577h-101v85h101v-85zM152 0h-101v523h101v-523z" />
    <glyph glyph-name="j" unicode="j" horiz-adv-x="302" 
d="M253 577h-100v85h100v-85zM253 -68c0 -53.333 -7 -90.332 -21 -110.999c-17.333 -28 -51 -42 -101 -42h-82v56h9c42.667 0 69.667 8.33301 81 25c9.33301 13.333 14 43.666 14 90.999v572h100v-591z" />
    <glyph glyph-name="k" unicode="k" horiz-adv-x="445" 
d="M416 0h-112l-152 232v-232h-101v661h101v-342l148 205h101l-185 -236z" />
    <glyph glyph-name="l" unicode="l" horiz-adv-x="211" 
d="M161 0h-101v661h101v-661z" />
    <glyph glyph-name="m" unicode="m" horiz-adv-x="706" 
d="M677 0h-98.999v352c0 36 -2.33301 61 -7 75c-8.66699 27.333 -27.334 41 -56.001 41h-105v-468h-99v468h-168v-468h-100v523h512c50.667 0 84.667 -13.667 102 -41c13.333 -20.667 20 -58 20 -112v-370z" />
    <glyph glyph-name="n" unicode="n" horiz-adv-x="471" 
d="M444 0h-98.999v352c0 36 -2.33301 61 -7 75c-8.66699 27.333 -27.334 41 -56.001 41h-139v-468h-100v523h279c50.667 0 84.667 -13.667 102 -41c13.333 -20.667 20 -58 20 -112v-370z" />
    <glyph glyph-name="o" unicode="o" horiz-adv-x="479" 
d="M454 165c0 -54.667 -6.66699 -93.667 -20 -117c-18 -32 -52 -48 -102 -48h-175c-50 0 -84 16 -102 48c-13.333 23.333 -20 62.333 -20 117v194c0 54 6.66699 92.667 20 116c18 32 52 48 102 48h175c50 0 84 -16 102 -48c13.333 -23.333 20 -62 20 -116v-194zM353 360
c0 33.333 -2.66895 57.334 -8.00195 72.001c-9.33301 24 -27.666 36 -54.999 36h-91c-27.333 0 -45.666 -12 -54.999 -36c-6 -14.667 -9 -38.667 -9 -72v-187c0 -28.667 6.33301 -54.334 19 -77.001c15.333 -27.333 36 -41 62 -41h57c35.333 0 58.333 10 69 30
c7.33301 13.333 11 39.333 11 78v197z" />
    <glyph glyph-name="p" unicode="p" horiz-adv-x="465" 
d="M439 166c0 -54.667 -6.66602 -93.667 -19.999 -117c-18 -32 -52.333 -48 -103 -48h-140v56h99c27.333 0 45.666 11.333 54.999 34c6 14.667 9 37.667 9 69v162c0 64 -3 101.667 -9 113c-11.333 22.667 -44.333 34 -99 34c-12.667 0 -29.667 -0.333008 -51 -1h-51v-693
h-100v749h287c50 0 84.333 -16 103 -48c13.333 -23.333 20 -62 20 -116v-194z" />
    <glyph glyph-name="q" unicode="q" horiz-adv-x="458" 
d="M429 -225h-100v693l-102 1c-49.333 0 -79.666 -13.333 -90.999 -40c-4.66699 -11.333 -7 -47 -7 -107v-162c0 -31.333 3.33301 -54.333 10 -69c9.33301 -22.667 27.666 -34 54.999 -34h88v-56h-129c-50.667 0 -85 16 -103 48c-13.333 23.333 -20 62.333 -20 117v194
c0 54 6.66699 92.667 20 116c18.667 32 53 48 103 48h276v-749z" />
    <glyph glyph-name="r" unicode="r" horiz-adv-x="275" 
d="M274 476h-50.001c-41.333 0.666992 -67.666 -8.33301 -78.999 -27c-7.33301 -12 -11 -41.667 -11 -89v-360h-100v373c0 105.333 57.333 158 172 158h68v-55z" />
    <glyph glyph-name="s" unicode="s" horiz-adv-x="430" 
d="M405 145c0 -34 -4.99902 -64.3311 -14.999 -90.998c-14 -36 -35.667 -54 -65 -54h-263v55h211c16 0 28.333 10.667 37 32c6 16 9 33.667 9 53s-3 37 -9 53c-8.66699 22 -21 33 -37 33h-156c-30.667 0 -54.334 19.667 -71.001 59c-13.333 30 -20 62.667 -20 98
c0 36.667 7 67.667 21 93c16.667 32 41.667 48 75 48h220v-56h-185c-14 0 -24.667 -10.667 -32 -32c-5.33301 -14.667 -8 -31.334 -8 -50.001c0 -18 2.66699 -34.667 8 -50c7.33301 -20.667 18 -31 32 -31h168c28 0 49.333 -20.667 64 -62
c10.667 -30.667 16 -63.334 16 -98.001z" />
    <glyph glyph-name="t" unicode="t" horiz-adv-x="287" 
d="M278 468l-129 -0.000976562v-320c0 -41.333 6.33301 -67.666 19 -78.999c10 -9.33301 35 -14 75 -14v-55h-72c-51.333 0 -84.5 8.66699 -99.5 26s-22.5 52 -22.5 104v531h100v-138h129v-55z" />
    <glyph glyph-name="u" unicode="u" horiz-adv-x="464" 
d="M435 1l-280.001 0.000976562c-50.667 0 -84.667 13.667 -102 41c-13.333 21.333 -20 58.666 -20 111.999v370h98v-351c0 -36 2.66699 -61.333 8 -76c8.66699 -26.667 27.334 -40 56.001 -40h140v467h100v-523z" />
    <glyph glyph-name="v" unicode="v" horiz-adv-x="462" 
d="M450 524l-142 -524h-141l-142 524h102l110 -466l111 466h102z" />
    <glyph glyph-name="w" unicode="w" horiz-adv-x="712" 
d="M703 524l-130 -524h-141l-68 359l-68 -359h-141l-130 524h102l98 -466l111 466h56l110 -466l99 466h102z" />
    <glyph glyph-name="x" unicode="x" horiz-adv-x="457" 
d="M428 524l-132 -266l130 -258h-103l-81 214l-83 -214h-103l130 258l-131 266h96l91 -226l89 226h97z" />
    <glyph glyph-name="y" unicode="y" horiz-adv-x="507" 
d="M493 524l-264 -753h-91l84 229l-200 524h114l144 -397l134 397h79z" />
    <glyph glyph-name="z" unicode="z" horiz-adv-x="412" 
d="M383 0h-337v32l229 436h-229v56h337v-48l-215 -421h215v-55z" />
    <glyph glyph-name="braceleft" unicode="{" 
 />
    <glyph glyph-name="bar" unicode="|" horiz-adv-x="209" 
d="M160 -196h-99v958h99v-958z" />
    <glyph glyph-name="braceright" unicode="}" 
 />
    <glyph glyph-name="exclamdown" unicode="&#xa1;" horiz-adv-x="210" 
d="M153 324h-100v-479h100v479zM153 507h-100v-73h100v73z" />
    <glyph glyph-name="cent" unicode="&#xa2;" horiz-adv-x="259" 
d="M238 308l-141.001 -0.00390625c-36 0 -60.333 11.333 -73 34c-9.33301 16.667 -14 44.334 -14 83.001v138c0 38.667 4.66699 66.334 14 83.001c12.667 22.667 37 34 73 34h141v-40h-112c-30 0 -45 -25.333 -45 -76v-146c0 -25.333 3 -42.666 9 -51.999
c8 -11.333 24 -17.666 48 -18.999c13.333 -0.666992 30 -0.666992 50 0c28.667 0.666992 45.334 1 50.001 1v-40zM170.999 247.996h-32v482h32v-482z" />
    <glyph glyph-name="sterling" unicode="&#xa3;" 
 />
    <glyph glyph-name="currency" unicode="&#xa4;" horiz-adv-x="406" 
d="M376 -1h-226c-75.333 0 -113 69.333 -113 208h-55v56h55v118h-55v57h55c0 148.667 37.667 223 113 223h226v-56h-173c-32 0 -53.333 -21.667 -64 -65c-5.33301 -22 -8 -56 -8 -102h124v-57h-124v-118h124v-56h-124v-36c0 -28 5.33301 -53 16 -75
c13.333 -28 32 -42 56 -42h173v-55z" />
    <glyph glyph-name="yen" unicode="&#xa5;" horiz-adv-x="380" 
d="M390 661l-142 -344v-317h-100l-1 319l-136 342h106l84 -263l84 263h105zM320 204h-245v38h245v-38zM320 86h-245v38h245v-38z" />
    <glyph glyph-name="brokenbar" unicode="&#xa6;" horiz-adv-x="133" 
d="M108 453h-76v329h76v-329zM108 -180h-76v329h76v-329z" />
    <glyph glyph-name="section" unicode="&#xa7;" 
 />
    <glyph glyph-name="dieresis" unicode="&#xa8;" horiz-adv-x="244" 
d="M228 558c0 -16.667 -15.667 -25 -47 -25c-32 0 -48 8.33301 -48 25c0 17.333 16 26 48 26c31.333 0 47 -8.66699 47 -26zM124 558c0 -16.667 -16 -25 -48 -25s-48 8.33301 -48 25c0 17.333 16 26 48 26s48 -8.66699 48 -26z" />
    <glyph glyph-name="copyright" unicode="&#xa9;" horiz-adv-x="532" 
d="M384 86l-175 -0.000976562c-29.333 0 -52 8.66699 -68 26c-12.667 14 -19 29.667 -19 47v133c0 18 6.33301 34 19 48c16 17.333 38.667 26 68 26h175v-23h-134c-18.667 0 -33.334 -6.33301 -44.001 -19c-8 -9.33301 -12 -20 -12 -32v-133c0 -11.333 4 -21.666 12 -30.999
c10.667 -12 25.334 -18 44.001 -18h134v-24zM510 227.999c0 -64.667 -23.335 -118.834 -70.002 -162.501s-102.667 -65.5 -168 -65.5s-121.166 21.833 -167.499 65.5s-69.5 97.834 -69.5 162.501s23.333 119 70 163s102.334 66 167.001 66s120.5 -22 167.5 -66
s70.5 -98.333 70.5 -163zM467.998 227.999c0 57.333 -18 108.001 -54 152.001c-38.667 47.333 -86 71 -142 71c-55.333 0 -102.333 -23.667 -141 -71c-36 -44 -54 -94.667 -54 -152c0 -56.667 18 -107.334 54 -152.001c38 -46.667 85 -70 141 -70s103.333 23.667 142 71
c36 44 54 94.333 54 151z" />
    <glyph glyph-name="ordfeminine" unicode="&#xaa;" 
 />
    <glyph glyph-name="guillemotleft" unicode="&#xab;" 
 />
    <glyph glyph-name="logicalnot" unicode="&#xac;" 
 />
    <glyph glyph-name="registered" unicode="&#xae;" horiz-adv-x="497" 
d="M337 522c0 -26 -9 -44.667 -27 -56c16.667 -8.66699 25 -29 25 -61v-53h-37v53c0 34.667 -9.33301 52 -28 52h-35v19h35c19.333 0 29 14.667 29 44s-9.66699 44 -29 44h-51v-212h-39v231h111c15.333 0 27.333 -7 36 -21c6.66699 -12 10 -25.333 10 -40zM481 470
c0 -62.667 -22.167 -115.5 -66.5 -158.5s-97.833 -64.5 -160.5 -64.5s-116.167 21.5 -160.5 64.5s-66.5 95.833 -66.5 158.5c0 62 22.167 114.5 66.5 157.5s97.833 64.5 160.5 64.5c62 0 115.333 -21.5 160 -64.5s67 -95.5 67 -157.5zM440 470c0 54.667 -17 103.667 -51 147
c-36.667 46 -81.667 69 -135 69c-54 0 -99 -23 -135 -69c-34 -43.333 -51 -92.333 -51 -147c0 -55.333 17 -104.666 51 -147.999c36 -46 81 -69 135 -69c53.333 0 98.333 23 135 69c34 43.333 51 92.666 51 147.999z" />
    <glyph glyph-name="overscore" unicode="&#xaf;" 
 />
    <glyph glyph-name="degree" unicode="&#xb0;" horiz-adv-x="410" 
d="M386 598c0 -48 -18.166 -87.167 -54.499 -117.5s-79.166 -45.5 -128.499 -45.5c-48.667 0 -90.334 14.667 -125.001 44c-37.333 31.333 -56 71 -56 119c0 48.667 18.333 88.667 55 120c35.333 29.333 77.333 44 126 44c49.333 0 92.166 -15.333 128.499 -46
s54.5 -70 54.5 -118zM309.001 599c0 32.667 -9.33301 62.667 -28 90c-20.667 30 -46.667 45 -78 45c-30.667 0 -56.334 -15 -77.001 -45c-18.667 -27.333 -28 -57.333 -28 -90s9.33301 -62.667 28 -90c20.667 -30.667 46.334 -46 77.001 -46c31.333 0 57.333 15.333 78 46
c18.667 27.333 28 57.333 28 90z" />
    <glyph glyph-name="plusminus" unicode="&#xb1;" 
 />
    <glyph glyph-name="twosuperior" unicode="&#xb2;" 
 />
    <glyph glyph-name="threesuperior" unicode="&#xb3;" 
 />
    <glyph glyph-name="acute" unicode="&#xb4;" horiz-adv-x="231" 
d="M191 609l-178 -86l-2 27l178 85z" />
    <glyph glyph-name="mu1" unicode="&#xb5;" 
 />
    <glyph glyph-name="middot" unicode="&#xb7;" 
 />
    <glyph glyph-name="middot" unicode="&#x2219;" 
 />
    <glyph glyph-name="cedilla" unicode="&#xb8;" horiz-adv-x="201" 
d="M208 -125c0 -14.667 -4.50098 -27.166 -13.501 -37.499s-20.833 -15.5 -35.5 -15.5h-108v24h85c20.667 0 31 9.66699 31 29c0 13.333 -7.16699 21.666 -21.5 24.999l-42.5 10c-15.333 8 -23 23.333 -23 46c0 8 3 19 9 33h13c0 -32 9.33301 -51.667 28 -59
c16.667 -2.66699 33.834 -6 51.501 -10s26.5 -19 26.5 -45z" />
    <glyph glyph-name="onesuperior" unicode="&#xb9;" 
 />
    <glyph glyph-name="ordmasculine" unicode="&#xba;" horiz-adv-x="374" 
d="M331 605c0 -46.667 -14.167 -85.167 -42.5 -115.5s-65.833 -45.5 -112.5 -45.5c-46 0 -81.667 13.833 -107 41.5s-38 64.5 -38 110.5c0 51.333 12.667 91.666 38 120.999s63.333 44 114 44c46 0 82.167 -14.167 108.5 -42.5s39.5 -66.166 39.5 -113.499zM247 574
c0 32 -5.66699 63.999 -17 95.999c-15.333 42 -36 63 -62 63c-34.667 0 -52 -33.667 -52 -101c0 -31.333 5.33301 -62.666 16 -93.999c14.667 -41.333 34.667 -62 60 -62c36.667 0 55 32.667 55 98z" />
    <glyph glyph-name="guillemotright" unicode="&#xbb;" 
 />
    <glyph glyph-name="onequarter" unicode="&#xbc;" 
 />
    <glyph glyph-name="onehalf" unicode="&#xbd;" 
 />
    <glyph glyph-name="threequarters" unicode="&#xbe;" 
 />
    <glyph glyph-name="questiondown" unicode="&#xbf;" horiz-adv-x="414" 
d="M31 -21c0 42.667 8 79.999 24 111.999c20 40 49.333 60 88 60h48c31.333 0 54.333 17.667 69 53c10.667 25.333 16 56.333 16 93h30c14 -32.667 21 -58.667 21 -78c0 -31.333 -10 -59.666 -30 -84.999s-45 -38 -75 -38h-25c-25.333 0 -44.333 -14.333 -57 -43
c-10 -22 -15 -47.333 -15 -76c0 -28 5 -53.333 15 -76c12.667 -29.333 31.667 -44 57 -44h199v-56h-253c-38 0 -67.333 21.333 -88 64c-16 33.333 -24 71.333 -24 114zM241 461.999h100v-92h-100v92z" />
    <glyph glyph-name="Agrave" unicode="&#xc0;" horiz-adv-x="442" 
d="M429 -1h-100l-25 145h-158l-25 -145h-99l135 661h136zM295 200l-67.002 369c-1.33301 6.66699 -1.66602 14.334 -0.999023 23.001h-3c0.666992 -8.66699 0.333984 -16.334 -0.999023 -23.001l-67 -369h139zM285.998 713l-2 -27l-178 86l2 26z" />
    <glyph glyph-name="Aacute" unicode="&#xc1;" horiz-adv-x="442" 
d="M429 -1h-100l-25 145h-158l-25 -145h-99l135 661h136zM295 200l-67.002 369c-1.33301 6.66699 -1.66602 14.334 -0.999023 23.001h-3c0.666992 -8.66699 0.333984 -16.334 -0.999023 -23.001l-67 -369h139zM335.998 773l-178 -85l-2 26l178 85z" />
    <glyph glyph-name="Acircumflex" unicode="&#xc2;" horiz-adv-x="442" 
d="M429 -1h-100l-25 145h-158l-25 -145h-99l135 661h136zM295 200l-67.002 369c-1.33301 6.66699 -1.66602 14.334 -0.999023 23.001h-3c0.666992 -8.66699 0.333984 -16.334 -0.999023 -23.001l-67 -369h139zM350.998 724h-46l-70 36l-68 -36h-47l74 52h84z" />
    <glyph glyph-name="Atilde" unicode="&#xc3;" horiz-adv-x="442" 
d="M429 -1h-100l-25 145h-158l-25 -145h-99l135 661h136zM295 200l-67.002 369c-1.33301 6.66699 -1.66602 14.334 -0.999023 23.001h-3c0.666992 -8.66699 0.333984 -16.334 -0.999023 -23.001l-67 -369h139zM345.998 771c-14 -28.667 -38.334 -42.999 -73.001 -42.999
c-22.667 0 -51 9.33301 -85 28c-4.66699 -5.33301 -8.66699 -14.333 -12 -27h-57c12.667 28 36.334 42 71.001 42c21.333 0 50 -9.33301 86 -28c4.66699 5.33301 8.66699 14.666 12 27.999h58z" />
    <glyph glyph-name="Adieresis" unicode="&#xc4;" horiz-adv-x="442" 
d="M429 -1h-100l-25 145h-158l-25 -145h-99l135 661h136zM295 200l-67.002 369c-1.33301 6.66699 -1.66602 14.334 -0.999023 23.001h-3c0.666992 -8.66699 0.333984 -16.334 -0.999023 -23.001l-67 -369h139zM322.998 750c0 -16.667 -16 -25 -48 -25s-48 8.33301 -48 25
c0 17.333 16 26 48 26s48 -8.66699 48 -26zM217.998 750c0 -16.667 -16 -25 -48 -25s-48 8.33301 -48 25c0 17.333 16 26 48 26s48 -8.66699 48 -26z" />
    <glyph glyph-name="Aring" unicode="&#xc5;" horiz-adv-x="442" 
d="M429 -1h-100l-25 145h-158l-25 -145h-99l135 661h136zM295 200l-67.002 369c-1.33301 6.66699 -1.66602 14.334 -0.999023 23.001h-3c0.666992 -8.66699 0.333984 -16.334 -0.999023 -23.001l-67 -369h139zM310.998 731c0 -17.333 -10 -31 -30 -41
c-16 -8.66699 -33.667 -13 -53 -13c-18.667 0 -36.334 4.33301 -53.001 13c-19.333 10 -29 23.667 -29 41s9.66699 31.333 29 42c16.667 8 34.334 12 53.001 12c19.333 0 37 -4.33301 53 -13c20 -10 30 -23.667 30 -41zM255.998 736c0 30.667 -9.33301 46 -28 46
c-18 0 -27 -14.667 -27 -44v-14c0 -28.667 9 -43 27 -43c18.667 0 28 15 28 45v10z" />
    <glyph glyph-name="AE" unicode="&#xc6;" horiz-adv-x="488" 
d="M460 4h-254v210h-60l-33 -214h-100l124 661h323v-52h-150v-340h93v-55h-93v-155h150v-55zM206 269v264l-49 -264h49z" />
    <glyph glyph-name="Ccedilla" unicode="&#xc7;" horiz-adv-x="421" 
d="M371 -1h-226c-38 0 -67.333 20.333 -88 61c-16 32 -24 69 -24 111v315c0 42 8 79.667 24 113c20.667 41.333 50 62 88 62h226v-56h-172c-24.667 0 -43.667 -14.333 -57 -43c-10 -22.667 -15 -48 -15 -76v-315c0 -27.333 5 -52 15 -74c13.333 -28.667 32.333 -43 57 -43
h172v-55zM338 -102c0 -14.667 -4.5 -27.167 -13.5 -37.5s-20.5 -15.5 -34.5 -15.5h-109v24h86c20.667 0 31 9.33301 31 28c0 13.333 -7.33301 21.833 -22 25.5l-43 10.5c-15.333 7.33301 -23 22.333 -23 45c0 8 3 19.333 9 34h14c0 -32 9 -51.667 27 -59
c16.667 -3.33301 33.667 -6.33301 51 -9c18 -4.66699 27 -20 27 -46z" />
    <glyph glyph-name="Egrave" unicode="&#xc8;" horiz-adv-x="424" 
d="M354 0h-314v661h314v-56h-213v-246h138v-55h-138v-249h213v-55zM280 711l-2 -27l-178 85l1 26z" />
    <glyph glyph-name="Eacute" unicode="&#xc9;" horiz-adv-x="424" 
d="M354 0h-314v661h314v-56h-213v-246h138v-55h-138v-249h213v-55zM287 776l-178 -86l-1 27l178 85z" />
    <glyph glyph-name="Ecircumflex" unicode="&#xca;" horiz-adv-x="424" 
d="M350 0h-314v661h314v-56h-213v-246h137v-55h-137v-249h213v-55zM317 727h-46l-71 36l-68 -36h-47l75 52h83z" />
    <glyph glyph-name="Edieresis" unicode="&#xcb;" horiz-adv-x="424" 
d="M354 0h-314v661h314v-56h-213v-246h138v-55h-138v-249h213v-55zM302 756c0 -16.667 -16 -25 -48 -25s-48 8.33301 -48 25s16 25 48 25s48 -8.33301 48 -25zM197 756c0 -16.667 -15.667 -25 -47 -25c-32 0 -48 8.33301 -48 25s15.667 25 47 25c32 0 48 -8.33301 48 -25z
" />
    <glyph glyph-name="Igrave" unicode="&#xcc;" horiz-adv-x="210" 
d="M152 0h-101v661h101v-661zM181 711l-1 -27l-178 86l1 26z" />
    <glyph glyph-name="Iacute" unicode="&#xcd;" horiz-adv-x="210" 
d="M155 0h-100v661h100v-661zM217 777l-178 -86l-2 27l178 84z" />
    <glyph glyph-name="Icircumflex" unicode="&#xce;" horiz-adv-x="210" 
d="M155 0h-100v661h100v-661zM222 730h-46l-70 36l-69 -36h-46l74 52h83z" />
    <glyph glyph-name="Idieresis" unicode="&#xcf;" horiz-adv-x="210" 
d="M156 0h-101v661h101v-661zM200 757c0 -17.333 -16 -26 -48 -26s-48 8.66699 -48 26c0 16.667 16 25 48 25s48 -8.33301 48 -25zM95 757c0 -17.333 -16 -26 -48 -26s-48 8.66699 -48 26c0 16.667 16 25 48 25s48 -8.33301 48 -25z" />
    <glyph glyph-name="Eth" unicode="&#xd0;" horiz-adv-x="475" 
d="M435 171c0 -42 -8 -79 -24 -111c-20.667 -40.667 -50 -61 -88 -61h-284v662h284c38 0 67.333 -20.667 88 -62c16 -33.333 24 -71 24 -113v-315zM341 171v315c0 28 -5 53.333 -15 76c-13.333 28.667 -32.333 43 -57 43h-130v-551h130c24.667 0 43.667 14 57 42
c10 22.667 15 47.667 15 75zM212 314h-211v55h211v-55z" />
    <glyph glyph-name="Ntilde" unicode="&#xd1;" horiz-adv-x="473" 
d="M436 0h-127l-195 464v-464h-77v661h109l212 -522v522h78v-661zM343 780c-14 -28.667 -38.334 -43 -73.001 -43c-22.667 0 -50.667 9.33301 -84 28c-5.33301 -5.33301 -9.66602 -14.333 -12.999 -27h-57c13.333 28 37 42 71 42c21.333 0 50 -9.66699 86 -29
c4.66699 6 8.66699 15.667 12 29h58z" />
    <glyph glyph-name="Ograve" unicode="&#xd2;" horiz-adv-x="496" 
d="M457 171c0 -42 -8.33301 -79 -25 -111c-20.667 -40.667 -50 -61 -88 -61h-200c-38 0 -67.333 20.333 -88 61c-16 32 -24 69 -24 111v315c0 42 8 79.667 24 113c20.667 41.333 50 62 88 62h200c38 0 67.333 -20.667 88 -62c16.667 -33.333 25 -71 25 -113v-315zM363 171
v315c0 28 -5.33301 53.333 -16 76c-13.333 28.667 -32 43 -56 43h-93c-24.667 0 -43.667 -14.333 -57 -43c-10 -22.667 -15 -48 -15 -76v-315c0 -27.333 5 -52.333 15 -75c13.333 -28 32.333 -42 57 -42h93c24 0 42.667 14 56 42c10.667 22.667 16 47.667 16 75zM316 713
l-1 -27l-178 86l1 26z" />
    <glyph glyph-name="Oacute" unicode="&#xd3;" horiz-adv-x="496" 
d="M457 171c0 -42 -8.33301 -79 -25 -111c-20.667 -40.667 -50 -61 -88 -61h-200c-38 0 -67.333 20.333 -88 61c-16 32 -24 69 -24 111v315c0 42 8 79.667 24 113c20.667 41.333 50 62 88 62h200c38 0 67.333 -20.667 88 -62c16.667 -33.333 25 -71 25 -113v-315zM363 171
v315c0 28 -5.33301 53.333 -16 76c-13.333 28.667 -32 43 -56 43h-93c-24.667 0 -43.667 -14.333 -57 -43c-10 -22.667 -15 -48 -15 -76v-315c0 -27.333 5 -52.333 15 -75c13.333 -28 32.333 -42 57 -42h93c24 0 42.667 14 56 42c10.667 22.667 16 47.667 16 75zM326 779
l-178 -86l-2 27l178 84z" />
    <glyph glyph-name="Ocircumflex" unicode="&#xd4;" horiz-adv-x="496" 
d="M457 171c0 -42 -8.33301 -79 -25 -111c-20.667 -40.667 -50 -61 -88 -61h-200c-38 0 -67.333 20.333 -88 61c-16 32 -24 69 -24 111v315c0 42 8 79.667 24 113c20.667 41.333 50 62 88 62h200c38 0 67.333 -20.667 88 -62c16.667 -33.333 25 -71 25 -113v-315zM363 171
v315c0 28 -5.33301 53.333 -16 76c-13.333 28.667 -32 43 -56 43h-93c-24.667 0 -43.667 -14.333 -57 -43c-10 -22.667 -15 -48 -15 -76v-315c0 -27.333 5 -52.333 15 -75c13.333 -28 32.333 -42 57 -42h93c24 0 42.667 14 56 42c10.667 22.667 16 47.667 16 75zM363 724
h-46l-70 36l-68 -36h-47l74 52h84z" />
    <glyph glyph-name="Otilde" unicode="&#xd5;" horiz-adv-x="496" 
d="M457 171c0 -42 -8.33301 -79 -25 -111c-20.667 -40.667 -50 -61 -88 -61h-200c-38 0 -67.333 20.333 -88 61c-16 32 -24 69 -24 111v315c0 42 8 79.667 24 113c20.667 41.333 50 62 88 62h200c38 0 67.333 -20.667 88 -62c16.667 -33.333 25 -71 25 -113v-315zM363 171
v315c0 28 -5.33301 53.333 -16 76c-13.333 28.667 -32 43 -56 43h-93c-24.667 0 -43.667 -14.333 -57 -43c-10 -22.667 -15 -48 -15 -76v-315c0 -27.333 5 -52.333 15 -75c13.333 -28 32.333 -42 57 -42h93c24 0 42.667 14 56 42c10.667 22.667 16 47.667 16 75zM362 780
c-14 -29.333 -38.001 -44 -72.001 -44c-22.667 0 -51 9.66699 -85 29c-4.66699 -6 -8.66699 -15.333 -12 -28h-57c12.667 28.667 36.334 43 71.001 43c21.333 0 50 -9.66699 86 -29c4.66699 6 8.66699 15.667 12 29h57z" />
    <glyph glyph-name="Odieresis" unicode="&#xd6;" horiz-adv-x="496" 
d="M457 171c0 -42 -8.33301 -79 -25 -111c-20.667 -40.667 -50 -61 -88 -61h-200c-38 0 -67.333 20.333 -88 61c-16 32 -24 69 -24 111v315c0 42 8 79.667 24 113c20.667 41.333 50 62 88 62h200c38 0 67.333 -20.667 88 -62c16.667 -33.333 25 -71 25 -113v-315zM363 171
v315c0 28 -5.33301 53.333 -16 76c-13.333 28.667 -32 43 -56 43h-93c-24.667 0 -43.667 -14.333 -57 -43c-10 -22.667 -15 -48 -15 -76v-315c0 -27.333 5 -52.333 15 -75c13.333 -28 32.333 -42 57 -42h93c24 0 42.667 14 56 42c10.667 22.667 16 47.667 16 75zM347 757
c0 -16.667 -15.667 -25 -47 -25c-32 0 -48 8.33301 -48 25c0 17.333 16 26 48 26c31.333 0 47 -8.66699 47 -26zM242 757c0 -16.667 -15.667 -25 -47 -25c-32 0 -48 8.33301 -48 25c0 17.333 16 26 48 26c31.333 0 47 -8.66699 47 -26z" />
    <glyph glyph-name="Oslash" unicode="&#xd8;" horiz-adv-x="496" 
d="M457 171c0 -42 -8.33301 -79 -25 -111c-20.667 -40.667 -50 -61 -88 -61h-200c-38 0 -67.333 20.333 -88 61c-16 32 -24 69 -24 111v315c0 42 8 79.667 24 113c20.667 41.333 50 62 88 62h200c38 0 67.333 -20.667 88 -62c16.667 -33.333 25 -71 25 -113v-315zM363 171
v315c0 28 -5.33301 53.333 -16 76c-13.333 28.667 -32 43 -56 43h-93c-24.667 0 -43.667 -14.333 -57 -43c-10 -22.667 -15 -48 -15 -76v-315c0 -27.333 5 -52.333 15 -75c13.333 -28 32.333 -42 57 -42h93c24 0 42.667 14 56 42c10.667 22.667 16 47.667 16 75zM365 630
l-201 -605h-51l204 605h48z" />
    <glyph glyph-name="Ugrave" unicode="&#xd9;" horiz-adv-x="536" 
d="M486 171c0 -42 -8.33301 -79 -25 -111c-20 -40.667 -49 -61 -87 -61h-224c-38 0 -67 20.333 -87 61c-16.667 32 -25 69 -25 111v488h94v-488c0 -27.333 5 -52 15 -74c13.333 -28.667 32.333 -43 57 -43h116c24.667 0 43.667 14.333 57 43c10 22 15 46.667 15 74v488h94
v-488zM340 717l-2 -27l-178 86l1 26z" />
    <glyph glyph-name="Uacute" unicode="&#xda;" horiz-adv-x="536" 
d="M486 171c0 -42 -8.33301 -79 -25 -111c-20 -40.667 -49 -61 -87 -61h-224c-38 0 -67 20.333 -87 61c-16.667 32 -25 69 -25 111v488h94v-488c0 -27.333 5 -52 15 -74c13.333 -28.667 32.333 -43 57 -43h116c24.667 0 43.667 14.333 57 43c10 22 15 46.667 15 74v488h94
v-488zM365 773l-178 -86l-2 27l179 85z" />
    <glyph glyph-name="Ucircumflex" unicode="&#xdb;" horiz-adv-x="536" 
d="M486 171c0 -42 -8.33301 -79 -25 -111c-20 -40.667 -49 -61 -87 -61h-224c-38 0 -67 20.333 -87 61c-16.667 32 -25 69 -25 111v488h94v-488c0 -27.333 5 -52 15 -74c13.333 -28.667 32.333 -43 57 -43h116c24.667 0 43.667 14.333 57 43c10 22 15 46.667 15 74v488h94
v-488zM378 724h-46l-70 36l-68 -36h-47l74 52h84z" />
    <glyph glyph-name="Udieresis" unicode="&#xdc;" horiz-adv-x="536" 
d="M486 171c0 -42 -8.33301 -79 -25 -111c-20 -40.667 -49 -61 -87 -61h-224c-38 0 -67 20.333 -87 61c-16.667 32 -25 69 -25 111v488h94v-488c0 -27.333 5 -52 15 -74c13.333 -28.667 32.333 -43 57 -43h116c24.667 0 43.667 14.333 57 43c10 22 15 46.667 15 74v488h94
v-488zM368 754c0 -16.667 -15.667 -25 -47 -25c-32 0 -48 8.33301 -48 25c0 17.333 16 26 48 26c31.333 0 47 -8.66699 47 -26zM264 754c0 -16.667 -16 -25 -48 -25s-48 8.33301 -48 25c0 17.333 16 26 48 26s48 -8.66699 48 -26z" />
    <glyph glyph-name="Yacute" unicode="&#xdd;" horiz-adv-x="374" 
d="M372 661l-142 -344v-317h-100l-1 319l-136 342h106l84 -263l84 263h105zM280 777l-178 -86l-2 27l178 85z" />
    <glyph glyph-name="Thorn" unicode="&#xde;" 
 />
    <glyph glyph-name="germandbls" unicode="&#xdf;" horiz-adv-x="424" 
d="M409 495c0 -32 -5.33594 -63.002 -16.0029 -93.002c-13.333 -39.333 -32.666 -61.666 -57.999 -66.999c24 0 43.333 -23 58 -69c10 -33.333 15 -66 15 -98c0 -46 -9 -84 -27 -114c-22 -36 -54.667 -54 -98 -54h-123v55h80c27.333 0 48 14.333 62 43
c10.667 22 16 48 16 78c0 28.667 -5 55.334 -15 80.001c-12.667 32.667 -31 49 -55 49h-68v55h68c20 0 34.667 16 44 48c6.66699 22.667 10 47.667 10 75c0 26.667 -3.33301 51.667 -10 75c-8.66699 34 -22 51 -40 51h-77c-20.667 0 -36.667 -10 -48 -30
c-9.33301 -16 -14 -35.333 -14 -58v-521h-102v513c0 52 6.66699 88.667 20 110c16.667 27.333 49.334 41 98.001 41h154c42.667 0 75.334 -18.333 98.001 -55c18.667 -30.667 28 -68.667 28 -114z" />
    <glyph glyph-name="agrave" unicode="&#xe0;" horiz-adv-x="432" 
d="M403 0l-278.001 -0.00195312c-35.333 0 -62.333 18 -81 54c-15.333 28.667 -23 62.334 -23 101.001s7.66699 73 23 103c18.667 36.667 45.667 55 81 55h134v-55h-36c-14.667 0.666992 -24.667 1 -30 1c-28.667 0 -48 -5.33301 -58 -16c-12.667 -13.333 -19 -40 -19 -80
c0 -22.667 3 -44 9 -64c8.66699 -29.333 21.334 -44 38.001 -44h141v325c0 28.667 -3.33301 49.334 -10 62.001c-10 17.333 -28 26 -54 26h-127v55h168c50.667 0 84.667 -13.667 102 -41c13.333 -20.667 20 -58 20 -112v-370zM292.999 556.998l-2 -27l-178 86l2 26z" />
    <glyph glyph-name="aacute" unicode="&#xe1;" horiz-adv-x="432" 
d="M403 0l-278.001 -0.00195312c-35.333 0 -62.333 18 -81 54c-15.333 28.667 -23 62.334 -23 101.001s7.66699 73 23 103c18.667 36.667 45.667 55 81 55h134v-55h-36c-14.667 0.666992 -24.667 1 -30 1c-28.667 0 -48 -5.33301 -58 -16c-12.667 -13.333 -19 -40 -19 -80
c0 -22.667 3 -44 9 -64c8.66699 -29.333 21.334 -44 38.001 -44h141v325c0 28.667 -3.33301 49.334 -10 62.001c-10 17.333 -28 26 -54 26h-127v55h168c50.667 0 84.667 -13.667 102 -41c13.333 -20.667 20 -58 20 -112v-370zM287.999 616.998l-178 -86l-1 27l178 85z" />
    <glyph glyph-name="acircumflex" unicode="&#xe2;" horiz-adv-x="432" 
d="M403 0l-278.001 -0.00195312c-35.333 0 -62.333 18 -81 54c-15.333 28.667 -23 62.334 -23 101.001s7.66699 73 23 103c18.667 36.667 45.667 55 81 55h134v-55h-36c-14.667 0.666992 -24.667 1 -30 1c-28.667 0 -48 -5.33301 -58 -16c-12.667 -13.333 -19 -40 -19 -80
c0 -22.667 3 -44 9 -64c8.66699 -29.333 21.334 -44 38.001 -44h141v325c0 28.667 -3.33301 49.334 -10 62.001c-10 17.333 -28 26 -54 26h-127v55h168c50.667 0 84.667 -13.667 102 -41c13.333 -20.667 20 -58 20 -112v-370zM359.999 565.998h-46l-70 37l-69 -37h-46l74 53
h83z" />
    <glyph glyph-name="atilde" unicode="&#xe3;" horiz-adv-x="432" 
d="M403 0l-278.001 -0.00195312c-35.333 0 -62.333 18 -81 54c-15.333 28.667 -23 62.334 -23 101.001s7.66699 73 23 103c18.667 36.667 45.667 55 81 55h134v-55h-36c-14.667 0.666992 -24.667 1 -30 1c-28.667 0 -48 -5.33301 -58 -16c-12.667 -13.333 -19 -40 -19 -80
c0 -22.667 3 -44 9 -64c8.66699 -29.333 21.334 -44 38.001 -44h141v325c0 28.667 -3.33301 49.334 -10 62.001c-10 17.333 -28 26 -54 26h-127v55h168c50.667 0 84.667 -13.667 102 -41c13.333 -20.667 20 -58 20 -112v-370zM344.999 613.998c-14 -29.333 -38 -44 -72 -44
c-22.667 0 -51 9.66699 -85 29c-4.66699 -6 -8.66699 -15.333 -12 -28h-58c13.333 28.667 37.333 43 72 43c21.333 0 50 -9.66699 86 -29c4.66699 6 8.66699 15.667 12 29h57z" />
    <glyph glyph-name="adieresis" unicode="&#xe4;" horiz-adv-x="432" 
d="M403 0l-278.001 -0.00195312c-35.333 0 -62.333 18 -81 54c-15.333 28.667 -23 62.334 -23 101.001s7.66699 73 23 103c18.667 36.667 45.667 55 81 55h134v-55h-36c-14.667 0.666992 -24.667 1 -30 1c-28.667 0 -48 -5.33301 -58 -16c-12.667 -13.333 -19 -40 -19 -80
c0 -22.667 3 -44 9 -64c8.66699 -29.333 21.334 -44 38.001 -44h141v325c0 28.667 -3.33301 49.334 -10 62.001c-10 17.333 -28 26 -54 26h-127v55h168c50.667 0 84.667 -13.667 102 -41c13.333 -20.667 20 -58 20 -112v-370zM320.999 586.998c0 -16.667 -16 -25 -48 -25
s-48 8.33301 -48 25s16 25 48 25s48 -8.33301 48 -25zM215.999 586.998c0 -16.667 -16 -25 -48 -25s-48 8.33301 -48 25s16 25 48 25s48 -8.33301 48 -25z" />
    <glyph glyph-name="aring" unicode="&#xe5;" horiz-adv-x="432" 
d="M403 0l-278.001 -0.00195312c-35.333 0 -62.333 18 -81 54c-15.333 28.667 -23 62.334 -23 101.001s7.66699 73 23 103c18.667 36.667 45.667 55 81 55h134v-55h-36c-14.667 0.666992 -24.667 1 -30 1c-28.667 0 -48 -5.33301 -58 -16c-12.667 -13.333 -19 -40 -19 -80
c0 -22.667 3 -44 9 -64c8.66699 -29.333 21.334 -44 38.001 -44h141v325c0 28.667 -3.33301 49.334 -10 62.001c-10 17.333 -28 26 -54 26h-127v55h168c50.667 0 84.667 -13.667 102 -41c13.333 -20.667 20 -58 20 -112v-370zM304.999 576.998
c0 -17.333 -9.66797 -31.333 -29.001 -42c-16 -8 -33.667 -12 -53 -12s-37 4 -53 12c-20 10.667 -30 24.667 -30 42s10 31 30 41c16 8 33.667 12 53 12c18.667 0 36.334 -4 53.001 -12c19.333 -10 29 -23.667 29 -41zM249.998 581.998c0 30 -9 45 -27 45
c-18.667 0 -28 -14.333 -28 -43v-14c0 -29.333 9.33301 -44 28 -44c18 0 27 15.333 27 46v10z" />
    <glyph glyph-name="ae" unicode="&#xe6;" horiz-adv-x="710" 
d="M676 211h-274.999v-80c0 -49.333 20.667 -74 62 -74h195v-56l-510 -1c-54.667 0 -88.334 11.667 -101.001 35c-7.33301 14 -11 51.667 -11 113c0 52 7.33301 84.833 22 98.5s48 20.5 100 20.5h165v82c0 48.667 -20.333 73 -61 73h-208v55l500 1
c52 0 85.333 -6.83301 100 -20.5s22 -46.167 22 -97.5v-149zM580.001 327c0 63.333 -18 95 -54 95h-63c-41.333 0 -62 -26 -62 -78v-77h179v60zM325.001 55v29c0 14 -0.333008 35.167 -1 63.5s-1 49.5 -1 63.5h-156c-26.667 0 -40 -20.667 -40 -62c0 -16.667 3 -35 9 -55
c8 -26 18.333 -39 31 -39h158z" />
    <glyph glyph-name="ccedilla" unicode="&#xe7;" horiz-adv-x="363" 
d="M334 0l-200.002 0.000976562c-50 0 -84 16 -102 48c-13.333 23.333 -20 62.333 -20 117v194c0 54 6.66699 92.667 20 116c18 32 52 48 102 48h200v-55h-158c-27.333 0 -45.666 -12.333 -54.999 -37c-5.33301 -14.667 -8 -38.334 -8 -71.001v-205
c0 -36.667 4 -61.334 12 -74.001c10.667 -16 33.334 -24.667 68.001 -26c18 -1.33301 41.333 -1.66602 70 -0.999023c40 0.666992 63.667 1 71 1v-55zM311.998 -112.999c0 -14.667 -4.33203 -27.167 -12.999 -37.5s-20.334 -15.5 -35.001 -15.5h-109v24h86
c20.667 0 31 9.33301 31 28c0 13.333 -7.33301 21.833 -22 25.5l-43 10.5c-14.667 7.33301 -22 22.333 -22 45c0 8 3 19.333 9 34h13c0 -32 9 -51.667 27 -59c17.333 -3.33301 34.333 -6.33301 51 -9c18 -4.66699 27 -20 27 -46z" />
    <glyph glyph-name="egrave" unicode="&#xe8;" horiz-adv-x="451" 
d="M426 369c0 -36 -6 -67.666 -18 -94.999c-16 -36.667 -39.667 -55 -71 -55h-140v55h83c19.333 0 33.666 13.667 42.999 41c6.66699 19.333 10 41 10 65c0 19.333 -2.33301 37 -7 53c-6 23.333 -15.667 35 -29 35h-99c-27.333 0 -45.666 -12 -54.999 -36
c-6 -14.667 -9 -38.334 -9 -71.001v-199c0 -38.667 3.66699 -64.667 11 -78c11.333 -19.333 34.666 -29 69.999 -29c-14 0 44.333 0 175 0v-55h-234c-50.667 0 -85 16 -103 48c-12.667 23.333 -19 62.333 -19 117v194c0 54 6.33301 92.667 19 116c18 32 52.333 48 103 48
h181c30.667 0 54.334 -19 71.001 -57c12 -28.667 18 -61 18 -97zM307 554.001l-2 -27l-178 86l2 25z" />
    <glyph glyph-name="eacute" unicode="&#xe9;" horiz-adv-x="451" 
d="M426 369c0 -36 -6 -67.666 -18 -94.999c-16 -36.667 -39.667 -55 -71 -55h-140v55h83c19.333 0 33.666 13.667 42.999 41c6.66699 19.333 10 41 10 65c0 19.333 -2.33301 37 -7 53c-6 23.333 -15.667 35 -29 35h-99c-27.333 0 -45.666 -12 -54.999 -36
c-6 -14.667 -9 -38.334 -9 -71.001v-199c0 -38.667 3.66699 -64.667 11 -78c11.333 -19.333 34.666 -29 69.999 -29c-14 0 44.333 0 175 0v-55h-234c-50.667 0 -85 16 -103 48c-12.667 23.333 -19 62.333 -19 117v194c0 54 6.33301 92.667 19 116c18 32 52.333 48 103 48
h181c30.667 0 54.334 -19 71.001 -57c12 -28.667 18 -61 18 -97zM334 613.001l-178 -86l-2 27l178 85z" />
    <glyph glyph-name="ecircumflex" unicode="&#xea;" horiz-adv-x="451" 
d="M426 369c0 -36 -6 -67.666 -18 -94.999c-16 -36.667 -39.667 -55 -71 -55h-140v55h83c19.333 0 33.666 13.667 42.999 41c6.66699 19.333 10 41 10 65c0 19.333 -2.33301 37 -7 53c-6 23.333 -15.667 35 -29 35h-99c-27.333 0 -45.666 -12 -54.999 -36
c-6 -14.667 -9 -38.334 -9 -71.001v-199c0 -38.667 3.66699 -64.667 11 -78c11.333 -19.333 34.666 -29 69.999 -29c-14 0 44.333 0 175 0v-55h-234c-50.667 0 -85 16 -103 48c-12.667 23.333 -19 62.333 -19 117v194c0 54 6.33301 92.667 19 116c18 32 52.333 48 103 48
h181c30.667 0 54.334 -19 71.001 -57c12 -28.667 18 -61 18 -97zM350 563.001h-46l-70 36l-69 -36h-46l74 53h83z" />
    <glyph glyph-name="edieresis" unicode="&#xeb;" horiz-adv-x="451" 
d="M426 369c0 -36 -6 -67.666 -18 -94.999c-16 -36.667 -39.667 -55 -71 -55h-140v55h83c19.333 0 33.666 13.667 42.999 41c6.66699 19.333 10 41 10 65c0 19.333 -2.33301 37 -7 53c-6 23.333 -15.667 35 -29 35h-99c-27.333 0 -45.666 -12 -54.999 -36
c-6 -14.667 -9 -38.334 -9 -71.001v-199c0 -38.667 3.66699 -64.667 11 -78c11.333 -19.333 34.666 -29 69.999 -29c-14 0 44.333 0 175 0v-55h-234c-50.667 0 -85 16 -103 48c-12.667 23.333 -19 62.333 -19 117v194c0 54 6.33301 92.667 19 116c18 32 52.333 48 103 48
h181c30.667 0 54.334 -19 71.001 -57c12 -28.667 18 -61 18 -97zM333 590.001c0 -16.667 -15.667 -25 -47 -25c-32 0 -48 8.33301 -48 25s16 25 48 25c31.333 0 47 -8.33301 47 -25zM229 590.001c0 -16.667 -16 -25 -48 -25s-48 8.33301 -48 25s16 25 48 25
s48 -8.33301 48 -25z" />
    <glyph glyph-name="igrave" unicode="&#xec;" horiz-adv-x="191" 
d="M151 0h-101v523h101v-523zM181 565l-2 -27l-178 86l2 25z" />
    <glyph glyph-name="iacute" unicode="&#xed;" horiz-adv-x="191" 
d="M147 0h-101v523h101v-523zM209 610l-178 -86l-2 27l178 84z" />
    <glyph glyph-name="icircumflex" unicode="&#xee;" horiz-adv-x="191" 
d="M152 0h-101v523h101v-523zM226 566h-46l-70 36l-69 -36h-46l74 52h83z" />
    <glyph glyph-name="idieresis" unicode="&#xef;" horiz-adv-x="191" 
d="M150 0h-101v523h101v-523zM203 593c0 -16.667 -15.667 -25 -47 -25c-32 0 -48 8.33301 -48 25s16 25 48 25c31.333 0 47 -8.33301 47 -25zM99 593c0 -16.667 -16 -25 -48 -25s-48 8.33301 -48 25s16 25 48 25s48 -8.33301 48 -25z" />
    <glyph glyph-name="eth" unicode="&#xf0;" 
 />
    <glyph glyph-name="ntilde" unicode="&#xf1;" horiz-adv-x="471" 
d="M444 0h-98.999v352c0 36 -2.33301 61 -7 75c-8.66699 27.333 -27.334 41 -56.001 41h-139v-468h-100v523h279c50.667 0 84.667 -13.667 102 -41c13.333 -20.667 20 -58 20 -112v-370zM361.001 613c-14 -29.333 -38.333 -44 -73 -44c-22.667 0 -50.667 9.66699 -84 29
c-4.66699 -6 -9 -15.333 -13 -28h-57c13.333 28.667 37 43 71 43c21.333 0 50 -9.66699 86 -29c5.33301 6 9.33301 15.667 12 29h58z" />
    <glyph glyph-name="ograve" unicode="&#xf2;" horiz-adv-x="479" 
d="M457 165c0 -54.667 -6.33301 -93.667 -19 -117c-18 -32 -52.333 -48 -103 -48h-175c-50 0 -84 16 -102 48c-13.333 23.333 -20 62.333 -20 117v194c0 54 6.66699 92.667 20 116c18 32 52 48 102 48h175c50.667 0 85 -16 103 -48c12.667 -23.333 19 -62 19 -116v-194z
M357 360c0 33.333 -3.00098 57.334 -9.00098 72.001c-9.33301 24 -27.666 36 -54.999 36h-91c-27.333 0 -45.666 -12 -54.999 -36c-5.33301 -14.667 -8 -38.667 -8 -72v-187c0 -28.667 6.33301 -54.334 19 -77.001c14.667 -27.333 35 -41 61 -41h57
c35.333 0 58.666 10 69.999 30c7.33301 13.333 11 39.333 11 78v197zM349.999 554.001l-2 -27l-178 86l2 26z" />
    <glyph glyph-name="oacute" unicode="&#xf3;" horiz-adv-x="479" 
d="M457 165c0 -54.667 -6.33301 -93.667 -19 -117c-18 -32 -52.333 -48 -103 -48h-175c-50 0 -84 16 -102 48c-13.333 23.333 -20 62.333 -20 117v194c0 54 6.66699 92.667 20 116c18 32 52 48 102 48h175c50.667 0 85 -16 103 -48c12.667 -23.333 19 -62 19 -116v-194z
M357 360c0 33.333 -3.00098 57.334 -9.00098 72.001c-9.33301 24 -27.666 36 -54.999 36h-91c-27.333 0 -45.666 -12 -54.999 -36c-5.33301 -14.667 -8 -38.667 -8 -72v-187c0 -28.667 6.33301 -54.334 19 -77.001c14.667 -27.333 35 -41 61 -41h57
c35.333 0 58.666 10 69.999 30c7.33301 13.333 11 39.333 11 78v197zM335.999 613.001l-178 -86l-2 27l178 84z" />
    <glyph glyph-name="ocircumflex" unicode="&#xf4;" horiz-adv-x="479" 
d="M457 165c0 -54.667 -6.33301 -93.667 -19 -117c-18 -32 -52.333 -48 -103 -48h-175c-50 0 -84 16 -102 48c-13.333 23.333 -20 62.333 -20 117v194c0 54 6.66699 92.667 20 116c18 32 52 48 102 48h175c50.667 0 85 -16 103 -48c12.667 -23.333 19 -62 19 -116v-194z
M357 360c0 33.333 -3.00098 57.334 -9.00098 72.001c-9.33301 24 -27.666 36 -54.999 36h-91c-27.333 0 -45.666 -12 -54.999 -36c-5.33301 -14.667 -8 -38.667 -8 -72v-187c0 -28.667 6.33301 -54.334 19 -77.001c14.667 -27.333 35 -41 61 -41h57
c35.333 0 58.666 10 69.999 30c7.33301 13.333 11 39.333 11 78v197zM369.999 562.001h-46l-70 36l-68 -36h-47l74 53h84z" />
    <glyph glyph-name="otilde" unicode="&#xf5;" horiz-adv-x="479" 
d="M457 165c0 -54.667 -6.33301 -93.667 -19 -117c-18 -32 -52.333 -48 -103 -48h-175c-50 0 -84 16 -102 48c-13.333 23.333 -20 62.333 -20 117v194c0 54 6.66699 92.667 20 116c18 32 52 48 102 48h175c50.667 0 85 -16 103 -48c12.667 -23.333 19 -62 19 -116v-194z
M357 360c0 33.333 -3.00098 57.334 -9.00098 72.001c-9.33301 24 -27.666 36 -54.999 36h-91c-27.333 0 -45.666 -12 -54.999 -36c-5.33301 -14.667 -8 -38.667 -8 -72v-187c0 -28.667 6.33301 -54.334 19 -77.001c14.667 -27.333 35 -41 61 -41h57
c35.333 0 58.666 10 69.999 30c7.33301 13.333 11 39.333 11 78v197zM361.999 614.001c-14 -29.333 -38.334 -44 -73.001 -44c-22 0 -50 9.66699 -84 29c-4.66699 -6 -9 -15.333 -13 -28h-57c13.333 28.667 37.333 43 72 43c21.333 0 50 -9.66699 86 -29
c4.66699 6 8.33398 15.667 11.001 29h58z" />
    <glyph glyph-name="odieresis" unicode="&#xf6;" horiz-adv-x="479" 
d="M457 165c0 -54.667 -6.33301 -93.667 -19 -117c-18 -32 -52.333 -48 -103 -48h-175c-50 0 -84 16 -102 48c-13.333 23.333 -20 62.333 -20 117v194c0 54 6.66699 92.667 20 116c18 32 52 48 102 48h175c50.667 0 85 -16 103 -48c12.667 -23.333 19 -62 19 -116v-194z
M357 360c0 33.333 -3.00098 57.334 -9.00098 72.001c-9.33301 24 -27.666 36 -54.999 36h-91c-27.333 0 -45.666 -12 -54.999 -36c-5.33301 -14.667 -8 -38.667 -8 -72v-187c0 -28.667 6.33301 -54.334 19 -77.001c14.667 -27.333 35 -41 61 -41h57
c35.333 0 58.666 10 69.999 30c7.33301 13.333 11 39.333 11 78v197zM354.999 590.001c0 -17.333 -15.667 -26 -47 -26c-32 0 -48 8.66699 -48 26c0 16.667 16 25 48 25c31.333 0 47 -8.33301 47 -25zM250.999 590.001c0 -17.333 -16 -26 -48 -26s-48 8.66699 -48 26
c0 16.667 16 25 48 25s48 -8.33301 48 -25z" />
    <glyph glyph-name="divide" unicode="&#xf7;" 
 />
    <glyph glyph-name="oslash" unicode="&#xf8;" horiz-adv-x="479" 
d="M457 165c0 -54.667 -6.33301 -93.667 -19 -117c-18 -32 -52.333 -48 -103 -48h-175c-50 0 -84 16 -102 48c-13.333 23.333 -20 62.333 -20 117v194c0 54 6.66699 92.667 20 116c18 32 52 48 102 48h175c50.667 0 85 -16 103 -48c12.667 -23.333 19 -62 19 -116v-194z
M357 360c0 33.333 -3.00098 57.334 -9.00098 72.001c-9.33301 24 -27.666 36 -54.999 36h-91c-27.333 0 -45.666 -12 -54.999 -36c-5.33301 -14.667 -8 -38.667 -8 -72v-187c0 -28.667 6.33301 -54.334 19 -77.001c14.667 -27.333 35 -41 61 -41h57
c35.333 0 58.666 10 69.999 30c7.33301 13.333 11 39.333 11 78v197zM380.999 484.001l-214 -437h-54l216 437h52z" />
    <glyph glyph-name="ugrave" unicode="&#xf9;" horiz-adv-x="464" 
d="M435 1l-280.001 0.000976562c-50.667 0 -84.667 13.667 -102 41c-13.333 21.333 -20 58.666 -20 111.999v370h98v-351c0 -36 2.66699 -61.333 8 -76c8.66699 -26.667 27.334 -40 56.001 -40h140v467h100v-523zM322.999 554.001l-2 -27l-178 86l2 26z" />
    <glyph glyph-name="uacute" unicode="&#xfa;" horiz-adv-x="464" 
d="M435 1l-280.001 0.000976562c-50.667 0 -84.667 13.667 -102 41c-13.333 21.333 -20 58.666 -20 111.999v370h98v-351c0 -36 2.66699 -61.333 8 -76c8.66699 -26.667 27.334 -40 56.001 -40h140v467h100v-523zM324.999 616.001l-178 -86l-2 27l178 85z" />
    <glyph glyph-name="ucircumflex" unicode="&#xfb;" horiz-adv-x="464" 
d="M435 1l-280.001 0.000976562c-50.667 0 -84.667 13.667 -102 41c-13.333 21.333 -20 58.666 -20 111.999v370h98v-351c0 -36 2.66699 -61.333 8 -76c8.66699 -26.667 27.334 -40 56.001 -40h140v467h100v-523zM356.999 566.001h-47l-70 36l-68 -36h-47l75 52h83z" />
    <glyph glyph-name="udieresis" unicode="&#xfc;" horiz-adv-x="464" 
d="M435 1l-280.001 0.000976562c-50.667 0 -84.667 13.667 -102 41c-13.333 21.333 -20 58.666 -20 111.999v370h98v-351c0 -36 2.66699 -61.333 8 -76c8.66699 -26.667 27.334 -40 56.001 -40h140v467h100v-523zM337.999 589.001c0 -16.667 -15.667 -25 -47 -25
c-32 0 -48 8.33301 -48 25c0 17.333 16 26 48 26c31.333 0 47 -8.66699 47 -26zM233.999 589.001c0 -16.667 -16 -25 -48 -25s-48 8.33301 -48 25c0 17.333 16 26 48 26s48 -8.66699 48 -26z" />
    <glyph glyph-name="yacute" unicode="&#xfd;" horiz-adv-x="501" 
d="M488 524l-264 -753h-92l85 229l-200 524h113l145 -397l134 397h79zM371 616l-178 -86l-2 27l178 85z" />
    <glyph glyph-name="thorn" unicode="&#xfe;" 
 />
    <glyph glyph-name="ydieresis" unicode="&#xff;" horiz-adv-x="507" 
d="M493 524l-264 -753h-91l84 229l-200 524h114l144 -397l134 397h79zM381 590c0 -16.667 -16 -25 -48 -25s-48 8.33301 -48 25c0 17.333 16 26 48 26s48 -8.66699 48 -26zM276 590c0 -16.667 -16 -25 -48 -25s-48 8.33301 -48 25c0 17.333 16 26 48 26s48 -8.66699 48 -26z
" />
    <glyph glyph-name="Amacron" unicode="&#x100;" 
 />
    <glyph glyph-name="amacron" unicode="&#x101;" 
 />
    <glyph glyph-name="Abreve" unicode="&#x102;" 
 />
    <glyph glyph-name="abreve" unicode="&#x103;" 
 />
    <glyph glyph-name="Aogonek" unicode="&#x104;" 
 />
    <glyph glyph-name="aogonek" unicode="&#x105;" 
 />
    <glyph glyph-name="Cacute" unicode="&#x106;" 
 />
    <glyph glyph-name="cacute" unicode="&#x107;" 
 />
    <glyph glyph-name="Ccircumflex" unicode="&#x108;" 
 />
    <glyph glyph-name="ccircumflex" unicode="&#x109;" 
 />
    <glyph glyph-name="Cdot" unicode="&#x10a;" 
 />
    <glyph glyph-name="cdot" unicode="&#x10b;" 
 />
    <glyph glyph-name="Ccaron" unicode="&#x10c;" 
 />
    <glyph glyph-name="ccaron" unicode="&#x10d;" 
 />
    <glyph glyph-name="Dcaron" unicode="&#x10e;" 
 />
    <glyph glyph-name="dcaron" unicode="&#x10f;" 
 />
    <glyph glyph-name="Dslash" unicode="&#x110;" 
 />
    <glyph glyph-name="dcroat" unicode="&#x111;" 
 />
    <glyph glyph-name="Emacron" unicode="&#x112;" 
 />
    <glyph glyph-name="emacron" unicode="&#x113;" 
 />
    <glyph glyph-name="Ebreve" unicode="&#x114;" 
 />
    <glyph glyph-name="ebreve" unicode="&#x115;" 
 />
    <glyph glyph-name="Edot" unicode="&#x116;" 
 />
    <glyph glyph-name="edot" unicode="&#x117;" 
 />
    <glyph glyph-name="Eogonek" unicode="&#x118;" 
 />
    <glyph glyph-name="eogonek" unicode="&#x119;" 
 />
    <glyph glyph-name="Ecaron" unicode="&#x11a;" 
 />
    <glyph glyph-name="ecaron" unicode="&#x11b;" 
 />
    <glyph glyph-name="Gcircumflex" unicode="&#x11c;" 
 />
    <glyph glyph-name="gcircumflex" unicode="&#x11d;" 
 />
    <glyph glyph-name="Gbreve" unicode="&#x11e;" 
 />
    <glyph glyph-name="gbreve" unicode="&#x11f;" 
 />
    <glyph glyph-name="Gdot" unicode="&#x120;" 
 />
    <glyph glyph-name="gdot" unicode="&#x121;" 
 />
    <glyph glyph-name="Gcedilla" unicode="&#x122;" 
 />
    <glyph glyph-name="gcedilla" unicode="&#x123;" 
 />
    <glyph glyph-name="Hcircumflex" unicode="&#x124;" 
 />
    <glyph glyph-name="hcircumflex" unicode="&#x125;" 
 />
    <glyph glyph-name="Hbar" unicode="&#x126;" 
 />
    <glyph glyph-name="hbar" unicode="&#x127;" 
 />
    <glyph glyph-name="Itilde" unicode="&#x128;" 
 />
    <glyph glyph-name="itilde" unicode="&#x129;" 
 />
    <glyph glyph-name="Imacron" unicode="&#x12a;" 
 />
    <glyph glyph-name="imacron" unicode="&#x12b;" 
 />
    <glyph glyph-name="Ibreve" unicode="&#x12c;" 
 />
    <glyph glyph-name="ibreve" unicode="&#x12d;" 
 />
    <glyph glyph-name="Iogonek" unicode="&#x12e;" 
 />
    <glyph glyph-name="iogonek" unicode="&#x12f;" 
 />
    <glyph glyph-name="Idotaccent" unicode="&#x130;" 
 />
    <glyph glyph-name="dotlessi" unicode="&#x131;" horiz-adv-x="191" 
d="M152 0h-101v523h101v-523z" />
    <glyph glyph-name="IJ" unicode="&#x132;" 
 />
    <glyph glyph-name="ij" unicode="&#x133;" 
 />
    <glyph glyph-name="Jcircumflex" unicode="&#x134;" 
 />
    <glyph glyph-name="jcircumflex" unicode="&#x135;" 
 />
    <glyph glyph-name="Kcedilla" unicode="&#x136;" 
 />
    <glyph glyph-name="kcedilla" unicode="&#x137;" 
 />
    <glyph glyph-name="kgreenlandic" unicode="&#x138;" 
 />
    <glyph glyph-name="Lacute" unicode="&#x139;" 
 />
    <glyph glyph-name="lacute" unicode="&#x13a;" 
 />
    <glyph glyph-name="Lcedilla" unicode="&#x13b;" 
 />
    <glyph glyph-name="lcedilla" unicode="&#x13c;" 
 />
    <glyph glyph-name="Lcaron" unicode="&#x13d;" 
 />
    <glyph glyph-name="lcaron" unicode="&#x13e;" 
 />
    <glyph glyph-name="Ldot" unicode="&#x13f;" 
 />
    <glyph glyph-name="ldot" unicode="&#x140;" 
 />
    <glyph glyph-name="Lslash" unicode="&#x141;" 
 />
    <glyph glyph-name="lslash" unicode="&#x142;" 
 />
    <glyph glyph-name="Nacute" unicode="&#x143;" 
 />
    <glyph glyph-name="nacute" unicode="&#x144;" 
 />
    <glyph glyph-name="Ncedilla" unicode="&#x145;" 
 />
    <glyph glyph-name="ncedilla" unicode="&#x146;" 
 />
    <glyph glyph-name="Ncaron" unicode="&#x147;" 
 />
    <glyph glyph-name="ncaron" unicode="&#x148;" 
 />
    <glyph glyph-name="napostrophe" unicode="&#x149;" 
 />
    <glyph glyph-name="Eng" unicode="&#x14a;" 
 />
    <glyph glyph-name="eng" unicode="&#x14b;" 
 />
    <glyph glyph-name="Omacron" unicode="&#x14c;" 
 />
    <glyph glyph-name="omacron" unicode="&#x14d;" 
 />
    <glyph glyph-name="Obreve" unicode="&#x14e;" 
 />
    <glyph glyph-name="obreve" unicode="&#x14f;" 
 />
    <glyph glyph-name="Odblacute" unicode="&#x150;" 
 />
    <glyph glyph-name="odblacute" unicode="&#x151;" 
 />
    <glyph glyph-name="OE" unicode="&#x152;" horiz-adv-x="672" 
d="M622 0h-439.001c-50 0 -84 13.667 -102 41c-13.333 20.667 -20 58 -20 112v356c0 53.333 7 90.333 21 111c16.667 27.333 50.334 41 101.001 41h439v-56h-183v-246h93v-55h-93v-249h183v-55zM337.999 123v416c0 44.667 -20 67 -60 67h-54c-42 0 -63 -33.667 -63 -101
v-348c0 -68 21 -102 63 -102h54c40 0 60 22.667 60 68z" />
    <glyph glyph-name="oe" unicode="&#x153;" horiz-adv-x="705" 
d="M688 211h-264.998v-75c0 -52.667 20.667 -79 62 -79h185v-56h-226c-7.33301 0 -18.5 0.833008 -33.5 2.5s-26.167 2.5 -33.5 2.5c-8.66699 0 -21.334 -1 -38.001 -3s-29.334 -3 -38.001 -3h-124c-51.333 -0 -84 6.33301 -98 19c-16 14 -24 46 -24 96v247c0 50 8 82 24 96
c14 12.667 46.667 19 98 19h124c8.66699 0 21.5 -1.16699 38.5 -3.5s29.833 -3.5 38.5 -3.5c7.33301 0 18.333 1.33301 33 4s25.667 4 33 4h122c50.667 0 83.667 -6.66699 99 -20s23 -45 23 -95v-152zM592.002 267v60c0 63.333 -18 95 -54 95h-53
c-41.333 0 -62 -27.333 -62 -82v-73h169zM322.002 136v199.999c0 57.333 -20.667 86 -62 86h-42c-27.333 0 -45.666 -12.667 -54.999 -38c-5.33301 -14.667 -8 -38.667 -8 -72v-146c0 -33.333 2.66699 -57.666 8 -72.999c9.33301 -25.333 27.666 -38 54.999 -38h42
c41.333 0 62 27 62 81z" />
    <glyph glyph-name="Racute" unicode="&#x154;" 
 />
    <glyph glyph-name="racute" unicode="&#x155;" 
 />
    <glyph glyph-name="Rcedilla" unicode="&#x156;" 
 />
    <glyph glyph-name="rcedilla" unicode="&#x157;" 
 />
    <glyph glyph-name="Rcaron" unicode="&#x158;" 
 />
    <glyph glyph-name="rcaron" unicode="&#x159;" 
 />
    <glyph glyph-name="Sacute" unicode="&#x15a;" 
 />
    <glyph glyph-name="sacute" unicode="&#x15b;" 
 />
    <glyph glyph-name="Scircumflex" unicode="&#x15c;" 
 />
    <glyph glyph-name="scircumflex" unicode="&#x15d;" 
 />
    <glyph glyph-name="Scedilla" unicode="&#x15e;" 
 />
    <glyph glyph-name="scedilla" unicode="&#x15f;" 
 />
    <glyph glyph-name="Scaron" unicode="&#x160;" 
 />
    <glyph glyph-name="scaron" unicode="&#x161;" 
 />
    <glyph glyph-name="Tcedilla" unicode="&#x162;" 
 />
    <glyph glyph-name="tcedilla" unicode="&#x163;" 
 />
    <glyph glyph-name="Tcaron" unicode="&#x164;" 
 />
    <glyph glyph-name="tcaron" unicode="&#x165;" 
 />
    <glyph glyph-name="Tbar" unicode="&#x166;" 
 />
    <glyph glyph-name="tbar" unicode="&#x167;" 
 />
    <glyph glyph-name="Utilde" unicode="&#x168;" 
 />
    <glyph glyph-name="utilde" unicode="&#x169;" 
 />
    <glyph glyph-name="Umacron" unicode="&#x16a;" 
 />
    <glyph glyph-name="umacron" unicode="&#x16b;" 
 />
    <glyph glyph-name="Ubreve" unicode="&#x16c;" 
 />
    <glyph glyph-name="ubreve" unicode="&#x16d;" 
 />
    <glyph glyph-name="Uring" unicode="&#x16e;" 
 />
    <glyph glyph-name="uring" unicode="&#x16f;" 
 />
    <glyph glyph-name="Udblacute" unicode="&#x170;" 
 />
    <glyph glyph-name="udblacute" unicode="&#x171;" 
 />
    <glyph glyph-name="Uogonek" unicode="&#x172;" 
 />
    <glyph glyph-name="uogonek" unicode="&#x173;" 
 />
    <glyph glyph-name="Wcircumflex" unicode="&#x174;" 
 />
    <glyph glyph-name="wcircumflex" unicode="&#x175;" 
 />
    <glyph glyph-name="Ycircumflex" unicode="&#x176;" 
 />
    <glyph glyph-name="ycircumflex" unicode="&#x177;" 
 />
    <glyph glyph-name="Ydieresis" unicode="&#x178;" horiz-adv-x="431" 
d="M418 661l-142 -344v-317h-100l-1 319l-136 342h106l84 -263l83 263h106zM344 745c0 -17.333 -16 -26 -48 -26s-48 8.66699 -48 26c0 16.667 16 25 48 25s48 -8.33301 48 -25zM239 745c0 -17.333 -16 -26 -48 -26c-31.333 0 -47 8.66699 -47 26c0 16.667 15.667 25 47 25
c32 0 48 -8.33301 48 -25z" />
    <glyph glyph-name="Zacute" unicode="&#x179;" 
 />
    <glyph glyph-name="zacute" unicode="&#x17a;" 
 />
    <glyph glyph-name="Zdot" unicode="&#x17b;" 
 />
    <glyph glyph-name="zdot" unicode="&#x17c;" 
 />
    <glyph glyph-name="Zcaron" unicode="&#x17d;" 
 />
    <glyph glyph-name="zcaron" unicode="&#x17e;" 
 />
    <glyph glyph-name="longs" unicode="&#x17f;" 
 />
    <glyph glyph-name="florin" unicode="&#x192;" 
 />
    <glyph glyph-name="Aringacute" unicode="&#x1fa;" 
 />
    <glyph glyph-name="aringacute" unicode="&#x1fb;" 
 />
    <glyph glyph-name="AEacute" unicode="&#x1fc;" 
 />
    <glyph glyph-name="aeacute" unicode="&#x1fd;" 
 />
    <glyph glyph-name="Oslashacute" unicode="&#x1fe;" 
 />
    <glyph glyph-name="oslashacute" unicode="&#x1ff;" 
 />
    <glyph glyph-name="circumflex" unicode="&#x2c6;" horiz-adv-x="256" 
d="M241 559h-46l-70 36l-69 -36h-46l74 52h83z" />
    <glyph glyph-name="caron" unicode="&#x2c7;" 
 />
    <glyph glyph-name="macron" unicode="&#x2c9;" 
 />
    <glyph glyph-name="breve" unicode="&#x2d8;" 
 />
    <glyph glyph-name="dotaccent" unicode="&#x2d9;" 
 />
    <glyph glyph-name="ring" unicode="&#x2da;" horiz-adv-x="205" 
d="M195 578c0 -17.333 -10.001 -31.333 -30.001 -42c-16 -8 -33.667 -12 -53 -12s-37 4 -53 12c-20 10.667 -30 24.667 -30 42s10 31 30 41c16 8.66699 33.667 13 53 13c18.667 0 36.334 -4.33301 53.001 -13c20 -10 30 -23.667 30 -41zM138.999 583c0 30 -9 45 -27 45
s-27 -14.333 -27 -43v-14c0 -28.667 9 -43 27 -43s27 15 27 45v10z" />
    <glyph glyph-name="ogonek" unicode="&#x2db;" 
 />
    <glyph glyph-name="tilde" unicode="&#x2dc;" horiz-adv-x="282" 
d="M253 589c-14 -29.333 -38.001 -44 -72.001 -44c-22.667 0 -51 9.66699 -85 29c-4.66699 -6 -8.66699 -15.333 -12 -28h-57c12.667 28.667 36.334 43 71.001 43c21.333 0 50 -9.66699 86 -29c4.66699 6 8.66699 15.667 12 29h57z" />
    <glyph glyph-name="hungarumlaut" unicode="&#x2dd;" 
 />
    <glyph glyph-name="tonos" unicode="&#x384;" 
 />
    <glyph glyph-name="dieresistonos" unicode="&#x385;" 
 />
    <glyph glyph-name="Alphatonos" unicode="&#x386;" 
 />
    <glyph glyph-name="anoteleia" unicode="&#x387;" 
 />
    <glyph glyph-name="Epsilontonos" unicode="&#x388;" 
 />
    <glyph glyph-name="Etatonos" unicode="&#x389;" 
 />
    <glyph glyph-name="Iotatonos" unicode="&#x38a;" 
 />
    <glyph glyph-name="Omicrontonos" unicode="&#x38c;" 
 />
    <glyph glyph-name="Upsilontonos" unicode="&#x38e;" 
 />
    <glyph glyph-name="Omegatonos" unicode="&#x38f;" 
 />
    <glyph glyph-name="iotadieresistonos" unicode="&#x390;" 
 />
    <glyph glyph-name="Alpha" unicode="&#x391;" 
 />
    <glyph glyph-name="Beta" unicode="&#x392;" 
 />
    <glyph glyph-name="Gamma" unicode="&#x393;" 
 />
    <glyph glyph-name="Delta" unicode="&#x394;" 
 />
    <glyph glyph-name="Delta" unicode="&#x2206;" 
 />
    <glyph glyph-name="Epsilon" unicode="&#x395;" 
 />
    <glyph glyph-name="Zeta" unicode="&#x396;" 
 />
    <glyph glyph-name="Eta" unicode="&#x397;" 
 />
    <glyph glyph-name="Theta" unicode="&#x398;" 
 />
    <glyph glyph-name="Theta" unicode="&#x472;" 
 />
    <glyph glyph-name="Iota" unicode="&#x399;" 
 />
    <glyph glyph-name="Kappa" unicode="&#x39a;" 
 />
    <glyph glyph-name="Lambda" unicode="&#x39b;" 
 />
    <glyph glyph-name="Mu" unicode="&#x39c;" 
 />
    <glyph glyph-name="Nu" unicode="&#x39d;" 
 />
    <glyph glyph-name="Xi" unicode="&#x39e;" 
 />
    <glyph glyph-name="Omicron" unicode="&#x39f;" 
 />
    <glyph glyph-name="Pi" unicode="&#x3a0;" 
 />
    <glyph glyph-name="Rho" unicode="&#x3a1;" 
 />
    <glyph glyph-name="Sigma" unicode="&#x3a3;" 
 />
    <glyph glyph-name="Tau" unicode="&#x3a4;" 
 />
    <glyph glyph-name="Upsilon" unicode="&#x3a5;" 
 />
    <glyph glyph-name="Phi" unicode="&#x3a6;" 
 />
    <glyph glyph-name="Chi" unicode="&#x3a7;" 
 />
    <glyph glyph-name="Psi" unicode="&#x3a8;" 
 />
    <glyph glyph-name="Psi" unicode="&#x470;" 
 />
    <glyph glyph-name="Omega" unicode="&#x3a9;" 
 />
    <glyph glyph-name="Omega" unicode="&#x2126;" 
 />
    <glyph glyph-name="Iotadieresis" unicode="&#x3aa;" 
 />
    <glyph glyph-name="Upsilondieresis" unicode="&#x3ab;" 
 />
    <glyph glyph-name="alphatonos" unicode="&#x3ac;" 
 />
    <glyph glyph-name="epsilontonos" unicode="&#x3ad;" 
 />
    <glyph glyph-name="etatonos" unicode="&#x3ae;" 
 />
    <glyph glyph-name="iotatonos" unicode="&#x3af;" 
 />
    <glyph glyph-name="upsilondieresistonos" unicode="&#x3b0;" 
 />
    <glyph glyph-name="alpha" unicode="&#x3b1;" 
 />
    <glyph glyph-name="beta" unicode="&#x3b2;" 
 />
    <glyph glyph-name="gamma" unicode="&#x3b3;" 
 />
    <glyph glyph-name="delta" unicode="&#x3b4;" 
 />
    <glyph glyph-name="epsilon" unicode="&#x3b5;" 
 />
    <glyph glyph-name="zeta" unicode="&#x3b6;" 
 />
    <glyph glyph-name="eta" unicode="&#x3b7;" 
 />
    <glyph glyph-name="theta" unicode="&#x3b8;" 
 />
    <glyph glyph-name="theta" unicode="&#x473;" 
 />
    <glyph glyph-name="iota" unicode="&#x3b9;" 
 />
    <glyph glyph-name="kappa" unicode="&#x3ba;" 
 />
    <glyph glyph-name="lambda" unicode="&#x3bb;" 
 />
    <glyph glyph-name="mu" unicode="&#x3bc;" 
 />
    <glyph glyph-name="nu" unicode="&#x3bd;" 
 />
    <glyph glyph-name="xi" unicode="&#x3be;" 
 />
    <glyph glyph-name="omicron" unicode="&#x3bf;" 
 />
    <glyph glyph-name="pi" unicode="&#x3c0;" 
 />
    <glyph glyph-name="rho" unicode="&#x3c1;" 
 />
    <glyph glyph-name="sigma1" unicode="&#x3c2;" 
 />
    <glyph glyph-name="sigma" unicode="&#x3c3;" 
 />
    <glyph glyph-name="tau" unicode="&#x3c4;" 
 />
    <glyph glyph-name="upsilon" unicode="&#x3c5;" 
 />
    <glyph glyph-name="phi" unicode="&#x3c6;" 
 />
    <glyph glyph-name="chi" unicode="&#x3c7;" 
 />
    <glyph glyph-name="psi" unicode="&#x3c8;" 
 />
    <glyph glyph-name="psi" unicode="&#x471;" 
 />
    <glyph glyph-name="omega" unicode="&#x3c9;" 
 />
    <glyph glyph-name="iotadieresis" unicode="&#x3ca;" 
 />
    <glyph glyph-name="upsilondieresis" unicode="&#x3cb;" 
 />
    <glyph glyph-name="omicrontonos" unicode="&#x3cc;" 
 />
    <glyph glyph-name="upsilontonos" unicode="&#x3cd;" 
 />
    <glyph glyph-name="omegatonos" unicode="&#x3ce;" 
 />
    <glyph glyph-name="afii10023" unicode="&#x401;" 
 />
    <glyph glyph-name="afii10051" unicode="&#x402;" 
 />
    <glyph glyph-name="afii10052" unicode="&#x403;" 
 />
    <glyph glyph-name="afii10053" unicode="&#x404;" 
 />
    <glyph glyph-name="afii10054" unicode="&#x405;" 
 />
    <glyph glyph-name="afii10055" unicode="&#x406;" 
 />
    <glyph glyph-name="afii10056" unicode="&#x407;" 
 />
    <glyph glyph-name="afii10057" unicode="&#x408;" 
 />
    <glyph glyph-name="afii10058" unicode="&#x409;" 
 />
    <glyph glyph-name="afii10059" unicode="&#x40a;" 
 />
    <glyph glyph-name="afii10060" unicode="&#x40b;" 
 />
    <glyph glyph-name="afii10061" unicode="&#x40c;" 
 />
    <glyph glyph-name="afii10062" unicode="&#x40e;" 
 />
    <glyph glyph-name="afii10145" unicode="&#x40f;" 
 />
    <glyph glyph-name="afii10017" unicode="&#x410;" 
 />
    <glyph glyph-name="afii10018" unicode="&#x411;" 
 />
    <glyph glyph-name="afii10019" unicode="&#x412;" 
 />
    <glyph glyph-name="afii10020" unicode="&#x413;" 
 />
    <glyph glyph-name="afii10021" unicode="&#x414;" 
 />
    <glyph glyph-name="afii10022" unicode="&#x415;" 
 />
    <glyph glyph-name="afii10024" unicode="&#x416;" 
 />
    <glyph glyph-name="afii10025" unicode="&#x417;" 
 />
    <glyph glyph-name="afii10026" unicode="&#x418;" 
 />
    <glyph glyph-name="afii10027" unicode="&#x419;" 
 />
    <glyph glyph-name="afii10028" unicode="&#x41a;" 
 />
    <glyph glyph-name="afii10029" unicode="&#x41b;" 
 />
    <glyph glyph-name="afii10030" unicode="&#x41c;" 
 />
    <glyph glyph-name="afii10031" unicode="&#x41d;" 
 />
    <glyph glyph-name="afii10032" unicode="&#x41e;" 
 />
    <glyph glyph-name="afii10033" unicode="&#x41f;" 
 />
    <glyph glyph-name="afii10034" unicode="&#x420;" 
 />
    <glyph glyph-name="afii10035" unicode="&#x421;" 
 />
    <glyph glyph-name="afii10036" unicode="&#x422;" 
 />
    <glyph glyph-name="afii10037" unicode="&#x423;" 
 />
    <glyph glyph-name="afii10038" unicode="&#x424;" 
 />
    <glyph glyph-name="afii10039" unicode="&#x425;" 
 />
    <glyph glyph-name="afii10040" unicode="&#x426;" 
 />
    <glyph glyph-name="afii10041" unicode="&#x427;" 
 />
    <glyph glyph-name="afii10042" unicode="&#x428;" 
 />
    <glyph glyph-name="afii10043" unicode="&#x429;" 
 />
    <glyph glyph-name="afii10044" unicode="&#x42a;" 
 />
    <glyph glyph-name="afii10045" unicode="&#x42b;" 
 />
    <glyph glyph-name="afii10046" unicode="&#x42c;" 
 />
    <glyph glyph-name="afii10047" unicode="&#x42d;" 
 />
    <glyph glyph-name="afii10048" unicode="&#x42e;" 
 />
    <glyph glyph-name="afii10049" unicode="&#x42f;" 
 />
    <glyph glyph-name="afii10065" unicode="&#x430;" 
 />
    <glyph glyph-name="afii10066" unicode="&#x431;" 
 />
    <glyph glyph-name="afii10067" unicode="&#x432;" 
 />
    <glyph glyph-name="afii10068" unicode="&#x433;" 
 />
    <glyph glyph-name="afii10069" unicode="&#x434;" 
 />
    <glyph glyph-name="afii10070" unicode="&#x435;" 
 />
    <glyph glyph-name="afii10072" unicode="&#x436;" 
 />
    <glyph glyph-name="afii10073" unicode="&#x437;" 
 />
    <glyph glyph-name="afii10074" unicode="&#x438;" 
 />
    <glyph glyph-name="afii10075" unicode="&#x439;" 
 />
    <glyph glyph-name="afii10076" unicode="&#x43a;" 
 />
    <glyph glyph-name="afii10077" unicode="&#x43b;" 
 />
    <glyph glyph-name="afii10078" unicode="&#x43c;" 
 />
    <glyph glyph-name="afii10079" unicode="&#x43d;" 
 />
    <glyph glyph-name="afii10080" unicode="&#x43e;" 
 />
    <glyph glyph-name="afii10081" unicode="&#x43f;" 
 />
    <glyph glyph-name="afii10082" unicode="&#x440;" 
 />
    <glyph glyph-name="afii10083" unicode="&#x441;" 
 />
    <glyph glyph-name="afii10084" unicode="&#x442;" 
 />
    <glyph glyph-name="afii10085" unicode="&#x443;" 
 />
    <glyph glyph-name="afii10086" unicode="&#x444;" 
 />
    <glyph glyph-name="afii10087" unicode="&#x445;" 
 />
    <glyph glyph-name="afii10088" unicode="&#x446;" 
 />
    <glyph glyph-name="afii10089" unicode="&#x447;" 
 />
    <glyph glyph-name="afii10090" unicode="&#x448;" 
 />
    <glyph glyph-name="afii10091" unicode="&#x449;" 
 />
    <glyph glyph-name="afii10092" unicode="&#x44a;" 
 />
    <glyph glyph-name="afii10093" unicode="&#x44b;" 
 />
    <glyph glyph-name="afii10094" unicode="&#x44c;" 
 />
    <glyph glyph-name="afii10095" unicode="&#x44d;" 
 />
    <glyph glyph-name="afii10096" unicode="&#x44e;" 
 />
    <glyph glyph-name="afii10097" unicode="&#x44f;" 
 />
    <glyph glyph-name="afii10071" unicode="&#x451;" 
 />
    <glyph glyph-name="afii10099" unicode="&#x452;" 
 />
    <glyph glyph-name="afii10100" unicode="&#x453;" 
 />
    <glyph glyph-name="afii10101" unicode="&#x454;" 
 />
    <glyph glyph-name="afii10102" unicode="&#x455;" 
 />
    <glyph glyph-name="afii10103" unicode="&#x456;" 
 />
    <glyph glyph-name="afii10104" unicode="&#x457;" 
 />
    <glyph glyph-name="afii10105" unicode="&#x458;" 
 />
    <glyph glyph-name="afii10106" unicode="&#x459;" 
 />
    <glyph glyph-name="afii10107" unicode="&#x45a;" 
 />
    <glyph glyph-name="afii10108" unicode="&#x45b;" 
 />
    <glyph glyph-name="afii10109" unicode="&#x45c;" 
 />
    <glyph glyph-name="afii10110" unicode="&#x45e;" 
 />
    <glyph glyph-name="afii10193" unicode="&#x45f;" 
 />
    <glyph glyph-name="afii10050" unicode="&#x490;" 
 />
    <glyph glyph-name="afii10098" unicode="&#x491;" 
 />
    <glyph glyph-name="Wgrave" unicode="&#x1e80;" 
 />
    <glyph glyph-name="wgrave" unicode="&#x1e81;" 
 />
    <glyph glyph-name="Wacute" unicode="&#x1e82;" 
 />
    <glyph glyph-name="wacute" unicode="&#x1e83;" 
 />
    <glyph glyph-name="Wdieresis" unicode="&#x1e84;" 
 />
    <glyph glyph-name="wdieresis" unicode="&#x1e85;" 
 />
    <glyph glyph-name="Ygrave" unicode="&#x1ef2;" 
 />
    <glyph glyph-name="ygrave" unicode="&#x1ef3;" 
 />
    <glyph glyph-name="endash" unicode="&#x2013;" 
 />
    <glyph glyph-name="emdash" unicode="&#x2014;" 
 />
    <glyph glyph-name="afii00208" unicode="&#x2015;" 
 />
    <glyph glyph-name="underscoredbl" unicode="&#x2017;" 
 />
    <glyph glyph-name="quoteleft" unicode="&#x2018;" horiz-adv-x="148" 
d="M31 578l27 200h56l6 -200h-89z" />
    <glyph glyph-name="quoteright" unicode="&#x2019;" horiz-adv-x="129" 
d="M108 791l-27 -200h-56l-5 200h88z" />
    <glyph glyph-name="quotesinglbase" unicode="&#x201a;" 
 />
    <glyph glyph-name="quotereversed" unicode="&#x201b;" 
 />
    <glyph glyph-name="quotedblleft" unicode="&#x201c;" horiz-adv-x="260" 
d="M8 589l26 200h57l5 -200h-88zM148 589l27 200h56l5 -200h-88z" />
    <glyph glyph-name="quotedblright" unicode="&#x201d;" horiz-adv-x="255" 
d="M247 793l-27 -199h-56l-5 199h88zM107 793l-27 -199h-57l-5 199h89z" />
    <glyph glyph-name="quotedblbase" unicode="&#x201e;" 
 />
    <glyph glyph-name="dagger" unicode="&#x2020;" 
 />
    <glyph glyph-name="daggerdbl" unicode="&#x2021;" 
 />
    <glyph glyph-name="bullet" unicode="&#x2022;" horiz-adv-x="516" 
d="M481 194h-457v483h457v-483z" />
    <glyph glyph-name="ellipsis" unicode="&#x2026;" horiz-adv-x="518" 
d="M121 1h-100v73h100v-73zM305 1h-100v73h100v-73zM489 1h-100v73h100v-73z" />
    <glyph glyph-name=".null" horiz-adv-x="0" 
 />
    <glyph glyph-name="nonmarkingreturn" horiz-adv-x="223" 
 />
    <glyph glyph-name="glyph109" 
 />
    <glyph glyph-name="glyph318" 
 />
    <glyph glyph-name="glyph335" 
 />
    <glyph glyph-name="glyph408" 
 />
    <glyph glyph-name="glyph503" 
 />
    <glyph glyph-name="glyph512" 
 />
    <glyph glyph-name="glyph524" 
 />
    </font>
</defs>
</svg>
