<?xml version="1.0" standalone="no"?>
<!DOCTYPE svg PUBLIC "-//W3C//DTD SVG 1.1//EN" "http://www.w3.org/Graphics/SVG/1.1/DTD/svg11.dtd" >
<svg>
<metadata>
Created by FontForge 20090914 at Sat Mar 27 12:01:49 2021
 By www-data
Copyright 1990-1998 Bitstream Inc.  All rights reserved.
</metadata>
<defs>
<font id="ZurichBT-BlackExtended" horiz-adv-x="1024" >
  <font-face 
    font-family="Zurich BlkEx BT"
    font-weight="400"
    font-stretch="expanded"
    units-per-em="2048"
    panose-1="2 11 8 7 4 5 2 3 2 4"
    ascent="1556"
    descent="-492"
    x-height="1028"
    cap-height="1475"
    bbox="-342 -483 2855 1937"
    underline-thickness="262"
    underline-position="-98"
    unicode-range="U+0020-U+F002"
  />
<missing-glyph horiz-adv-x="1229" 
d="M102 -362v1806h1024v-1806h-1024zM217 -248h795v1577h-795v-1577z" />
    <glyph glyph-name=".notdef" horiz-adv-x="1229" 
d="M102 -362v1806h1024v-1806h-1024zM217 -248h795v1577h-795v-1577z" />
    <glyph glyph-name="space" unicode=" " horiz-adv-x="778" 
 />
    <glyph glyph-name="exclam" unicode="!" horiz-adv-x="825" 
d="M569 420h-315l-64 1055h443zM221 0v317h383v-317h-383z" />
    <glyph glyph-name="quotedbl" unicode="&#x22;" horiz-adv-x="713" 
d="M416 1438h223v-561h-223v561zM76 1438h219v-561h-219v561z" />
    <glyph glyph-name="numbersign" unicode="#" horiz-adv-x="1575" 
d="M707 842l-82 -232h245l82 232h-245zM684 1466h250l-139 -393h235l141 393h250l-139 -393h270l-86 -231h-268l-80 -230h277l-84 -231h-275l-141 -393h-250l139 393h-235l-141 -393h-250l139 393h-274l86 231h270l82 230h-283l86 231h279z" />
    <glyph glyph-name="dollar" unicode="$" horiz-adv-x="1554" 
d="M854 228c79.333 2 139.833 16.5 181.5 43.5s62.5 64.833 62.5 113.5c0 49.333 -18 87.333 -54 114s-99.333 48 -190 64v-335zM688 1208c-70.667 -0.666992 -124.833 -13.999 -162.5 -39.999s-56.5 -63 -56.5 -111c0 -45.333 16.5 -80.833 49.5 -106.5
s89.5 -46.834 169.5 -63.501v321zM51.001 450.001l395 0.99707c6.66699 -74 29.167 -128.833 67.5 -164.5s96.5 -55.5 174.5 -59.5v359c-223.333 37.333 -377.5 88 -462.5 152s-127.5 157.333 -127.5 280c0 133.333 49.5 234.333 148.5 303s246.167 104.334 441.5 107.001
v159h166v-160c201.333 -4 352 -39.167 452 -105.5s153.333 -166.166 160 -299.499h-381c-4 59.333 -24.5 103.833 -61.5 133.5s-93.5 47.167 -169.5 52.5v-342c232 -35.333 395.833 -87.5 491.5 -156.5s143.5 -167.5 143.5 -295.5c0 -136 -51.667 -237.667 -155 -305
s-263.333 -103.666 -480 -108.999v-176h-166v176c-209.333 3.33301 -367 42.5 -473 117.5s-160.667 185.833 -164 332.5z" />
    <glyph glyph-name="percent" unicode="%" horiz-adv-x="2009" 
d="M1391 383c0 -78 11.833 -133.333 35.5 -166s63.5 -49 119.5 -49c55.333 0 94.833 16.5 118.5 49.5s35.5 88.167 35.5 165.5s-12 132.833 -36 166.5s-63.333 50.5 -118 50.5c-55.333 0 -95 -16.833 -119 -50.5s-36 -89.167 -36 -166.5zM1151 383
c0 126 33.333 221.333 100 286s165 97 295 97s228.833 -32.5 296.5 -97.5s101.5 -160.167 101.5 -285.5c0 -124.667 -34 -219.667 -102 -285s-166.667 -98 -296 -98s-227.5 32.5 -294.5 97.5s-100.5 160.167 -100.5 285.5zM307 1044c0 -78 11.998 -133.667 35.998 -167
s64 -50 120 -50c54.667 0 93.834 16.833 117.501 50.5s35.5 89.167 35.5 166.5c0 78 -12 133.833 -36 167.5s-63 50.5 -117 50.5c-55.333 0 -95.166 -16.833 -119.499 -50.5s-36.5 -89.5 -36.5 -167.5zM65.998 1044c0 126 33.667 221.333 101 286s166 97 296 97
s228.667 -32.5 296 -97.5s101 -160.167 101 -285.5c0 -124.667 -34 -220 -102 -286s-166.333 -99 -295 -99c-129.333 0 -227.833 32.833 -295.5 98.5s-101.5 161.167 -101.5 286.5zM587.998 -25h-234l1071 1475h234z" />
    <glyph glyph-name="ampersand" unicode="&#x26;" horiz-adv-x="2091" 
d="M1661 0l-776 0.000976562c-135.333 0 -236.333 4.16699 -303 12.5s-127 21.833 -181 40.5c-80.667 28.667 -144.167 75.834 -190.5 141.501s-69.5 141.5 -69.5 227.5c0 91.333 28.667 166.166 86 224.499s144.666 101.5 261.999 129.5
c-103.333 42 -176.833 88.5 -220.5 139.5s-65.5 115.167 -65.5 192.5c0 132.667 46.833 231 140.5 295s237.834 96 432.501 96c41.333 0 87.833 -1.33301 139.5 -4s120.5 -7.33398 206.5 -14.001v-250c-62 6 -113.167 10.167 -153.5 12.5s-73.833 3.5 -100.5 3.5
c-92 0 -160 -14 -204 -42s-66 -71.333 -66 -130c0 -59.333 25.333 -100.333 76 -123s157 -34 319 -34h279v241h389v-241h326v-275h-326v-643zM1272 289.001v377.001h-291c-172.667 0 -287.167 -13.833 -343.5 -41.5s-84.5 -76.834 -84.5 -147.501
c0 -68 31.5 -116.333 94.5 -145s174.167 -43 333.5 -43h291z" />
    <glyph glyph-name="quotesingle" unicode="'" horiz-adv-x="371" 
d="M76 1438h219v-561h-219v561z" />
    <glyph glyph-name="parenleft" unicode="(" horiz-adv-x="829" 
d="M768 -289l-303 0.000976562c-108 162 -188.667 316.667 -242 464s-80 289 -80 425c0 142 25.833 285.167 77.5 429.5s133.167 300.166 244.5 467.499h303c-90.667 -182 -158 -346.5 -202 -493.5s-66 -281.5 -66 -403.5c0 -116 22.333 -248.167 67 -396.5
s111.667 -312.5 201 -492.5z" />
    <glyph glyph-name="parenright" unicode=")" horiz-adv-x="829" 
d="M63 -289c90 180 157.334 344.166 202.001 492.499s67 280.5 67 396.5c0 122 -22 256.5 -66 403.5s-111.667 311.5 -203 493.5h304c111.333 -167.333 192.666 -323.166 243.999 -467.499s77 -287.5 77 -429.5c0 -136 -26.5 -277.667 -79.5 -425s-133.5 -302 -241.5 -464
h-304z" />
    <glyph glyph-name="asterisk" unicode="*" horiz-adv-x="1255" 
d="M723 1497l199 -135l-230 -211l301 78v-234l-301 78l230 -203l-199 -141l-94 307l-97 -309l-192 135l223 211l-301 -78v234l301 -78l-225 213l192 133l99 -299z" />
    <glyph glyph-name="plus" unicode="+" horiz-adv-x="1706" 
d="M735 1221h238v-494h479v-231h-479v-496h-238v496h-481v231h481v494z" />
    <glyph glyph-name="comma" unicode="," horiz-adv-x="778" 
d="M86 -231l156 526h395l-279 -526h-272z" />
    <glyph glyph-name="hyphen" unicode="-" horiz-adv-x="909" 
d="M80 338v352h749v-352h-749z" />
    <glyph glyph-name="period" unicode="." horiz-adv-x="778" 
d="M186 0v322h404v-322h-404z" />
    <glyph glyph-name="slash" unicode="/" horiz-adv-x="834" 
d="M608 1497h238l-658 -1687h-241z" />
    <glyph glyph-name="zero" unicode="0" horiz-adv-x="1554" 
d="M510 713c0 -178.667 20.667 -306.001 62 -382.001s109.333 -114 204 -114c95.333 0 163.833 38.5 205.5 115.5s62.5 203.833 62.5 380.5c0 176 -20.833 302.5 -62.5 379.5s-110.167 115.5 -205.5 115.5c-94.667 0 -162.667 -38.167 -204 -114.5
s-62 -203.166 -62 -380.499zM80 712.999c0 241.333 58.999 424.502 176.999 549.502s291 187.5 519 187.5s401.5 -62.667 520.5 -188s178.5 -308.333 178.5 -549s-59.5 -423.834 -178.5 -549.501s-292.5 -188.5 -520.5 -188.5c-227.333 0 -400.166 62.667 -518.499 188
s-177.5 308.666 -177.5 549.999z" />
    <glyph glyph-name="one" unicode="1" horiz-adv-x="1554" 
d="M1098 0h-410.001v1036c-54 -34.667 -115.667 -66.167 -185 -94.5s-147.666 -53.5 -234.999 -75.5v334c91.333 34 175.833 69.833 253.5 107.5s149.5 77.5 215.5 119.5h361v-1427z" />
    <glyph glyph-name="two" unicode="2" horiz-adv-x="1554" 
d="M1415 0l-1331 -0.000976562v303c118.667 60 232.5 122.167 341.5 186.5s212.833 131.166 311.5 200.499c96 66.667 159.667 121.5 191 164.5s47 91.167 47 144.5c0 58.667 -18.333 102.834 -55 132.501s-90.667 44.5 -162 44.5
c-69.333 0 -121.666 -17.167 -156.999 -51.5s-54 -85.5 -56 -153.5h-422c0 157.333 53.167 276.5 159.5 357.5s262.833 121.5 469.5 121.5c207.333 0 369 -39.667 485 -119s174 -189.333 174 -330c0 -128.667 -57.5 -248.167 -172.5 -358.5s-313.5 -233.166 -595.5 -368.499
h772v-274z" />
    <glyph glyph-name="three" unicode="3" horiz-adv-x="1554" 
d="M639 602l0.00390625 258h25c103.333 0 179 13.167 227 39.5s72 67.833 72 124.5c0 54.667 -17 96.334 -51 125.001s-83.333 43 -148 43c-66 0 -118.167 -13.333 -156.5 -40s-60.5 -64.334 -66.5 -113.001l-426 -1c11.333 133.333 71.166 235.333 179.499 306
s259.5 106 453.5 106c208.667 0 368.334 -34.833 479.001 -104.5s166 -170.834 166 -303.501c0 -84.667 -29 -153 -87 -205s-141.667 -85.333 -251 -100c121.333 -12.667 214.833 -49.167 280.5 -109.5s98.5 -139.166 98.5 -236.499c0 -139.333 -57.333 -243.5 -172 -312.5
s-288.334 -103.5 -521.001 -103.5c-222 0 -388.833 37.167 -500.5 111.5s-169.834 186.833 -174.501 337.5h431c1.33301 -62 23.166 -109.333 65.499 -142s104.166 -49 185.499 -49c78.667 0 139.5 16.5 182.5 49.5s64.5 79.5 64.5 139.5c0 64 -21.5 110.667 -64.5 140
s-112.167 44 -207.5 44c-15.333 0 -41 -1 -77 -3z" />
    <glyph glyph-name="four" unicode="4" horiz-adv-x="1554" 
d="M1253 0h-397v299h-811v340l713 788h495v-860h267v-268h-267v-299zM856 567l-0.000976562 539.001c-73.333 -96.667 -150.166 -189.834 -230.499 -279.501s-163.833 -176.167 -250.5 -259.5h481z" />
    <glyph glyph-name="five" unicode="5" horiz-adv-x="1554" 
d="M551 567l-404 -0.000976562l43 860h1139v-276h-774l-27 -342c50.667 44.667 106.834 77.334 168.501 98.001s133.834 31 216.501 31c171.333 0 304.666 -41.167 399.999 -123.5s143 -197.5 143 -345.5c0 -160 -58.833 -282.333 -176.5 -367s-288.167 -127 -511.5 -127
c-222 0 -386 35 -492 105s-159.667 178.333 -161 325l409 1c5.33301 -52 28.833 -92.333 70.5 -121s97.5 -43 167.5 -43c82.667 0 146 19.333 190 58s66 94.334 66 167.001c0 69.333 -21.167 124.166 -63.5 164.499s-99.833 60.5 -172.5 60.5
c-60 0 -108.333 -9.83301 -145 -29.5s-65.334 -51.5 -86.001 -95.5z" />
    <glyph glyph-name="six" unicode="6" horiz-adv-x="1554" 
d="M1446 1067l-435.998 -0.000976562c-8.66699 44.667 -30.667 78.334 -66 101.001s-84.333 34 -147 34c-92 0 -162.5 -27.5 -211.5 -82.5s-73.5 -133.833 -73.5 -236.5c0 -14 0.166992 -24.333 0.5 -31s0.833008 -12.667 1.5 -18c62 38.667 127.667 67.667 197 87
s141.666 29 216.999 29c173.333 0 311.166 -42.667 413.499 -128s153.5 -200.333 153.5 -345c0 -158 -61.5 -281.167 -184.5 -369.5s-294.833 -132.5 -515.5 -132.5c-228 0 -404.167 63 -528.5 189s-186.5 304 -186.5 534c0 252 63 440.667 189 566s315.667 188 569 188
c182.667 0 325 -32.333 427 -97s162.333 -160.667 181 -288zM530.002 466.999c0 -68 23 -121.167 69 -159.5s110 -57.5 192 -57.5c81.333 0 144.333 18.333 189 55s67 88.667 67 156c0 70 -22.5 125.333 -67.5 166s-106.5 61 -184.5 61c-80.667 0 -145 -20 -193 -60
s-72 -93.667 -72 -161z" />
    <glyph glyph-name="seven" unicode="7" horiz-adv-x="1554" 
d="M754 0h-492l717 1139h-860v288h1294v-327z" />
    <glyph glyph-name="eight" unicode="8" horiz-adv-x="1554" 
d="M442 741c-106 20.667 -186.667 57.335 -242 110.002s-83 119.334 -83 200.001c0 125.333 58 223.166 174 293.499s278.333 105.5 487 105.5c208 0 369.667 -35 485 -105s173 -168 173 -294c0 -80.667 -27.667 -147.334 -83 -200.001s-135.666 -89.334 -240.999 -110.001
c116.667 -18 207 -56.667 271 -116s96 -134 96 -224c0 -136 -60.833 -241 -182.5 -315s-295.167 -111 -520.5 -111c-224.667 0 -397.834 37 -519.501 111s-182.5 179 -182.5 315c0 90 32.167 164.667 96.5 224s154.833 98 271.5 116zM532 1018
c0 -53.333 20.167 -93 60.5 -119s101.5 -39 183.5 -39c82.667 0 144.334 13.167 185.001 39.5s61 65.833 61 118.5c0 56.667 -21.333 100.5 -64 131.5s-102.667 46.5 -180 46.5c-76.667 0 -136.834 -15.667 -180.501 -47s-65.5 -75 -65.5 -131zM496 424.001
c0 -61.333 24 -107.999 72 -139.999s117.333 -48 208 -48c92.667 0 163 15.833 211 47.5s72 78.5 72 140.5c0 60 -25 107 -75 141s-119.333 51 -208 51s-157.5 -16.833 -206.5 -50.5s-73.5 -80.834 -73.5 -141.501z" />
    <glyph glyph-name="nine" unicode="9" horiz-adv-x="1554" 
d="M109 360l436 0.00195312c8 -44.667 29.833 -78.334 65.5 -101.001s84.834 -34 147.501 -34c92 0 162.667 27.5 212 82.5s74 134.167 74 237.5c0 12 -0.166992 21.5 -0.5 28.5s-0.833008 13.167 -1.5 18.5c-61.333 -38.667 -127 -67.834 -197 -87.501
s-142.667 -29.5 -218 -29.5c-174 0 -312.167 42.667 -414.5 128s-153.5 200.333 -153.5 345c0 158 61.667 281.167 185 369.5s295.333 132.5 516 132.5c228 0 404.167 -62.833 528.5 -188.5s186.5 -303.167 186.5 -532.5c0 -252 -62.833 -440.667 -188.5 -566
s-314.834 -188 -567.501 -188c-183.333 0 -326.333 32.5 -429 97.5s-163 160.833 -181 287.5zM1024 958.002c0 68.667 -23.002 122.498 -69.002 161.498s-109.667 58.5 -191 58.5s-144.333 -18.667 -189 -56s-67 -89.666 -67 -156.999c0 -70 22.333 -125.167 67 -165.5
s106.334 -60.5 185.001 -60.5c80.667 0 144.834 19.833 192.501 59.5s71.5 92.834 71.5 159.501z" />
    <glyph glyph-name="colon" unicode=":" horiz-adv-x="825" 
d="M211 707v321h403v-321h-403zM211 0v322h403v-322h-403z" />
    <glyph glyph-name="semicolon" unicode=";" horiz-adv-x="825" 
d="M104 -233l156 526h393l-276 -526h-273zM211 707v321h403v-321h-403z" />
    <glyph glyph-name="less" unicode="&#x3c;" horiz-adv-x="1706" 
d="M1442 1214v-253l-854 -351l854 -348v-254l-1178 486v233z" />
    <glyph glyph-name="equal" unicode="=" horiz-adv-x="1706" 
d="M254 502h1198v-230h-1198v230zM254 950h1198v-231h-1198v231z" />
    <glyph glyph-name="greater" unicode="&#x3e;" horiz-adv-x="1706" 
d="M264 1214l1178 -487v-233l-1178 -486v254l854 348l-854 351v253z" />
    <glyph glyph-name="question" unicode="?" horiz-adv-x="1262" 
d="M334 420c0 6 -0.333984 15 -1.00098 27s-1 20.667 -1 26c0 76.667 10.5 138.167 31.5 184.5s58.167 90.833 111.5 133.5c29.333 22.667 73 52.667 131 90c116 74 174 140 174 198c0 49.333 -22.667 87 -68 113s-111.333 39 -198 39c-66.667 0 -133.667 -5.5 -201 -16.5
s-134.666 -27.5 -201.999 -49.5v283c78 14.667 154.667 25.5 230 32.5s150 10.5 224 10.5c206 0 362 -33 468 -99s159 -163.333 159 -292c0 -74 -17.333 -138.167 -52 -192.5s-93.667 -108.5 -177 -162.5l-47 -29c-148 -92 -222 -185.333 -222 -280v-16h-360zM321.999 0v313
h383v-313h-383z" />
    <glyph glyph-name="at" unicode="@" horiz-adv-x="2048" 
d="M1161 262c-37.333 -54.667 -79.498 -94.6689 -126.498 -120.002s-103.167 -38 -168.5 -38c-108.667 0 -191 29.167 -247 87.5s-84 144.166 -84 257.499c0 160.667 47.167 295.334 141.5 404.001s210.833 163 349.5 163c51.333 0 96 -10.167 134 -30.5
s69.667 -51.166 95 -92.499l52 92h206l-153 -610c0 -1.33301 -0.333008 -3.33301 -1 -6c-2 -12 -3 -21 -3 -27c0 -20 5.33301 -34.833 16 -44.5s26.334 -14.5 47.001 -14.5c91.333 0 171.5 47.833 240.5 143.5s103.5 207.5 103.5 335.5
c0 159.333 -59.833 289.333 -179.5 390s-275.5 151 -467.5 151c-98.667 0 -190 -12.167 -274 -36.5s-160.667 -60.833 -230 -109.5c-103.333 -73.333 -183 -164.833 -239 -274.5s-84 -228.5 -84 -356.5c0 -201.333 67.667 -361.833 203 -481.5
s316.666 -179.5 543.999 -179.5c109.333 0 214.666 15.833 315.999 47.5s194.666 77.834 279.999 138.501l97 -135c-104 -78 -213.667 -136.333 -329 -175s-236.666 -58 -363.999 -58c-128 0 -246.167 16.333 -354.5 49s-204.5 81 -288.5 145
c-104.667 81.333 -182.667 175.166 -234 281.499s-77 226.833 -77 361.5c0 112.667 17.667 219.5 53 320.5s87.333 193.5 156 277.5c98.667 122 218.5 214.667 359.5 278s296.833 95 467.5 95c113.333 0 220 -15.333 320 -46s186.667 -74.667 260 -132
c90.667 -71.333 158.334 -152.333 203.001 -243s67 -192.667 67 -306c0 -111.333 -21.833 -213.666 -65.5 -306.999s-107.167 -173.333 -190.5 -240c-46 -37.333 -97.333 -65.833 -154 -85.5s-115.334 -29.5 -176.001 -29.5c-70.667 0 -124.334 13.333 -161.001 40
s-56.667 66.667 -60 120zM1198 695.998c-6 50.667 -22.667 89.332 -50 115.999s-64 40 -110 40c-68.667 0 -129.167 -40.5 -181.5 -121.5s-78.5 -176.5 -78.5 -286.5c0 -55.333 11.667 -98.166 35 -128.499s56 -45.5 98 -45.5c56 0 105.333 19.667 148 59s72 92 88 158z" />
    <glyph glyph-name="A" unicode="A" horiz-adv-x="1868" 
d="M662 584h530l-252 567zM-57 0l768 1475h499l723 -1475h-475l-131 299h-803l-137 -299h-444z" />
    <glyph glyph-name="B" unicode="B" horiz-adv-x="1729" 
d="M573 621v-334h285c136 0 227.333 12.5 274 37.5s70 69.167 70 132.5c0 60.667 -21.833 103.167 -65.5 127.5s-136.5 36.5 -278.5 36.5h-285zM573 1192v-311h254c118.667 0 199.667 12 243 36s65 65.667 65 125c0 56 -20 95 -60 117s-122.667 33 -248 33h-254zM166 0
l-0.000976562 1475h747c122.667 0 216 -3.83301 280 -11.5s118.333 -20.5 163 -38.5c69.333 -26 123.5 -68.5 162.5 -127.5s58.5 -127.5 58.5 -205.5c0 -85.333 -25.833 -153.833 -77.5 -205.5s-133.167 -89.834 -244.5 -114.501c122.667 -7.33301 216.5 -41.5 281.5 -102.5
s97.5 -145.5 97.5 -253.5c0 -66.667 -12.667 -126 -38 -178s-63 -96 -113 -132c-53.333 -38 -120.666 -65.167 -201.999 -81.5s-204 -24.5 -368 -24.5h-747z" />
    <glyph glyph-name="C" unicode="C" horiz-adv-x="1712" 
d="M1644 514c-6 -176.667 -70.168 -310.668 -192.501 -402.001s-298.833 -137 -529.5 -137c-271.333 0 -478.166 65 -620.499 195s-213.5 318.333 -213.5 565s72.833 434.667 218.5 564s357.5 194 635.5 194c218.667 0 385.5 -41.667 500.5 -125
s180.167 -209.666 195.5 -378.999h-421c-11.333 68.667 -42.5 120.667 -93.5 156s-120.5 53 -208.5 53c-136 0 -236.833 -37.167 -302.5 -111.5s-98.5 -188.833 -98.5 -343.5c0 -156 31.5 -272.833 94.5 -350.5s157.833 -116.5 284.5 -116.5
c101.333 0 178.5 19.333 231.5 58s85.167 98.667 96.5 180h423z" />
    <glyph glyph-name="D" unicode="D" horiz-adv-x="1915" 
d="M848 1151l-268 0.000976562v-829h268c189.333 0 326.833 32.333 412.5 97s128.5 168.667 128.5 312c0 141.333 -44.833 246.666 -134.5 315.999s-225.167 104 -406.5 104zM166 0.000976562l-0.00195312 1475h745c144.667 0 260.334 -8.5 347.001 -25.5
s164.334 -44.833 233.001 -83.5c106.667 -60 188.667 -145.667 246 -257s86 -240.666 86 -387.999c0 -142 -27.5 -266.167 -82.5 -372.5s-134.167 -188.5 -237.5 -246.5c-64.667 -36.667 -137.5 -62.834 -218.5 -78.501s-205.5 -23.5 -373.5 -23.5h-745z" />
    <glyph glyph-name="E" unicode="E" horiz-adv-x="1518" 
d="M166 0v1475h1255v-314h-848v-256h807v-303h-807v-285h871v-317h-1278z" />
    <glyph glyph-name="F" unicode="F" horiz-adv-x="1475" 
d="M166 0v1475h1249v-314h-837v-297h792v-311h-792v-553h-412z" />
    <glyph glyph-name="G" unicode="G" horiz-adv-x="1849" 
d="M1331 303l-0.00195312 243.998h-370v276h786v-747c-107.333 -33.333 -220.833 -58.5 -340.5 -75.5s-245.167 -25.5 -376.5 -25.5c-313.333 0 -548.666 62.833 -705.999 188.5s-236 312.834 -236 561.501c0 246.667 77.667 436.334 233 569.001s377.333 199 666 199
c244 0 429.167 -40.667 555.5 -122s194.5 -203.666 204.5 -366.999h-451c-2.66699 67.333 -32.5 120.666 -89.5 159.999s-134.167 59 -231.5 59c-145.333 0 -257.166 -41.167 -335.499 -123.5s-117.5 -199.5 -117.5 -351.5c0 -162 41.5 -283.833 124.5 -365.5
s206.833 -122.5 371.5 -122.5c49.333 0 100 3.66699 152 11s105.667 18 161 32z" />
    <glyph glyph-name="H" unicode="H" horiz-adv-x="1907" 
d="M166 1475h418v-570h739v570h418v-1475h-418v596h-739v-596h-418v1475z" />
    <glyph glyph-name="I" unicode="I" horiz-adv-x="768" 
d="M172 0v1475h422v-1475h-422z" />
    <glyph glyph-name="J" unicode="J" horiz-adv-x="1489" 
d="M469 537l0.000976562 -9c0 -93.333 17.333 -160 52 -200s92.334 -60 173.001 -60c84 0 142.333 24.167 175 72.5s49 145.833 49 292.5v842h419v-875c0 -212 -55.333 -369.167 -166 -471.5s-281.334 -153.5 -512.001 -153.5c-202.667 0 -355.334 45.833 -458.001 137.5
s-154 227.5 -154 407.5v17h422z" />
    <glyph glyph-name="K" unicode="K" horiz-adv-x="1636" 
d="M166 0v1475h418v-631l585 631h492l-633 -654l684 -821h-543l-585 750v-750h-418z" />
    <glyph glyph-name="L" unicode="L" horiz-adv-x="1382" 
d="M166 0v1475h418v-1153h774v-322h-1192z" />
    <glyph glyph-name="M" unicode="M" horiz-adv-x="2460" 
d="M162 0v1475h639l454 -1104l471 1104h574v-1475h-354v1180l-494 -1180h-442l-488 1180v-1180h-360z" />
    <glyph glyph-name="N" unicode="N" horiz-adv-x="1913" 
d="M158 0v1475h547l675 -1061v1061h375v-1475h-549l-674 1057v-1057h-374z" />
    <glyph glyph-name="O" unicode="O" horiz-adv-x="1952" 
d="M518 723c0 -154.667 37.8311 -270.833 113.498 -348.5s188.834 -116.5 339.501 -116.5c153.333 0 268.5 38.167 345.5 114.5s115.5 190.5 115.5 342.5c0 163.333 -39.667 287.833 -119 373.5s-194.666 128.5 -345.999 128.5c-142 0 -252.333 -43.333 -331 -130
s-118 -208 -118 -364zM949.998 -26.999c-276.667 0 -489.5 66.332 -638.5 198.999s-223.5 322.334 -223.5 569.001c0 238.667 79.167 424.667 237.5 558s379.5 200 663.5 200c281.333 0 497.5 -66.667 648.5 -200s226.5 -324 226.5 -572
c0 -244.667 -77.833 -431.5 -233.5 -560.5s-382.5 -193.5 -680.5 -193.5z" />
    <glyph glyph-name="P" unicode="P" horiz-adv-x="1597" 
d="M573 1184l-0.00195312 -373h254c116.667 0 196.834 14.167 240.501 42.5s65.5 77.5 65.5 147.5c0 68 -21.167 115.5 -63.5 142.5s-123.166 40.5 -242.499 40.5h-254zM165.998 0v1475h762c110.667 0 197 -5.66699 259 -17s115.667 -29.666 161 -54.999
c66.667 -38 117.334 -91.333 152.001 -160s52 -150 52 -244s-17.667 -175 -53 -243s-87.333 -120 -156 -156c-48.667 -26.667 -105.834 -45.667 -171.501 -57s-171.5 -17 -317.5 -17h-33h-248v-526h-407z" />
    <glyph glyph-name="Q" unicode="Q" horiz-adv-x="1987" 
d="M1518 0c-69.333 0 -164.667 -4.49902 -286 -13.499s-207.666 -13.5 -258.999 -13.5c-288 0 -507.5 65.667 -658.5 197s-226.5 321.666 -226.5 570.999c0 238.667 79.167 424.667 237.5 558s379.5 200 663.5 200c276 0 490.833 -66 644.5 -198s230.5 -315.667 230.5 -551
c0 -110 -22.667 -206.833 -68 -290.5s-117 -161.167 -215 -232.5c46 21.333 100.167 37 162.5 47s135.166 15 218.499 15h25v-289h-469zM517.999 719.001c0 -156 37.666 -273.167 112.999 -351.5s188 -117.5 338 -117.5c154 0 269.667 38.167 347 114.5
s116 191.166 116 344.499c0 165.333 -39.667 291.333 -119 378s-194.666 130 -345.999 130c-142 0 -252.333 -43.667 -331 -131s-118 -209.666 -118 -366.999z" />
    <glyph glyph-name="R" unicode="R" horiz-adv-x="1688" 
d="M573 1190v-344.001h261c123.333 0 208 13.167 254 39.5s69 71.833 69 136.5c0 62.667 -21.333 106.334 -64 131.001s-129 37 -259 37h-261zM166 -0.000976562l0.000976562 1475h805c118 0 207.667 -4.83301 269 -14.5s115 -25.5 161 -47.5
c60 -29.333 106.333 -70.666 139 -123.999s49 -114.333 49 -183c0 -102 -33.5 -184 -100.5 -246s-167.833 -104.333 -302.5 -127c101.333 -1.33301 177.833 -15.166 229.5 -41.499s87.167 -69.166 106.5 -128.499c10 -30.667 24.167 -109.334 42.5 -236.001
s41.5 -235.667 69.5 -327h-434c-13.333 26 -25.333 76.333 -36 151c-1.33301 9.33301 -2.33301 16.666 -3 21.999l-28 196c-12 80 -34.833 132.333 -68.5 157s-114.834 37 -243.501 37h-248v-563h-407z" />
    <glyph glyph-name="S" unicode="S" horiz-adv-x="1589" 
d="M100 492l418 -0.00292969v-15c0 -72.667 24 -126.334 72 -161.001s122.333 -52 223 -52c89.333 0 156 12.833 200 38.5s66 64.167 66 115.5c0 74.667 -102 130.334 -306 167.001l-95 17c-201.333 38.667 -342.833 90.667 -424.5 156s-122.5 156 -122.5 272
c0 150.667 59.167 265.834 177.5 345.501s289.166 119.5 512.499 119.5c213.333 0 371.333 -35.667 474 -107s158.334 -183.666 167.001 -336.999h-397v4c0 54 -21.5 94.833 -64.5 122.5s-106.833 41.5 -191.5 41.5c-82 0 -145.167 -12 -189.5 -36s-66.5 -58 -66.5 -102
c0 -70 98.667 -123.333 296 -160l81 -16l17 -3c217.333 -42 361 -93.333 431 -154c40.667 -35.333 71.667 -78.5 93 -129.5s32 -106.833 32 -167.5c0 -152.667 -61.5 -270.167 -184.5 -352.5s-298.833 -123.5 -527.5 -123.5c-230.667 0 -403.5 40.333 -518.5 121
s-172.5 202.334 -172.5 365.001v31z" />
    <glyph glyph-name="T" unicode="T" horiz-adv-x="1602" 
d="M592 0v1165h-559v310h1536v-310h-559v-1165h-418z" />
    <glyph glyph-name="U" unicode="U" horiz-adv-x="1907" 
d="M162 1475h428v-832c0 -120 29.333 -209.333 88 -268s148 -88 268 -88c126 0 219.333 29.167 280 87.5s91 147.833 91 268.5v832h428v-834c0 -230.667 -64.167 -399.334 -192.5 -506.001s-331.166 -160 -608.499 -160c-132 0 -248.667 13.333 -350 40
s-183.333 65.334 -246 116.001c-66.667 54.667 -114.334 120.5 -143.001 197.5s-43 181.167 -43 312.5v834z" />
    <glyph glyph-name="V" unicode="V" horiz-adv-x="1716" 
d="M594 0l-610 1475h452l434 -1117l449 1117h414l-635 -1475h-504z" />
    <glyph glyph-name="W" unicode="W" horiz-adv-x="2494" 
d="M424 0l-422 1475h428l283 -1084l340 1084h469l303 -1113l289 1113h385l-424 -1475h-527l-286 1055l-324 -1055h-514z" />
    <glyph glyph-name="X" unicode="X" horiz-adv-x="1743" 
d="M-61 0l675 776l-618 699h522l383 -469l379 469h477l-629 -699l670 -776h-536l-416 522l-414 -522h-493z" />
    <glyph glyph-name="Y" unicode="Y" horiz-adv-x="1548" 
d="M567 0v530l-665 945h493l410 -611l391 611h455l-666 -951v-524h-418z" />
    <glyph glyph-name="Z" unicode="Z" horiz-adv-x="1636" 
d="M96 0v375l932 801h-870v299h1353v-379l-919 -789h944v-307h-1440z" />
    <glyph glyph-name="bracketleft" unicode="[" horiz-adv-x="829" 
d="M180 -299v1796h588v-207h-258v-1390h258v-199h-588z" />
    <glyph glyph-name="backslash" unicode="\" horiz-adv-x="834" 
d="M-12 1497h239l662 -1687h-242z" />
    <glyph glyph-name="bracketright" unicode="]" horiz-adv-x="829" 
d="M649 -299h-588v199h261v1390h-261v207h588v-1796z" />
    <glyph glyph-name="asciicircum" unicode="^" horiz-adv-x="2048" 
d="M879 1462h288l465 -563h-264l-344 342l-346 -342h-264z" />
    <glyph glyph-name="underscore" unicode="_" 
d="M0 -244h1024v-239h-1024v239z" />
    <glyph glyph-name="grave" unicode="`" 
d="M719 1165h-178l-447 285h357z" />
    <glyph glyph-name="a" unicode="a" horiz-adv-x="1440" 
d="M926 459l-31 -0.000976562c-162.667 0 -276 -11 -340 -33s-96 -59.667 -96 -113c0 -38 16.333 -66.5 49 -85.5s81.667 -28.5 147 -28.5c87.333 0 154.333 20.333 201 61s70 99.334 70 176.001v23zM936 151.999c-42.667 -57.333 -104.999 -101.166 -186.999 -131.499
s-179.333 -45.5 -292 -45.5c-130 0 -230.5 27.167 -301.5 81.5s-106.5 131.166 -106.5 230.499c0 62 13.667 117.667 41 167s67 89.666 119 120.999c41.333 26 99.166 44.5 173.499 55.5s191.833 16.5 352.5 16.5h191c0 4 0.333008 9.16699 1 15.5s1 10.833 1 13.5
c0 56 -16.5 98.667 -49.5 128s-80.833 44 -143.5 44c-71.333 0 -124.333 -9.83301 -159 -29.5s-55.334 -51.5 -62.001 -95.5h-399c12.667 112.667 69.834 195.834 171.501 249.501s253.167 80.5 454.5 80.5c194 0 336.833 -32 428.5 -96s137.5 -163.333 137.5 -298v-524
c0 -28.667 1.5 -53.667 4.5 -75s8.16699 -41.333 15.5 -60h-366c-8.66699 18.667 -15 39 -19 61s-6 46 -6 72v19z" />
    <glyph glyph-name="b" unicode="b" horiz-adv-x="1587" 
d="M137 1475l393 0.000976562v-594c59.333 58 125.666 101.5 198.999 130.5s154 43.5 242 43.5c162.667 0 291.334 -47.833 386.001 -143.5s142 -225.5 142 -389.5c0 -172 -45.833 -306.167 -137.5 -402.5s-219.167 -144.5 -382.5 -144.5
c-92.667 0 -177.167 18.5 -253.5 55.5s-141.5 91.167 -195.5 162.5v-33c0 -26.667 -1 -53.334 -3 -80.001s-5 -53.334 -9 -80.001h-397c5.33301 42.667 9.33301 83.334 12 122.001s4 75.667 4 111v1242zM1096 543.001c0 92.667 -25.5 166.665 -76.5 221.998
s-119.167 83 -204.5 83c-94 0 -165.667 -27.167 -215 -81.5s-74 -133.833 -74 -238.5c0 -99.333 25 -176.666 75 -231.999s119.333 -83 208 -83c90.667 0 161.167 28.833 211.5 86.5s75.5 138.834 75.5 243.501z" />
    <glyph glyph-name="c" unicode="c" horiz-adv-x="1434" 
d="M961 666c-8.66699 56 -31.6689 98.001 -69.002 126.001s-89.666 42 -156.999 42c-81.333 0 -144.333 -28.833 -189 -86.5s-67 -138.834 -67 -243.501c0 -94.667 21.833 -167.167 65.5 -217.5s106.5 -75.5 188.5 -75.5c74.667 0 131.334 16.167 170.001 48.5
s58.667 79.5 60 141.5h405c-7.33301 -143.333 -63.166 -249.833 -167.499 -319.5s-261.5 -104.5 -471.5 -104.5c-212.667 0 -375.334 44.833 -488.001 134.5s-169 218.5 -169 386.5c0 177.333 58.5 314.833 175.5 412.5s282.833 146.5 497.5 146.5
c185.333 0 329.833 -33.333 433.5 -100s162.167 -163.667 175.5 -291h-393z" />
    <glyph glyph-name="d" unicode="d" horiz-adv-x="1587" 
d="M772 848c-85.333 0 -153 -27.667 -203 -83s-75 -129.333 -75 -222c0 -105.333 24.667 -186.666 74 -243.999s119.333 -86 210 -86c89.333 0 158.833 27.667 208.5 83s74.5 132.666 74.5 231.999c0 104.667 -24.667 184.167 -74 238.5s-121 81.5 -215 81.5zM1450 1475
l0.000976562 -1242c0 -35.333 1.33301 -72.333 4 -111s6.66699 -79.334 12 -122.001h-397c-4 26.667 -7 53.334 -9 80.001s-3 53.334 -3 80.001v33c-54 -72 -118.833 -126.333 -194.5 -163s-159.834 -55 -252.501 -55c-164 0 -292 48.167 -384 144.5s-138 230.5 -138 402.5
c0 164 47.333 293.833 142 389.5s223.334 143.5 386.001 143.5c88 0 168.667 -14.5 242 -43.5s139.666 -72.5 198.999 -130.5v594h393z" />
    <glyph glyph-name="e" unicode="e" horiz-adv-x="1417" 
d="M1335 328c-9.33301 -115.333 -65.8311 -203 -169.498 -263s-251.167 -90 -442.5 -90c-208.667 0 -369.334 45.167 -482.001 135.5s-169 219.5 -169 387.5c0 177.333 58.5 314.833 175.5 412.5s282.833 146.5 497.5 146.5c202.667 0 355.167 -49.833 457.5 -149.5
s153.5 -248.5 153.5 -446.5v-35h-891c3.33301 -73.333 29.166 -131.333 77.499 -174s112.5 -64 192.5 -64c62 0 112 12.5 150 37.5s59.667 59.167 65 102.5h385zM467.002 635l500.998 -0.000976562c-2 64.667 -25 115.334 -69 152.001s-103.333 55 -178 55
c-75.333 0 -135.166 -18 -179.499 -54s-69.166 -87 -74.499 -153z" />
    <glyph glyph-name="f" unicode="f" horiz-adv-x="946" 
d="M248 1169c0 112 36.499 194.332 109.499 246.999s187.833 79 344.5 79c44.667 0 87 -2.16699 127 -6.5s77.667 -11.166 113 -20.499v-217c-5.33301 0.666992 -12.666 1 -21.999 1c-46 2 -79 3 -99 3c-72 0 -120.333 -9.5 -145 -28.5s-37 -55.167 -37 -108.5v-90h303v-244
h-303v-784h-391v784h-236v244h236v141z" />
    <glyph glyph-name="g" unicode="g" horiz-adv-x="1597" 
d="M500 537c0 -82 25.501 -147.668 76.501 -197.001s118.833 -74 203.5 -74c94 0 165.667 24.333 215 73s74 119.334 74 212.001c0 88 -24.833 156.333 -74.5 205s-119.834 73 -210.501 73c-90 0 -159.833 -25.5 -209.5 -76.5s-74.5 -122.833 -74.5 -215.5zM1075 873.999
c0 30 0.999023 57.832 2.99902 83.499s5 49.167 9 70.5h385c-4.66699 -37.333 -8.16699 -75.5 -10.5 -114.5s-3.5 -78.5 -3.5 -118.5v-525c0 -132 -7.16699 -229.667 -21.5 -293s-38.5 -117.666 -72.5 -162.999c-56.667 -74 -136.334 -128.667 -239.001 -164
s-232.667 -53 -390 -53c-193.333 0 -338.333 30 -435 90s-146 150.667 -148 272h388c2.66699 -46 21.334 -80.667 56.001 -104s85.334 -35 152.001 -35c108 0 187.833 25 239.5 75s77.5 127.333 77.5 232v86c-50.667 -58 -112.667 -101.5 -186 -130.5
s-157.333 -43.5 -252 -43.5c-158.667 0 -286.834 46.333 -384.501 139s-146.5 213 -146.5 361c0 160 48.833 285.667 146.5 377s231.834 137 402.501 137c80.667 0 157 -14.833 229 -44.5s139 -74.5 201 -134.5z" />
    <glyph glyph-name="h" unicode="h" horiz-adv-x="1542" 
d="M530 0l-392.999 0.000976562v1475h393v-611c57.333 63.333 122.666 110.666 195.999 141.999s155.666 47 246.999 47c137.333 0 246 -36.833 326 -110.5s120 -173.5 120 -299.5v-643h-395v627c0 63.333 -19.667 111.5 -59 144.5s-96.666 49.5 -171.999 49.5
c-86 0 -151.333 -25.333 -196 -76s-67 -125 -67 -223v-522z" />
    <glyph glyph-name="i" unicode="i" horiz-adv-x="653" 
d="M115 1186v289h424v-289h-424zM131 0v1028h393v-1028h-393z" />
    <glyph glyph-name="j" unicode="j" horiz-adv-x="696" 
d="M172 143l0.00195312 884.998h393v-1008c0 -147.333 -38 -254.666 -114 -321.999s-197 -101 -363 -101c-36.667 0 -68.667 0.833008 -96 2.5s-53.333 4.83398 -78 9.50098v260c9.33301 0 22.166 -0.333008 38.499 -1s28.166 -1 35.499 -1c36.667 0 66.167 2.66699 88.5 8
s40.5 14.333 54.5 27c15.333 12.667 26 33 32 61s9 88 9 180zM158.002 1186v289h422v-289h-422z" />
    <glyph glyph-name="k" unicode="k" horiz-adv-x="1475" 
d="M131 0v1475h393v-877l488 430h469l-504 -444l555 -584h-508l-500 549v-549h-393z" />
    <glyph glyph-name="l" unicode="l" horiz-adv-x="653" 
d="M131 0v1475h393v-1475h-393z" />
    <glyph glyph-name="m" unicode="m" horiz-adv-x="2318" 
d="M137 0v785.999c0 52.667 -1 97.834 -3 135.501s-5 73.167 -9 106.5h387c4 -27.333 7.5 -54.833 10.5 -82.5s5.83301 -55.167 8.5 -82.5c56.667 62.667 120.667 110 192 142s149 48 233 48c94.667 0 173.167 -18 235.5 -54s106.833 -89 133.5 -159
c48.667 70 108.334 123 179.001 159s151 54 241 54c145.333 0 256.666 -37.5 333.999 -112.5s116 -183.167 116 -324.5v-616h-391v627c0 62 -17.333 109.833 -52 143.5s-83.334 50.5 -146.001 50.5c-84 0 -146 -24.333 -186 -73s-60 -124 -60 -226v-522h-387v627
c0 60.667 -17.5 108.167 -52.5 142.5s-83.167 51.5 -144.5 51.5c-85.333 0 -148.666 -24.333 -189.999 -73s-62 -124 -62 -226v-522h-387z" />
    <glyph glyph-name="n" unicode="n" horiz-adv-x="1542" 
d="M137 0v786c0 52.667 -1 97.834 -3 135.501s-5 73.167 -9 106.5h395c3.33301 -26.667 5.83301 -53.667 7.5 -81s2.5 -55 2.5 -83c62 65.333 128.667 113.166 200 143.499s152.333 45.5 243 45.5c140 0 249.333 -37.5 328 -112.5s118 -178.833 118 -311.5v-629h-395v610
c0 69.333 -18.333 121.833 -55 157.5s-90.667 53.5 -162 53.5c-93.333 0 -162.833 -24.5 -208.5 -73.5s-68.5 -124.167 -68.5 -225.5v-522h-393z" />
    <glyph glyph-name="o" unicode="o" horiz-adv-x="1540" 
d="M752 -25c-220.667 0 -389.165 46.332 -505.498 138.999s-174.5 226.667 -174.5 402c0 174 59.667 307.333 179 400s291.666 139 516.999 139c226.667 0 399.667 -46.667 519 -140s179 -227.666 179 -402.999c0 -178 -59.833 -312 -179.5 -402
s-297.834 -135 -534.501 -135zM772.002 204.999c87.333 0 156.334 28.5 207.001 85.5s76 134.833 76 233.5c0 100 -25.5 179 -76.5 237s-120.5 87 -208.5 87c-90.667 0 -160.834 -28 -210.501 -84s-74.5 -135.333 -74.5 -238c0 -104 24.5 -183.5 73.5 -238.5
s120.167 -82.5 213.5 -82.5z" />
    <glyph glyph-name="p" unicode="p" horiz-adv-x="1587" 
d="M137 -389v1184c0 35.333 -1.33301 72.333 -4 111s-6.66699 79.334 -12 122.001h397c4 -26.667 7 -53.334 9 -80.001s3 -53.334 3 -80.001v-32c54.667 71.333 120.167 125.666 196.5 162.999s160.5 56 252.5 56c163.333 0 290.833 -48.333 382.5 -145
s137.5 -231.334 137.5 -404.001c0 -164 -47.333 -293.833 -142 -389.5s-223.334 -143.5 -386.001 -143.5c-88 0 -168.667 14.5 -242 43.5s-139.666 72.5 -198.999 130.5v-536h-393zM815 180.003c85.333 0 153.5 27.665 204.5 82.998s76.5 129.333 76.5 222
c0 104.667 -25.167 185.834 -75.5 243.501s-120.833 86.5 -211.5 86.5c-88.667 0 -158 -27.667 -208 -83s-75 -132.666 -75 -231.999c0 -104.667 24.667 -184.167 74 -238.5s121 -81.5 215 -81.5z" />
    <glyph glyph-name="q" unicode="q" horiz-adv-x="1587" 
d="M494 485c0 -92.667 25 -166.668 75 -222.001s117.667 -83 203 -83c94 0 165.667 27.5 215 82.5s74 134.833 74 239.5c0 98.667 -24.833 175.5 -74.5 230.5s-119.167 82.5 -208.5 82.5c-90.667 0 -160.667 -28.667 -210 -86s-74 -138.666 -74 -243.999zM1450 -389.001
l-392.999 -0.00195312v536c-59.333 -58 -125.5 -101.5 -198.5 -130.5s-153.833 -43.5 -242.5 -43.5c-162.667 0 -291.334 47.833 -386.001 143.5s-142 225.5 -142 389.5c0 172 46.167 306.5 138.5 403.5s220.166 145.5 383.499 145.5c92 0 175.833 -18.667 251.5 -56
s140.834 -91.666 195.501 -162.999v32c0 26.667 1 53.334 3 80.001s5 53.334 9 80.001h397c-5.33301 -42.667 -9.33301 -83.334 -12 -122.001s-4 -75.667 -4 -111v-1184z" />
    <glyph glyph-name="r" unicode="r" horiz-adv-x="1010" 
d="M967 701c-20.667 3.33301 -40.999 5.83105 -60.999 7.49805s-40.667 2.5 -62 2.5c-102 0 -179.833 -30 -233.5 -90s-80.5 -147.667 -80.5 -263v-358h-393v786c0 52.667 -1 97.834 -3 135.501s-5 73.167 -9 106.5h385c2.66699 -23.333 4.66699 -47.666 6 -72.999
s2 -53 2 -83v-47c40 72.667 93.667 126.667 161 162s149.666 53 246.999 53h41v-339z" />
    <glyph glyph-name="s" unicode="s" horiz-adv-x="1294" 
d="M70 326h390.998c0 -44 16.5 -78 49.5 -102s79.833 -36 140.5 -36c56.667 0 100.5 9.33301 131.5 28s46.5 45 46.5 79c0 54.667 -71.333 91 -214 109c-25.333 3.33301 -44.666 6 -57.999 8c-174.667 22.667 -292.334 56.834 -353.001 102.501s-91 116.5 -91 212.5
c0 106 44.333 186.833 133 242.5s217 83.5 385 83.5c198.667 0 343.167 -27 433.5 -81s135.5 -139.667 135.5 -257h-385v4c0 43.333 -13.833 75.333 -41.5 96s-70.5 31 -128.5 31c-49.333 0 -87.166 -7.33301 -113.499 -22s-39.5 -35.334 -39.5 -62.001
c0 -48.667 71.667 -84.334 215 -107.001c30.667 -5.33301 54.334 -9.33301 71.001 -12c182 -30 301 -66.167 357 -108.5s84 -107.166 84 -194.499c0 -124 -47.333 -215.833 -142 -275.5s-240.667 -89.5 -438 -89.5c-194 0 -335.333 27.5 -424 82.5s-137 144.5 -145 268.5z
" />
    <glyph glyph-name="t" unicode="t" horiz-adv-x="999" 
d="M623 1389l-0.00195312 -361h323v-244h-323v-401c0 -53.333 11.833 -90.166 35.5 -110.499s65.5 -30.5 125.5 -30.5c18 0 39 0.666992 63 2s57 4 99 8v-250c-41.333 -8.66699 -83.166 -15.334 -125.499 -20.001s-85.166 -7 -128.499 -7
c-155.333 0 -269.5 26.333 -342.5 79s-109.5 135 -109.5 247v483h-236v244h236v219l209 66c26 8 53.5 18.333 82.5 31s59.5 27.667 91.5 45z" />
    <glyph glyph-name="u" unicode="u" horiz-adv-x="1542" 
d="M1016 0c-3.33301 28 -5.83301 55.666 -7.5 82.999s-2.5 54.333 -2.5 81c-60 -62 -127.5 -109 -202.5 -141s-155.167 -48 -240.5 -48c-144 0 -254.333 38.167 -331 114.5s-115 185.833 -115 328.5v610h395v-596c0 -77.333 17.833 -134.166 53.5 -170.499
s91.5 -54.5 167.5 -54.5c90 0 158 25.333 204 76s69 125.667 69 225v520h393v-784c0 -46 3.33301 -119.333 10 -220c1.33301 -11.333 2 -19.333 2 -24h-395z" />
    <glyph glyph-name="v" unicode="v" horiz-adv-x="1389" 
d="M446 0l-483 1028h436l301 -743l304 743h419l-489 -1028h-488z" />
    <glyph glyph-name="w" unicode="w" horiz-adv-x="2224" 
d="M377 0l-412 1028h422l242 -719l274 719h459l270 -719l266 719h363l-434 -1028h-443l-280 725l-266 -725h-461z" />
    <glyph glyph-name="x" unicode="x" horiz-adv-x="1360" 
d="M-39 0l500 555l-432 473h489l197 -254l213 254h422l-432 -477l479 -551h-494l-246 322l-270 -322h-426z" />
    <glyph glyph-name="y" unicode="y" horiz-adv-x="1366" 
d="M256 -389l233 405l-522 1012h432l299 -682l320 682h377l-729 -1417h-410z" />
    <glyph glyph-name="z" unicode="z" horiz-adv-x="1298" 
d="M92 0v293l633 498h-582v237h1039v-260l-647 -516h694v-252h-1137z" />
    <glyph glyph-name="braceleft" unicode="{" 
d="M893 1477l-0.000976562 -242.001c-4.66699 0 -11.667 0.333008 -21 1s-16 1 -20 1c-65.333 0 -109.333 -11.833 -132 -35.5s-34 -72.5 -34 -146.5v-240c0 -93.333 -15.333 -160 -46 -200s-85.667 -68.333 -165 -85c80 -16 135.167 -43.5 165.5 -82.5
s45.5 -105.5 45.5 -199.5v-242c0 -73.333 11.167 -121.666 33.5 -144.999s65.833 -35 130.5 -35c4.66699 0 11.834 0.333008 21.501 1s16.834 1 21.501 1v-242c-10 0 -24 -0.333008 -42 -1s-31.333 -1 -40 -1c-72 0 -131.833 4 -179.5 12s-87.5 20.333 -119.5 37
c-39.333 21.333 -66.833 50.833 -82.5 88.5s-23.5 101.834 -23.5 192.501v256c0 88.667 -16.5 151.167 -49.5 187.5s-89.167 54.5 -168.5 54.5c-2.66699 0 -8.33398 -0.333008 -17.001 -1s-15 -1 -19 -1v241c4 0 10 -0.333008 18 -1s14 -1 18 -1
c78.667 0 134.667 18.5 168 55.5s50 99.833 50 188.5v254c0 90.667 8 155.167 24 193.5s43.333 68.166 82 89.499c32 16.667 72.167 29 120.5 37s108.5 12 180.5 12c8 0 20.833 -0.333008 38.5 -1s31.5 -1 41.5 -1z" />
    <glyph glyph-name="bar" unicode="|" 
d="M393 1565h240v-2048h-240v2048z" />
    <glyph glyph-name="braceright" unicode="}" 
d="M133 1477c10 0 23.834 0.332031 41.501 0.999023s30.5 1 38.5 1c72 0 132 -4 180 -12s88.333 -20.333 121 -37c38.667 -21.333 66.167 -51.166 82.5 -89.499s24.5 -102.833 24.5 -193.5v-254c0 -89.333 16.333 -152.333 49 -189s88.667 -55 168 -55c4 0 10 0.333008 18 1
s14 1 18 1v-241c-4 0 -10 0.333008 -18 1s-14 1 -18 1c-79.333 0 -135.333 -18.333 -168 -55s-49 -99 -49 -187v-256c0 -91.333 -8.16699 -156.166 -24.5 -194.499s-43.833 -67.833 -82.5 -88.5c-30 -16 -67.833 -27.833 -113.5 -35.5s-104.834 -11.5 -177.501 -11.5
c-9.33301 0 -24 0.333008 -44 1s-35.333 1 -46 1v242c6 0 13.667 -0.333008 23 -1s16 -1 20 -1c64.667 0 108.167 11.5 130.5 34.5s33.5 71.5 33.5 145.5v242c0 93.333 15.333 159.666 46 198.999s85.667 67 165 83c-80 16.667 -135.167 44.667 -165.5 84
s-45.5 106.333 -45.5 201v240c0 74 -11.167 122.833 -33.5 146.5s-64.5 35.5 -126.5 35.5c-4.66699 0 -12.167 -0.333008 -22.5 -1s-18.5 -1 -24.5 -1v242z" />
    <glyph glyph-name="asciitilde" unicode="~" horiz-adv-x="1706" 
d="M1530 819v-254.001c-67.333 -46 -132 -80.333 -194 -103s-123 -34 -183 -34c-30 0 -59.667 2.5 -89 7.5s-57 12.167 -83 21.5c-8.66699 2.66699 -21.334 7 -38.001 13c-170 59.333 -297.333 89 -382 89c-56 0 -114.5 -12.5 -175.5 -37.5s-130.167 -65.167 -207.5 -120.5
v254c74.667 48.667 143.834 84.834 207.501 108.501s123.5 35.5 179.5 35.5c42 0 84.167 -4 126.5 -12s98.833 -23.333 169.5 -46c10.667 -3.33301 27.667 -9 51 -17c106 -37.333 188.333 -56 247 -56c56 0 113.833 12 173.5 36s125.5 62.333 197.5 115z" />
    <glyph glyph-name="euro" horiz-adv-x="1554" 
d="M147 506l-146.997 0.000976562l72 162h55v133h-160l72 162h108c41.333 174.667 123.166 306.667 245.499 396s282.833 134 481.5 134c204 0 358 -39 462 -117s165.333 -200 184 -366h-424c-1.33301 79.333 -22.5 139.333 -63.5 180s-101.167 61 -180.5 61
c-78 0 -141.167 -24.5 -189.5 -73.5s-80.166 -120.5 -95.499 -214.5h449l-74 -162h-385c0 -6 -0.333008 -15.5 -1 -28.5s-1 -22.833 -1 -29.5c0 -4 0.5 -14.833 1.5 -32.5s1.83301 -31.834 2.5 -42.501h348l-71 -162h-269c20.667 -100 53.5 -173.167 98.5 -219.5
s105.167 -69.5 180.5 -69.5c82 0 142.167 21.5 180.5 64.5s60.166 114.5 65.499 214.5h428c-10.667 -171.333 -70.334 -301 -179.001 -389s-264.334 -132 -467.001 -132s-365.5 45 -488.5 135s-202.5 222 -238.5 396z" />
    <glyph glyph-name="euro" unicode="&#x20ac;" horiz-adv-x="1554" 
d="M147 506l-146.997 0.000976562l72 162h55v133h-160l72 162h108c41.333 174.667 123.166 306.667 245.499 396s282.833 134 481.5 134c204 0 358 -39 462 -117s165.333 -200 184 -366h-424c-1.33301 79.333 -22.5 139.333 -63.5 180s-101.167 61 -180.5 61
c-78 0 -141.167 -24.5 -189.5 -73.5s-80.166 -120.5 -95.499 -214.5h449l-74 -162h-385c0 -6 -0.333008 -15.5 -1 -28.5s-1 -22.833 -1 -29.5c0 -4 0.5 -14.833 1.5 -32.5s1.83301 -31.834 2.5 -42.501h348l-71 -162h-269c20.667 -100 53.5 -173.167 98.5 -219.5
s105.167 -69.5 180.5 -69.5c82 0 142.167 21.5 180.5 64.5s60.166 114.5 65.499 214.5h428c-10.667 -171.333 -70.334 -301 -179.001 -389s-264.334 -132 -467.001 -132s-365.5 45 -488.5 135s-202.5 222 -238.5 396z" />
    <glyph glyph-name="nonbreakingspace" unicode="&#xa0;" horiz-adv-x="1554" 
 />
    <glyph glyph-name="exclamdown" unicode="&#xa1;" horiz-adv-x="825" 
d="M602 1475v-318h-383v318h383zM254 1055h315l64 -1055h-443z" />
    <glyph glyph-name="cent" unicode="&#xa2;" horiz-adv-x="1554" 
d="M799 836c-86.667 -4.66699 -152 -34.833 -196 -90.5s-66 -136.167 -66 -241.5c0 -48 6.16699 -91.167 18.5 -129.5s29.833 -69.5 52.5 -93.5zM928 1208l174 -0.00292969l-60 -174c112.667 -24.667 200 -68.167 262 -130.5s97.667 -142.166 107 -239.499h-391
c-5.33301 28 -13.333 52.167 -24 72.5s-24 36.833 -40 49.5l-196 -575c4 0 10.5 -0.333008 19.5 -1s15.5 -1 19.5 -1c76 0 131.833 15.833 167.5 47.5s53.5 80.5 53.5 146.5h405c-2 -136 -55.5 -241.333 -160.5 -316s-252.833 -112 -443.5 -112
c-21.333 0 -43.666 0.5 -66.999 1.5s-48 2.5 -74 4.5l-64 -186h-176l74 211c-120.667 28.667 -215 86.334 -283 173.001s-102 193 -102 319c0 176.667 58.167 314.334 174.5 413.001s279.5 148 489.5 148c21.333 0 37.666 -0.166992 48.999 -0.5s22 -0.833008 32 -1.5z" />
    <glyph glyph-name="sterling" unicode="&#xa3;" horiz-adv-x="1554" 
d="M1120 891v-217h-344v-418h754v-256h-1352v256h180v418h-213v217h211c-0.666992 6.66699 -1.16699 14 -1.5 22s-0.5 19.667 -0.5 35c0 173.333 47.667 300.333 143 381s244.333 121 447 121c190.667 0 337 -31.167 439 -93.5s157 -154.166 165 -275.499h-436
c-5.33301 43.333 -21.333 75.666 -48 96.999s-64.667 32 -114 32c-60 0 -104.333 -22 -133 -66s-43 -112 -43 -204c0 -5.33301 0.333008 -13.5 1 -24.5s1 -19.167 1 -24.5h344z" />
    <glyph glyph-name="currency" unicode="&#xa4;" horiz-adv-x="1554" 
d="M147 506l-146.997 0.000976562l72 162h55v133h-160l72 162h108c41.333 174.667 123.166 306.667 245.499 396s282.833 134 481.5 134c204 0 358 -39 462 -117s165.333 -200 184 -366h-424c-1.33301 79.333 -22.5 139.333 -63.5 180s-101.167 61 -180.5 61
c-78 0 -141.167 -24.5 -189.5 -73.5s-80.166 -120.5 -95.499 -214.5h449l-74 -162h-385c0 -6 -0.333008 -15.5 -1 -28.5s-1 -22.833 -1 -29.5c0 -4 0.5 -14.833 1.5 -32.5s1.83301 -31.834 2.5 -42.501h348l-71 -162h-269c20.667 -100 53.5 -173.167 98.5 -219.5
s105.167 -69.5 180.5 -69.5c82 0 142.167 21.5 180.5 64.5s60.166 114.5 65.499 214.5h428c-10.667 -171.333 -70.334 -301 -179.001 -389s-264.334 -132 -467.001 -132s-365.5 45 -488.5 135s-202.5 222 -238.5 396z" />
    <glyph glyph-name="yen" unicode="&#xa5;" horiz-adv-x="1567" 
d="M567 0v514h-567v152h455l-109 153h-346v152h233l-331 456h493l410 -589l391 589h455l-332 -456h248v-152h-359l-110 -153h469v-152h-582v-514h-418z" />
    <glyph glyph-name="brokenbar" unicode="&#xa6;" 
d="M393 408h240v-758h-240v758zM393 1432h240v-758h-240v758z" />
    <glyph glyph-name="section" unicode="&#xa7;" horiz-adv-x="1255" 
d="M629 604c48 15.333 84.832 32.668 110.499 52.001s38.5 39.666 38.5 60.999c0 19.333 -14.333 38.166 -43 56.499s-75 37.5 -139 57.5c-44 -9.33301 -78.5 -24.166 -103.5 -44.499s-37.5 -42.833 -37.5 -67.5c0 -25.333 14.333 -47.333 43 -66s72.334 -35 131.001 -49z
M161.999 260.002c69.333 -38.667 137.668 -68.166 205.001 -88.499s130.666 -30.5 189.999 -30.5c66 0 116.667 9 152 27s53 43.333 53 76c0 43.333 -55.333 80.666 -166 111.999c-43.333 12.667 -77.333 23 -102 31c-152.667 49.333 -252 94.333 -298 135
s-69 94.667 -69 162c0 60 17.5 111.833 52.5 155.5s91.167 83.167 168.5 118.5c-66.667 34 -116.834 72.5 -150.501 115.5s-50.5 90.833 -50.5 143.5c0 88 41 156.667 123 206s196.667 74 344 74c64.667 0 133.167 -5.5 205.5 -16.5s146.5 -27.167 222.5 -48.5v-275
c-76.667 30.667 -148.334 54 -215.001 70s-124 24 -172 24c-46 0 -81.333 -6.83301 -106 -20.5s-37 -33.5 -37 -59.5c0 -36 66.333 -75.333 199 -118l108 -35c108 -36 185.5 -74.833 232.5 -116.5s70.5 -91.5 70.5 -149.5c0 -60 -20 -111.5 -60 -154.5
s-103.333 -81.167 -190 -114.5c88.667 -26 154.334 -61.167 197.001 -105.5s64 -99.166 64 -164.499c0 -101.333 -46.667 -179.5 -140 -234.5s-225.666 -82.5 -396.999 -82.5c-69.333 0 -140 5.66699 -212 17s-146 28.666 -222 51.999v295z" />
    <glyph glyph-name="dieresis" unicode="&#xa8;" 
d="M594 1190v237h291v-237h-291zM139 1190v237h291v-237h-291z" />
    <glyph glyph-name="copyright" unicode="&#xa9;" horiz-adv-x="1706" 
d="M1221 891l-213.002 -0.000976562c-4.66699 44.667 -20.5 79.334 -47.5 104.001s-63.167 37 -108.5 37c-55.333 0 -98.5 -25.667 -129.5 -77s-46.5 -123.333 -46.5 -216c0 -93.333 15.833 -164 47.5 -212s77.834 -72 138.501 -72c44.667 0 80.167 13.5 106.5 40.5
s41.5 65.167 45.5 114.5h215c-4 -95.333 -39.833 -172 -107.5 -230s-155.5 -87 -263.5 -87c-126.667 0 -227 39.167 -301 117.5s-111 185.166 -111 320.499c0 138 37 247.667 111 329s173.667 122 299 122c104.667 0 190.334 -26.667 257.001 -80
s102.667 -123.666 108 -210.999zM853.998 1350c-84 0 -162.33 -15.167 -234.997 -45.5s-137.667 -74.833 -195 -133.5c-58.667 -59.333 -103.667 -126.333 -135 -201s-47 -152.334 -47 -233.001c0 -79.333 15.667 -156.166 47 -230.499s76.333 -140.833 135 -199.5
c58 -58 124 -102.5 198 -133.5s151.333 -46.5 232 -46.5s158.667 15.667 234 47s142.666 76.333 201.999 135c57.333 56 100.666 120.333 129.999 193s44 151 44 235c0 83.333 -15 161.833 -45 235.5s-73.667 139.167 -131 196.5
c-58.667 59.333 -124.834 104.333 -198.501 135s-152.167 46 -235.5 46zM852.001 1485c102.667 0 199.168 -18.666 289.501 -55.999s171.166 -91.666 242.499 -162.999c70.667 -70.667 124.167 -150.834 160.5 -240.501s54.5 -185.834 54.5 -288.501
c0 -102 -18 -197.667 -54 -287s-89 -168.333 -159 -237c-72.667 -72 -155 -127.167 -247 -165.5s-187.667 -57.5 -287 -57.5c-98.667 0 -193.167 19 -283.5 57s-171.166 92.667 -242.499 164s-125.833 151.833 -163.5 241.5s-56.5 184.5 -56.5 284.5
c0 98.667 19.167 193.667 57.5 285s93.166 173.333 164.499 246c70 70.667 149.333 124.5 238 161.5s184 55.5 286 55.5z" />
    <glyph glyph-name="ordfeminine" unicode="&#xaa;" horiz-adv-x="1079" 
d="M694 1075l-22 -0.000976562c-122 0 -207.167 -7.66699 -255.5 -23s-72.5 -41.666 -72.5 -78.999c0 -26.667 12.333 -46.667 37 -60s61.667 -20 111 -20c64.667 0 114.5 14.333 149.5 43s52.5 69.667 52.5 123v16zM702 859.999c-31.333 -40 -77.667 -70.498 -139 -91.498
s-135 -31.5 -221 -31.5c-96.667 0 -171.667 19 -225 57s-80 91.333 -80 160c0 44.667 10.167 84 30.5 118s50.5 62.333 90.5 85c30.667 18 74.167 30.667 130.5 38s143.833 11 262.5 11h143c0 3.33301 0.333008 7.16602 1 11.499s1 7.5 1 9.5
c0 39.333 -12.333 69.333 -37 90s-60.667 31 -108 31c-54 0 -93.667 -6.83301 -119 -20.5s-41 -36.167 -47 -67.5h-299c10 79.333 53 137.666 129 174.999s190 56 342 56c145.333 0 252.333 -22.333 321 -67s103 -114.667 103 -210v-366c0 -22 1.16699 -40.167 3.5 -54.5
s5.83301 -27.5 10.5 -39.5h-274c-6.66699 14 -11.5 28.5 -14.5 43.5s-4.5 31.833 -4.5 50.5v12z" />
    <glyph glyph-name="guillemotleft" unicode="&#xab;" horiz-adv-x="1214" 
d="M76 514l239 393h338l-227 -393l227 -393h-338zM604 514l240 393h338l-228 -393l228 -393h-338z" />
    <glyph glyph-name="logicalnot" unicode="&#xac;" horiz-adv-x="1706" 
d="M254 866h1198v-501h-229v274h-969v227z" />
    <glyph glyph-name="sfthyphen" unicode="&#xad;" horiz-adv-x="909" 
d="M80 338v352h749v-352h-749z" />
    <glyph glyph-name="registered" unicode="&#xae;" horiz-adv-x="1706" 
d="M762 1022l0.000976562 -219h80c49.333 0 86.166 8.83301 110.499 26.5s36.5 44.167 36.5 79.5c0 39.333 -12.667 68 -38 86s-66 27 -122 27h-67zM537.001 1163h329.001c116 0 204.167 -20 264.5 -60s90.5 -99 90.5 -177c0 -54 -15.333 -100.333 -46 -139
s-73.334 -66 -128.001 -82l182 -361h-248l-154 326h-65v-326h-225v819zM854.002 1350c-82.667 0 -160.001 -14.668 -232.001 -44.001s-136.667 -72 -194 -128c-60 -60 -105.667 -127.667 -137 -203s-47 -154.666 -47 -237.999c0 -80.667 14.667 -157 44 -229
s72.666 -137 129.999 -195c58 -60 124.333 -106 199 -138s153 -48 235 -48c80.667 0 158.167 15.167 232.5 45.5s140.833 73.833 199.5 130.5s103.334 122.167 134.001 196.5s46 153.5 46 237.5c0 82.667 -14.667 160.5 -44 233.5s-72 137.833 -128 194.5
c-59.333 60.667 -126.166 106.667 -200.499 138s-153.5 47 -237.5 47zM852.001 1485c104 0 202.004 -19.1689 294.004 -57.502s173.667 -94.166 245 -167.499c67.333 -69.333 118.833 -148.666 154.5 -237.999s53.5 -184.333 53.5 -285
c0 -103.333 -18.833 -200.333 -56.5 -291s-92.5 -170.334 -164.5 -239.001c-72.667 -70 -154.334 -123.667 -245.001 -161s-184.334 -56 -281.001 -56c-100.667 0 -196.334 19.333 -287.001 58s-171.667 95 -243 169c-70 72 -123.5 152.5 -160.5 241.5
s-55.5 181.833 -55.5 278.5c0 100.667 19.667 197.334 59 290.001s95.666 175 168.999 247c70 69.333 149 121.833 237 157.5s181.667 53.5 281 53.5z" />
    <glyph glyph-name="macron" unicode="&#xaf;" 
d="M139 1233v149h746v-149h-746z" />
    <glyph glyph-name="degree" unicode="&#xb0;" horiz-adv-x="674" 
d="M338 1321c-46 0 -85.167 -16 -117.5 -48s-48.5 -70.667 -48.5 -116c0 -46.667 16 -86 48 -118s71.333 -48 118 -48c45.333 0 84 16.333 116 49s48 71.667 48 117s-16 84 -48 116s-70.667 48 -116 48zM338 1466c86 0 159.333 -30.333 220 -91s91 -134 91 -220
c0 -85.333 -30.5 -158.5 -91.5 -219.5s-134.833 -91.5 -221.5 -91.5c-86 0 -159 30.167 -219 90.5s-90 133.833 -90 220.5c0 87.333 30.167 161 90.5 221s133.833 90 220.5 90z" />
    <glyph glyph-name="plusminus" unicode="&#xb1;" horiz-adv-x="1706" 
d="M254 213h1198v-231h-1198v231zM735 1241h238v-319h479v-232h-479v-319h-238v319h-481v232h481v319z" />
    <glyph glyph-name="twosuperior" unicode="&#xb2;" horiz-adv-x="1026" 
d="M934 571l-879.001 -0.00292969v183c76 34 150 70.333 222 109s142 79.334 210 122.001c62.667 39.333 104.334 72.166 125.001 98.499s31 55.5 31 87.5c0 34.667 -12 60.834 -36 78.501s-59.667 26.5 -107 26.5c-46 0 -80.5 -10.167 -103.5 -30.5
s-35.167 -51.166 -36.5 -92.499h-278c0 94.667 35 166.5 105 215.5s173 73.5 309 73.5c137.333 0 244.333 -23.833 321 -71.5s115 -114.167 115 -199.5c0 -76.667 -38.167 -148.167 -114.5 -214.5s-207.5 -140.166 -393.5 -221.499h510v-164z" />
    <glyph glyph-name="threesuperior" unicode="&#xb3;" horiz-adv-x="1026" 
d="M422 932l-0.000976562 154.997h16c68.667 0 118.667 7.83301 150 23.5s47 40.834 47 75.501c0 32.667 -11.167 57.5 -33.5 74.5s-54.833 25.5 -97.5 25.5c-44 0 -78.5 -7.83301 -103.5 -23.5s-39.833 -38.5 -44.5 -68.5h-280
c7.33301 80.667 46.666 142.167 117.999 184.5s171.333 63.5 300 63.5c138 0 243.5 -21 316.5 -63s109.5 -103 109.5 -183c0 -50.667 -19.333 -91.667 -58 -123s-94 -51 -166 -59c80 -8 141.667 -30 185 -66s65 -83 65 -141c0 -84.667 -37.667 -147.5 -113 -188.5
s-190 -61.5 -344 -61.5c-147.333 0 -257.666 22 -330.999 66s-111.666 111.333 -114.999 202h285c1.33301 -37.333 16 -65.666 44 -84.999s68.667 -29 122 -29c51.333 0 91.333 10 120 30s43 48 43 84c0 38.667 -14.333 66.834 -43 84.501s-74.334 26.5 -137.001 26.5
c-9.33301 0 -25.333 -1 -48 -3c-3.33301 -0.666992 -5.66602 -1 -6.99902 -1z" />
    <glyph glyph-name="acute" unicode="&#xb4;" 
d="M305 1165l268 285h357l-447 -285h-178z" />
    <glyph glyph-name="mu" unicode="&#xb5;" horiz-adv-x="1315" 
d="M193 1090l357.999 -0.00292969l-80 -529c-4 -27.333 -7 -53.166 -9 -77.499s-3 -46.166 -3 -65.499c0 -56.667 11.833 -99.167 35.5 -127.5s59.5 -42.5 107.5 -42.5c58.667 0 104.834 22.833 138.501 68.5s58.5 119.167 74.5 220.5l88 553h357l-175 -1090h-321l18 125
c-26.667 -50 -56.5 -86 -89.5 -108s-72.833 -33 -119.5 -33c-39.333 0 -74.833 10.333 -106.5 31s-57.5 50.334 -77.5 89.001l-82 -532h-352z" />
    <glyph glyph-name="paragraph" unicode="&#xb6;" 
d="M997 1479v-123h-106v-1356h-176v1356h-150v-1356h-174v784c-109.333 4 -197 37.667 -263 101s-99 145 -99 245c0 105.333 35.333 189.833 106 253.5s165 95.5 283 95.5h579z" />
    <glyph glyph-name="periodcentered" unicode="&#xb7;" horiz-adv-x="778" 
d="M207 715c0 50 17.833 92.5 53.5 127.5s79.167 52.5 130.5 52.5c50 0 92.5 -17.5 127.5 -52.5s52.5 -77.5 52.5 -127.5c0 -50.667 -17.5 -94.167 -52.5 -130.5s-77.5 -54.5 -127.5 -54.5c-51.333 0 -94.833 18 -130.5 54s-53.5 79.667 -53.5 131z" />
    <glyph glyph-name="cedilla" unicode="&#xb8;" 
d="M219 -397l-0.000976562 115.999c74.667 -13.333 139 -23 193 -29s104.333 -9 151 -9c36 0 63.167 5.5 81.5 16.5s27.5 27.833 27.5 50.5c0 22 -11.333 37.833 -34 47.5s-62 14.5 -118 14.5c-18.667 0 -33.167 -0.166992 -43.5 -0.5s-20.5 -0.833008 -30.5 -1.5v192h111
v-82h31c100.667 0 176.667 -14.667 228 -44s77 -72.666 77 -129.999c0 -59.333 -27.333 -104.166 -82 -134.499s-134.667 -45.5 -240 -45.5c-48.667 0 -102.667 3.16699 -162 9.5s-122.666 16.166 -189.999 29.499z" />
    <glyph glyph-name="onesuperior" unicode="&#xb9;" horiz-adv-x="1026" 
d="M725 571l-270 0.000976562v623c-38 -22 -80.333 -41.5 -127 -58.5s-97.334 -31.5 -152.001 -43.5v200c58 19.333 112.833 40.166 164.5 62.499s99.834 46.5 144.501 72.5h240v-856z" />
    <glyph glyph-name="ordmasculine" unicode="&#xba;" horiz-adv-x="1155" 
d="M563 737c-165.333 0 -291.668 32.332 -379.001 96.999s-131 158 -131 280c0 122.667 44.833 216.5 134.5 281.5s218.834 97.5 387.501 97.5c170 0 300 -32.667 390 -98s135 -159.666 135 -282.999c0 -124 -45 -217.5 -135 -280.5s-224 -94.5 -402 -94.5zM579.998 896.999
c65.333 0 116.833 19.833 154.5 59.5s56.5 94.167 56.5 163.5c0 70.667 -19.167 126.334 -57.5 167.001s-90.166 61 -155.499 61c-68.667 0 -121.334 -19.667 -158.001 -59s-55 -95 -55 -167c0 -72.667 18.333 -128.334 55 -167.001s90 -58 160 -58z" />
    <glyph glyph-name="guillemotright" unicode="&#xbb;" horiz-adv-x="1214" 
d="M1139 514l-242 -393h-338l227 393l-227 393h338zM610 514l-241 -393h-336l227 393l-227 393h336z" />
    <glyph glyph-name="onequarter" unicode="&#xbc;" horiz-adv-x="2302" 
d="M2111 0h-251v168h-510v190l448 441h313v-482h166v-149h-166v-168zM1860 317l-0.000976562 301c-46.667 -53.333 -95.167 -105 -145.5 -155s-103.166 -98.667 -158.499 -146h304zM1454 1450h207l-817 -1475h-207zM689.999 627l-257.999 0.00195312v579
c-34 -18.667 -72.833 -35.834 -116.5 -51.501s-92.834 -29.834 -147.501 -42.501v186c60 21.333 114.167 42.333 162.5 63s92.5 42 132.5 64h227v-798z" />
    <glyph glyph-name="onehalf" unicode="&#xbd;" horiz-adv-x="2302" 
d="M2212 0l-837.999 0.000976562v170c74.667 33.333 146.167 68 214.5 104s134.166 73.667 197.499 113c60.667 37.333 100.667 68 120 92s29 50.667 29 80c0 32.667 -11.5 57.167 -34.5 73.5s-57.167 24.5 -102.5 24.5c-43.333 0 -76 -9.33301 -98 -28
s-33.667 -47.334 -35 -86.001h-266c0 88 33.333 154.667 100 200s165 68 295 68c131.333 0 233.5 -22 306.5 -66s109.5 -105.333 109.5 -184c0 -72 -36.333 -139 -109 -201s-197.667 -130.667 -375 -206h486v-154zM1454 1450h207l-817 -1475h-207zM690.001 627.001
l-257.999 0.00195312v579c-34 -18.667 -72.833 -35.834 -116.5 -51.501s-92.834 -29.834 -147.501 -42.501v186c60 21.333 114.167 42.333 162.5 63s92.5 42 132.5 64h227v-798z" />
    <glyph glyph-name="threequarters" unicode="&#xbe;" horiz-adv-x="2300" 
d="M2111 0h-251v168h-510v190l448 441h313v-482h166v-149h-166v-168zM1860 317l-0.000976562 301c-46.667 -53.333 -95.167 -105 -145.5 -155s-103.166 -98.667 -158.499 -146h304zM1454 1450h207l-817 -1475h-207zM402.999 965l0.00195312 142.997h15
c64.667 0 112.167 7.5 142.5 22.5s45.5 38.167 45.5 69.5c0 30.667 -10.5 54 -31.5 70s-52.167 24 -93.5 24s-74.166 -7.33301 -98.499 -22s-38.5 -36 -42.5 -64h-268c7.33301 74.667 45.166 131.667 113.499 171s163.5 59 285.5 59c131.333 0 231.833 -19.5 301.5 -58.5
s104.5 -95.5 104.5 -169.5c0 -47.333 -18.333 -85.666 -55 -114.999s-89.334 -47.666 -158.001 -54.999c76.667 -8 135.667 -28.667 177 -62s62 -77.333 62 -132c0 -78.667 -36 -137.334 -108 -176.001s-181.333 -58 -328 -58c-140 0 -245.167 20.833 -315.5 62.5
s-107.166 104.834 -110.499 189.501h272c1.33301 -34.667 15.333 -61 42 -79s65.334 -27 116.001 -27c49.333 0 87.666 9 114.999 27s41 43.667 41 77c0 36.667 -13.667 63.334 -41 80.001s-71 25 -131 25c-4.66699 0 -12.834 -0.333008 -24.501 -1s-20.834 -1 -27.501 -1z
" />
    <glyph glyph-name="questiondown" unicode="&#xbf;" horiz-adv-x="1262" 
d="M979 1475v-318h-383v318h383zM967 1049c0 -6.66699 0.333008 -15.999 1 -27.999s1 -20.667 1 -26c0 -76 -10.5 -137.333 -31.5 -184s-58.5 -91 -112.5 -133c-29.333 -23.333 -72.666 -53.333 -129.999 -90c-116.667 -74 -175 -140.333 -175 -199
c0 -49.333 23 -87.166 69 -113.499s111.667 -39.5 197 -39.5c65.333 0 131.666 5.5 198.999 16.5s135.666 27.833 204.999 50.5v-283c-82.667 -14.667 -161.5 -25.834 -236.5 -33.501s-147.833 -11.5 -218.5 -11.5c-205.333 0 -360.666 33.333 -465.999 100
s-158 164.667 -158 294c0 74 17.167 138.167 51.5 192.5s92.833 108.166 175.5 161.499l46 29c148 92 222 185.333 222 280v17h361z" />
    <glyph glyph-name="Agrave" unicode="&#xc0;" horiz-adv-x="1868" 
d="M662 584h530l-252 567zM-57 0l768 1475h499l723 -1475h-475l-131 299h-803l-137 -299h-444zM1165 1611h-178l-447 285h357z" />
    <glyph glyph-name="Aacute" unicode="&#xc1;" horiz-adv-x="1868" 
d="M662 584h530l-252 567zM-57 0l768 1475h499l723 -1475h-475l-131 299h-803l-137 -299h-444zM751 1611l268 285h357l-447 -285h-178z" />
    <glyph glyph-name="Acircumflex" unicode="&#xc2;" horiz-adv-x="1868" 
d="M662 584h530l-252 567zM-57 0l768 1475h499l723 -1475h-475l-131 299h-803l-137 -299h-444zM542 1611l269 285h294l269 -285h-178l-238 160l-238 -160h-178z" />
    <glyph glyph-name="Atilde" unicode="&#xc3;" horiz-adv-x="1868" 
d="M662 584h530l-252 567zM-57 0l768 1475h499l723 -1475h-475l-131 299h-803l-137 -299h-444zM1370 1880c-17.333 -72 -49.8311 -127.665 -97.498 -166.998s-106.167 -59 -175.5 -59c-14 0 -27.5 0.666992 -40.5 2s-25.5 3.66602 -37.5 6.99902l-173 32
c-8 2 -16.5 3.5 -25.5 4.5s-18.5 1.5 -28.5 1.5c-31.333 0 -56.666 -5.66699 -75.999 -17s-34.333 -29.333 -45 -54h-125c22 73.333 54.667 128.166 98 164.499s99 54.5 167 54.5c14.667 0 29.167 -0.666992 43.5 -2s28.5 -3.33301 42.5 -6l163 -33
c9.33301 -2 19.666 -3.5 30.999 -4.5s23.666 -1.5 36.999 -1.5c28.667 0 52.667 6.5 72 19.5s33.666 32.5 42.999 58.5h127z" />
    <glyph glyph-name="Adieresis" unicode="&#xc4;" horiz-adv-x="1868" 
d="M662 584h530l-252 567zM-57 0l768 1475h499l723 -1475h-475l-131 299h-803l-137 -299h-444zM1040 1636v237h291v-237h-291zM585 1636v237h291v-237h-291z" />
    <glyph glyph-name="Aring" unicode="&#xc5;" horiz-adv-x="1868" 
d="M1288 1739c0 -64 -28.167 -113.166 -84.5 -147.499s-137.166 -51.5 -242.499 -51.5c-106.667 0 -188.334 17.167 -245.001 51.5s-85 83.5 -85 147.5c0 63.333 28.333 112.166 85 146.499s138.334 51.5 245.001 51.5c105.333 0 186.166 -17 242.499 -51
s84.5 -83 84.5 -147zM1085 1741c0 40.667 -9.83301 70.333 -29.5 89s-51.167 28 -94.5 28c-44 0 -76.167 -9.5 -96.5 -28.5s-30.5 -48.5 -30.5 -88.5c0 -41.333 10.333 -71.833 31 -91.5s52.667 -29.5 96 -29.5c42.667 0 74 9.83301 94 29.5s30 50.167 30 91.5zM-57 0
l768 1475h499l723 -1475h-475l-131 299h-803l-137 -299h-444zM662 584h530l-252 567z" />
    <glyph glyph-name="AE" unicode="&#xc6;" horiz-adv-x="2511" 
d="M664 545h528l-156 616zM1264 260h-770l-160 -260h-469l975 1475h1577v-314h-963l66 -256h854v-307h-777l72 -285h768v-313h-1108z" />
    <glyph glyph-name="Ccedilla" unicode="&#xc7;" horiz-adv-x="1712" 
d="M1644 514c-6 -176.667 -70.168 -310.668 -192.501 -402.001s-298.833 -137 -529.5 -137c-271.333 0 -478.166 65 -620.499 195s-213.5 318.333 -213.5 565s72.833 434.667 218.5 564s357.5 194 635.5 194c218.667 0 385.5 -41.667 500.5 -125
s180.167 -209.666 195.5 -378.999h-421c-11.333 68.667 -42.5 120.667 -93.5 156s-120.5 53 -208.5 53c-136 0 -236.833 -37.167 -302.5 -111.5s-98.5 -188.833 -98.5 -343.5c0 -156 31.5 -272.833 94.5 -350.5s157.833 -116.5 284.5 -116.5
c101.333 0 178.5 19.333 231.5 58s85.167 98.667 96.5 180h423zM562.999 -397.001l-0.000976562 115.999c74.667 -13.333 139 -23 193 -29s104.333 -9 151 -9c36 0 63.167 5.5 81.5 16.5s27.5 27.833 27.5 50.5c0 22 -11.333 37.833 -34 47.5s-62 14.5 -118 14.5
c-18.667 0 -33.167 -0.166992 -43.5 -0.5s-20.5 -0.833008 -30.5 -1.5v192h111v-82h31c100.667 0 176.667 -14.667 228 -44s77 -72.666 77 -129.999c0 -59.333 -27.333 -104.166 -82 -134.499s-134.667 -45.5 -240 -45.5c-48.667 0 -102.667 3.16699 -162 9.5
s-122.666 16.166 -189.999 29.499z" />
    <glyph glyph-name="Egrave" unicode="&#xc8;" horiz-adv-x="1518" 
d="M166 0v1475h1255v-314h-848v-256h807v-303h-807v-285h871v-317h-1278zM1016 1611h-178l-447 285h357z" />
    <glyph glyph-name="Eacute" unicode="&#xc9;" horiz-adv-x="1518" 
d="M166 0v1475h1255v-314h-848v-256h807v-303h-807v-285h871v-317h-1278zM602 1611l268 285h357l-447 -285h-178z" />
    <glyph glyph-name="Ecircumflex" unicode="&#xca;" horiz-adv-x="1518" 
d="M166 0v1475h1255v-314h-848v-256h807v-303h-807v-285h871v-317h-1278zM393 1611l269 285h294l269 -285h-178l-238 160l-238 -160h-178z" />
    <glyph glyph-name="Edieresis" unicode="&#xcb;" horiz-adv-x="1518" 
d="M166 0v1475h1255v-314h-848v-256h807v-303h-807v-285h871v-317h-1278zM891 1636v237h291v-237h-291zM436 1636v237h291v-237h-291z" />
    <glyph glyph-name="Igrave" unicode="&#xcc;" horiz-adv-x="768" 
d="M172 0v1475h422v-1475h-422zM592 1611h-178l-447 285h357z" />
    <glyph glyph-name="Iacute" unicode="&#xcd;" horiz-adv-x="768" 
d="M172 0v1475h422v-1475h-422zM178 1611l268 285h357l-447 -285h-178z" />
    <glyph glyph-name="Icircumflex" unicode="&#xce;" horiz-adv-x="768" 
d="M172 0v1475h422v-1475h-422zM-31 1611l269 285h294l269 -285h-178l-238 160l-238 -160h-178z" />
    <glyph glyph-name="Idieresis" unicode="&#xcf;" horiz-adv-x="768" 
d="M172 0v1475h422v-1475h-422zM467 1636v237h291v-237h-291zM12 1636v237h291v-237h-291z" />
    <glyph glyph-name="Eth" unicode="&#xd0;" horiz-adv-x="1925" 
d="M176 0v633h-166v219h166v623h744c144.667 0 260.667 -8.5 348 -25.5s165 -44.833 233 -83.5c106.667 -60 188.667 -145.667 246 -257s86 -240.666 86 -387.999c0 -142 -27.5 -266.167 -82.5 -372.5s-134.167 -188.5 -237.5 -246.5
c-64.667 -36.667 -137.5 -62.834 -218.5 -78.501s-205.833 -23.5 -374.5 -23.5h-744zM858 1151l-270 0.000976562v-299h336v-219h-336v-311h270c189.333 0 326.833 32.333 412.5 97s128.5 168.667 128.5 312c0 141.333 -44.833 246.666 -134.5 315.999
s-225.167 104 -406.5 104z" />
    <glyph glyph-name="Ntilde" unicode="&#xd1;" horiz-adv-x="1913" 
d="M158 0v1475h547l675 -1061v1061h375v-1475h-549l-674 1057v-1057h-374zM1368 1880c-17.333 -72 -49.8311 -127.665 -97.498 -166.998s-106.167 -59 -175.5 -59c-14 0 -27.5 0.666992 -40.5 2s-25.5 3.66602 -37.5 6.99902l-173 32c-8 2 -16.5 3.5 -25.5 4.5
s-18.5 1.5 -28.5 1.5c-31.333 0 -56.666 -5.66699 -75.999 -17s-34.333 -29.333 -45 -54h-125c22 73.333 54.667 128.166 98 164.499s99 54.5 167 54.5c14.667 0 29.167 -0.666992 43.5 -2s28.5 -3.33301 42.5 -6l163 -33c9.33301 -2 19.666 -3.5 30.999 -4.5
s23.666 -1.5 36.999 -1.5c28.667 0 52.667 6.5 72 19.5s33.666 32.5 42.999 58.5h127z" />
    <glyph glyph-name="Ograve" unicode="&#xd2;" horiz-adv-x="1952" 
d="M518 723c0 -154.667 37.8311 -270.833 113.498 -348.5s188.834 -116.5 339.501 -116.5c153.333 0 268.5 38.167 345.5 114.5s115.5 190.5 115.5 342.5c0 163.333 -39.667 287.833 -119 373.5s-194.666 128.5 -345.999 128.5c-142 0 -252.333 -43.333 -331 -130
s-118 -208 -118 -364zM949.998 -26.999c-276.667 0 -489.5 66.332 -638.5 198.999s-223.5 322.334 -223.5 569.001c0 238.667 79.167 424.667 237.5 558s379.5 200 663.5 200c281.333 0 497.5 -66.667 648.5 -200s226.5 -324 226.5 -572
c0 -244.667 -77.833 -431.5 -233.5 -560.5s-382.5 -193.5 -680.5 -193.5zM1184 1611h-178l-447 285h357z" />
    <glyph glyph-name="Oacute" unicode="&#xd3;" horiz-adv-x="1952" 
d="M518 723c0 -154.667 37.8311 -270.833 113.498 -348.5s188.834 -116.5 339.501 -116.5c153.333 0 268.5 38.167 345.5 114.5s115.5 190.5 115.5 342.5c0 163.333 -39.667 287.833 -119 373.5s-194.666 128.5 -345.999 128.5c-142 0 -252.333 -43.333 -331 -130
s-118 -208 -118 -364zM949.998 -26.999c-276.667 0 -489.5 66.332 -638.5 198.999s-223.5 322.334 -223.5 569.001c0 238.667 79.167 424.667 237.5 558s379.5 200 663.5 200c281.333 0 497.5 -66.667 648.5 -200s226.5 -324 226.5 -572
c0 -244.667 -77.833 -431.5 -233.5 -560.5s-382.5 -193.5 -680.5 -193.5zM769.998 1611l268 285h357l-447 -285h-178z" />
    <glyph glyph-name="Ocircumflex" unicode="&#xd4;" horiz-adv-x="1952" 
d="M518 723c0 -154.667 37.8311 -270.833 113.498 -348.5s188.834 -116.5 339.501 -116.5c153.333 0 268.5 38.167 345.5 114.5s115.5 190.5 115.5 342.5c0 163.333 -39.667 287.833 -119 373.5s-194.666 128.5 -345.999 128.5c-142 0 -252.333 -43.333 -331 -130
s-118 -208 -118 -364zM949.998 -26.999c-276.667 0 -489.5 66.332 -638.5 198.999s-223.5 322.334 -223.5 569.001c0 238.667 79.167 424.667 237.5 558s379.5 200 663.5 200c281.333 0 497.5 -66.667 648.5 -200s226.5 -324 226.5 -572
c0 -244.667 -77.833 -431.5 -233.5 -560.5s-382.5 -193.5 -680.5 -193.5zM560.998 1611l269 285h294l269 -285h-178l-238 160l-238 -160h-178z" />
    <glyph glyph-name="Otilde" unicode="&#xd5;" horiz-adv-x="1952" 
d="M518 723c0 -154.667 37.8311 -270.833 113.498 -348.5s188.834 -116.5 339.501 -116.5c153.333 0 268.5 38.167 345.5 114.5s115.5 190.5 115.5 342.5c0 163.333 -39.667 287.833 -119 373.5s-194.666 128.5 -345.999 128.5c-142 0 -252.333 -43.333 -331 -130
s-118 -208 -118 -364zM949.998 -26.999c-276.667 0 -489.5 66.332 -638.5 198.999s-223.5 322.334 -223.5 569.001c0 238.667 79.167 424.667 237.5 558s379.5 200 663.5 200c281.333 0 497.5 -66.667 648.5 -200s226.5 -324 226.5 -572
c0 -244.667 -77.833 -431.5 -233.5 -560.5s-382.5 -193.5 -680.5 -193.5zM1389 1880c-17.333 -72 -49.8311 -127.665 -97.498 -166.998s-106.167 -59 -175.5 -59c-14 0 -27.5 0.666992 -40.5 2s-25.5 3.66602 -37.5 6.99902l-173 32c-8 2 -16.5 3.5 -25.5 4.5
s-18.5 1.5 -28.5 1.5c-31.333 0 -56.666 -5.66699 -75.999 -17s-34.333 -29.333 -45 -54h-125c22 73.333 54.667 128.166 98 164.499s99 54.5 167 54.5c14.667 0 29.167 -0.666992 43.5 -2s28.5 -3.33301 42.5 -6l163 -33c9.33301 -2 19.666 -3.5 30.999 -4.5
s23.666 -1.5 36.999 -1.5c28.667 0 52.667 6.5 72 19.5s33.666 32.5 42.999 58.5h127z" />
    <glyph glyph-name="Odieresis" unicode="&#xd6;" horiz-adv-x="1952" 
d="M518 723c0 -154.667 37.8311 -270.833 113.498 -348.5s188.834 -116.5 339.501 -116.5c153.333 0 268.5 38.167 345.5 114.5s115.5 190.5 115.5 342.5c0 163.333 -39.667 287.833 -119 373.5s-194.666 128.5 -345.999 128.5c-142 0 -252.333 -43.333 -331 -130
s-118 -208 -118 -364zM949.998 -26.999c-276.667 0 -489.5 66.332 -638.5 198.999s-223.5 322.334 -223.5 569.001c0 238.667 79.167 424.667 237.5 558s379.5 200 663.5 200c281.333 0 497.5 -66.667 648.5 -200s226.5 -324 226.5 -572
c0 -244.667 -77.833 -431.5 -233.5 -560.5s-382.5 -193.5 -680.5 -193.5zM1059 1636v237h291v-237h-291zM603.998 1636v237h291v-237h-291z" />
    <glyph glyph-name="multiply" unicode="&#xd7;" horiz-adv-x="1706" 
d="M430 1214l440 -440l441 440l162 -161l-441 -443l441 -440l-162 -162l-441 441l-440 -441l-162 162l441 440l-441 443z" />
    <glyph glyph-name="Oslash" unicode="&#xd8;" horiz-adv-x="1952" 
d="M172 -47l172.002 193.998c-87.333 68.667 -151.833 150.334 -193.5 245.001s-62.5 207.667 -62.5 339c0 244 78.167 433 234.5 567s377.166 201 662.499 201c96 0 183.667 -7.33301 263 -22s152 -36.667 218 -66l183 207l112 -92l-166 -191
c90.667 -64 158.167 -145.667 202.5 -245s66.5 -217.666 66.5 -354.999c0 -248.667 -77.667 -438.167 -233 -568.5s-382.333 -195.5 -681 -195.5c-98 0 -186.333 7.83301 -265 23.5s-149.334 39.5 -212.001 71.5l-188 -209zM690.002 312.998c36.667 -22 78 -38.667 124 -50
s96.333 -17 151 -17c155.333 0 274 39.333 356 118s123 193 123 343c0 74.667 -8 141.5 -24 200.5s-39.333 108.833 -70 149.5zM584.002 415.998l657 741c-37.333 23.333 -78.166 40.5 -122.499 51.5s-94.833 16.5 -151.5 16.5c-144.667 0 -257.334 -44 -338.001 -132
s-121 -210.667 -121 -368c0 -68.667 6.33301 -129 19 -181s31.667 -94.667 57 -128z" />
    <glyph glyph-name="Ugrave" unicode="&#xd9;" horiz-adv-x="1907" 
d="M162 1475h428v-832c0 -120 29.333 -209.333 88 -268s148 -88 268 -88c126 0 219.333 29.167 280 87.5s91 147.833 91 268.5v832h428v-834c0 -230.667 -64.167 -399.334 -192.5 -506.001s-331.166 -160 -608.499 -160c-132 0 -248.667 13.333 -350 40
s-183.333 65.334 -246 116.001c-66.667 54.667 -114.334 120.5 -143.001 197.5s-43 181.167 -43 312.5v834zM1161 1611h-178l-447 285h357z" />
    <glyph glyph-name="Uacute" unicode="&#xda;" horiz-adv-x="1907" 
d="M162 1475h428v-832c0 -120 29.333 -209.333 88 -268s148 -88 268 -88c126 0 219.333 29.167 280 87.5s91 147.833 91 268.5v832h428v-834c0 -230.667 -64.167 -399.334 -192.5 -506.001s-331.166 -160 -608.499 -160c-132 0 -248.667 13.333 -350 40
s-183.333 65.334 -246 116.001c-66.667 54.667 -114.334 120.5 -143.001 197.5s-43 181.167 -43 312.5v834zM747 1611l268 285h357l-447 -285h-178z" />
    <glyph glyph-name="Ucircumflex" unicode="&#xdb;" horiz-adv-x="1907" 
d="M162 1475h428v-832c0 -120 29.333 -209.333 88 -268s148 -88 268 -88c126 0 219.333 29.167 280 87.5s91 147.833 91 268.5v832h428v-834c0 -230.667 -64.167 -399.334 -192.5 -506.001s-331.166 -160 -608.499 -160c-132 0 -248.667 13.333 -350 40
s-183.333 65.334 -246 116.001c-66.667 54.667 -114.334 120.5 -143.001 197.5s-43 181.167 -43 312.5v834zM538 1611l269 285h294l269 -285h-178l-238 160l-238 -160h-178z" />
    <glyph glyph-name="Udieresis" unicode="&#xdc;" horiz-adv-x="1907" 
d="M162 1475h428v-832c0 -120 29.333 -209.333 88 -268s148 -88 268 -88c126 0 219.333 29.167 280 87.5s91 147.833 91 268.5v832h428v-834c0 -230.667 -64.167 -399.334 -192.5 -506.001s-331.166 -160 -608.499 -160c-132 0 -248.667 13.333 -350 40
s-183.333 65.334 -246 116.001c-66.667 54.667 -114.334 120.5 -143.001 197.5s-43 181.167 -43 312.5v834zM1036 1636v237h291v-237h-291zM581 1636v237h291v-237h-291z" />
    <glyph glyph-name="Yacute" unicode="&#xdd;" horiz-adv-x="1548" 
d="M567 0v530l-665 945h493l410 -611l391 611h455l-666 -951v-524h-418zM567 1611l268 285h357l-447 -285h-178z" />
    <glyph glyph-name="Thorn" unicode="&#xde;" horiz-adv-x="1597" 
d="M827 969h-254.002v-375h254c116.667 0 196.834 14.167 240.501 42.5s65.5 77.5 65.5 147.5c0 68.667 -21.667 116.667 -65 144s-123.666 41 -240.999 41zM165.998 1475l406.999 -0.00195312v-215h355c107.333 0 192.5 -5.83301 255.5 -17.5s117.833 -30.5 164.5 -56.5
c66.667 -37.333 117.334 -90.166 152.001 -158.499s52 -149.5 52 -243.5s-17.667 -175.333 -53 -244s-87.333 -121 -156 -157c-48 -25.333 -104 -43.666 -168 -54.999s-161.333 -17 -292 -17h-62h-248v-311h-407v1475z" />
    <glyph glyph-name="germandbls" unicode="&#xdf;" horiz-adv-x="1536" 
d="M135 0l-0.000976562 974.998c0 96 5.5 166.833 16.5 212.5s29.5 84.834 55.5 117.501c50.667 62.667 117.667 110 201 142s182.333 48 297 48c164 0 294.667 -30.167 392 -90.5s146 -140.833 146 -241.5c0 -44 -9.16699 -81.833 -27.5 -113.5
s-50.833 -64.834 -97.5 -99.501c-5.33301 -4 -13.333 -9.66699 -24 -17c-72.667 -51.333 -109 -94.666 -109 -129.999c0 -42.667 56.333 -86.334 169 -131.001c18.667 -7.33301 32.667 -13 42 -17c123.333 -49.333 206.333 -98.166 249 -146.499s64 -111.5 64 -189.5
c0 -114 -37.333 -199.833 -112 -257.5s-186 -86.5 -334 -86.5c-154.667 0 -268.167 26 -340.5 78s-108.5 134 -108.5 246v10h332v-6c0 -39.333 10.667 -69 32 -89s53 -30 95 -30c32.667 0 59 9.5 79 28.5s30 43.833 30 74.5c0 58.667 -58.667 108.334 -176 149.001
c-36.667 12.667 -65.334 23 -86.001 31c-101.333 38.667 -176.166 83.334 -224.499 134.001s-72.5 109.667 -72.5 177c0 38.667 8.5 72.167 25.5 100.5s47.5 57.833 91.5 88.5l29 20c67.333 45.333 101 88.333 101 129c0 47.333 -16.333 86.166 -49 116.499
s-75 45.5 -127 45.5c-61.333 0 -105.666 -15.667 -132.999 -47s-41 -83.333 -41 -156v-1075h-385z" />
    <glyph glyph-name="agrave" unicode="&#xe0;" horiz-adv-x="1440" 
d="M926 459l-31 -0.000976562c-162.667 0 -276 -11 -340 -33s-96 -59.667 -96 -113c0 -38 16.333 -66.5 49 -85.5s81.667 -28.5 147 -28.5c87.333 0 154.333 20.333 201 61s70 99.334 70 176.001v23zM936 151.999c-42.667 -57.333 -104.999 -101.166 -186.999 -131.499
s-179.333 -45.5 -292 -45.5c-130 0 -230.5 27.167 -301.5 81.5s-106.5 131.166 -106.5 230.499c0 62 13.667 117.667 41 167s67 89.666 119 120.999c41.333 26 99.166 44.5 173.499 55.5s191.833 16.5 352.5 16.5h191c0 4 0.333008 9.16699 1 15.5s1 10.833 1 13.5
c0 56 -16.5 98.667 -49.5 128s-80.833 44 -143.5 44c-71.333 0 -124.333 -9.83301 -159 -29.5s-55.334 -51.5 -62.001 -95.5h-399c12.667 112.667 69.834 195.834 171.501 249.501s253.167 80.5 454.5 80.5c194 0 336.833 -32 428.5 -96s137.5 -163.333 137.5 -298v-524
c0 -28.667 1.5 -53.667 4.5 -75s8.16699 -41.333 15.5 -60h-366c-8.66699 18.667 -15 39 -19 61s-6 46 -6 72v19zM928.001 1165h-178l-447 285h357z" />
    <glyph glyph-name="aacute" unicode="&#xe1;" horiz-adv-x="1440" 
d="M926 459l-31 -0.000976562c-162.667 0 -276 -11 -340 -33s-96 -59.667 -96 -113c0 -38 16.333 -66.5 49 -85.5s81.667 -28.5 147 -28.5c87.333 0 154.333 20.333 201 61s70 99.334 70 176.001v23zM936 151.999c-42.667 -57.333 -104.999 -101.166 -186.999 -131.499
s-179.333 -45.5 -292 -45.5c-130 0 -230.5 27.167 -301.5 81.5s-106.5 131.166 -106.5 230.499c0 62 13.667 117.667 41 167s67 89.666 119 120.999c41.333 26 99.166 44.5 173.499 55.5s191.833 16.5 352.5 16.5h191c0 4 0.333008 9.16699 1 15.5s1 10.833 1 13.5
c0 56 -16.5 98.667 -49.5 128s-80.833 44 -143.5 44c-71.333 0 -124.333 -9.83301 -159 -29.5s-55.334 -51.5 -62.001 -95.5h-399c12.667 112.667 69.834 195.834 171.501 249.501s253.167 80.5 454.5 80.5c194 0 336.833 -32 428.5 -96s137.5 -163.333 137.5 -298v-524
c0 -28.667 1.5 -53.667 4.5 -75s8.16699 -41.333 15.5 -60h-366c-8.66699 18.667 -15 39 -19 61s-6 46 -6 72v19zM514.001 1165l268 285h357l-447 -285h-178z" />
    <glyph glyph-name="acircumflex" unicode="&#xe2;" horiz-adv-x="1440" 
d="M926 459l-31 -0.000976562c-162.667 0 -276 -11 -340 -33s-96 -59.667 -96 -113c0 -38 16.333 -66.5 49 -85.5s81.667 -28.5 147 -28.5c87.333 0 154.333 20.333 201 61s70 99.334 70 176.001v23zM936 151.999c-42.667 -57.333 -104.999 -101.166 -186.999 -131.499
s-179.333 -45.5 -292 -45.5c-130 0 -230.5 27.167 -301.5 81.5s-106.5 131.166 -106.5 230.499c0 62 13.667 117.667 41 167s67 89.666 119 120.999c41.333 26 99.166 44.5 173.499 55.5s191.833 16.5 352.5 16.5h191c0 4 0.333008 9.16699 1 15.5s1 10.833 1 13.5
c0 56 -16.5 98.667 -49.5 128s-80.833 44 -143.5 44c-71.333 0 -124.333 -9.83301 -159 -29.5s-55.334 -51.5 -62.001 -95.5h-399c12.667 112.667 69.834 195.834 171.501 249.501s253.167 80.5 454.5 80.5c194 0 336.833 -32 428.5 -96s137.5 -163.333 137.5 -298v-524
c0 -28.667 1.5 -53.667 4.5 -75s8.16699 -41.333 15.5 -60h-366c-8.66699 18.667 -15 39 -19 61s-6 46 -6 72v19zM305.001 1165l269 285h294l269 -285h-178l-238 160l-238 -160h-178z" />
    <glyph glyph-name="atilde" unicode="&#xe3;" horiz-adv-x="1440" 
d="M926 459l-31 -0.000976562c-162.667 0 -276 -11 -340 -33s-96 -59.667 -96 -113c0 -38 16.333 -66.5 49 -85.5s81.667 -28.5 147 -28.5c87.333 0 154.333 20.333 201 61s70 99.334 70 176.001v23zM936 151.999c-42.667 -57.333 -104.999 -101.166 -186.999 -131.499
s-179.333 -45.5 -292 -45.5c-130 0 -230.5 27.167 -301.5 81.5s-106.5 131.166 -106.5 230.499c0 62 13.667 117.667 41 167s67 89.666 119 120.999c41.333 26 99.166 44.5 173.499 55.5s191.833 16.5 352.5 16.5h191c0 4 0.333008 9.16699 1 15.5s1 10.833 1 13.5
c0 56 -16.5 98.667 -49.5 128s-80.833 44 -143.5 44c-71.333 0 -124.333 -9.83301 -159 -29.5s-55.334 -51.5 -62.001 -95.5h-399c12.667 112.667 69.834 195.834 171.501 249.501s253.167 80.5 454.5 80.5c194 0 336.833 -32 428.5 -96s137.5 -163.333 137.5 -298v-524
c0 -28.667 1.5 -53.667 4.5 -75s8.16699 -41.333 15.5 -60h-366c-8.66699 18.667 -15 39 -19 61s-6 46 -6 72v19zM1133 1434c-17.333 -72 -49.8311 -127.665 -97.498 -166.998s-106.167 -59 -175.5 -59c-14 0 -27.5 0.666992 -40.5 2s-25.5 3.66602 -37.5 6.99902l-173 32
c-8 2 -16.5 3.5 -25.5 4.5s-18.5 1.5 -28.5 1.5c-31.333 0 -56.666 -5.66699 -75.999 -17s-34.333 -29.333 -45 -54h-125c22 73.333 54.667 128.166 98 164.499s99 54.5 167 54.5c14.667 0 29.167 -0.666992 43.5 -2s28.5 -3.33301 42.5 -6l163 -33
c9.33301 -2 19.666 -3.5 30.999 -4.5s23.666 -1.5 36.999 -1.5c28.667 0 52.667 6.5 72 19.5s33.666 32.5 42.999 58.5h127z" />
    <glyph glyph-name="adieresis" unicode="&#xe4;" horiz-adv-x="1440" 
d="M926 459l-31 -0.000976562c-162.667 0 -276 -11 -340 -33s-96 -59.667 -96 -113c0 -38 16.333 -66.5 49 -85.5s81.667 -28.5 147 -28.5c87.333 0 154.333 20.333 201 61s70 99.334 70 176.001v23zM936 151.999c-42.667 -57.333 -104.999 -101.166 -186.999 -131.499
s-179.333 -45.5 -292 -45.5c-130 0 -230.5 27.167 -301.5 81.5s-106.5 131.166 -106.5 230.499c0 62 13.667 117.667 41 167s67 89.666 119 120.999c41.333 26 99.166 44.5 173.499 55.5s191.833 16.5 352.5 16.5h191c0 4 0.333008 9.16699 1 15.5s1 10.833 1 13.5
c0 56 -16.5 98.667 -49.5 128s-80.833 44 -143.5 44c-71.333 0 -124.333 -9.83301 -159 -29.5s-55.334 -51.5 -62.001 -95.5h-399c12.667 112.667 69.834 195.834 171.501 249.501s253.167 80.5 454.5 80.5c194 0 336.833 -32 428.5 -96s137.5 -163.333 137.5 -298v-524
c0 -28.667 1.5 -53.667 4.5 -75s8.16699 -41.333 15.5 -60h-366c-8.66699 18.667 -15 39 -19 61s-6 46 -6 72v19zM803.001 1190v237h291v-237h-291zM348.001 1190v237h291v-237h-291z" />
    <glyph glyph-name="aring" unicode="&#xe5;" horiz-adv-x="1440" 
d="M1067 1319c0 -64 -28.5 -113.167 -85.5 -147.5s-138.5 -51.5 -244.5 -51.5c-105.333 0 -186.166 17.167 -242.499 51.5s-84.5 83.5 -84.5 147.5s28.167 113.167 84.5 147.5s137.166 51.5 242.499 51.5c106 0 187.5 -17.167 244.5 -51.5s85.5 -83.5 85.5 -147.5zM864 1319
c0 40.667 -10.333 70.667 -31 90s-52.667 29 -96 29c-42.667 0 -74.167 -9.66699 -94.5 -29s-30.5 -49.333 -30.5 -90c0 -41.333 10.167 -71.5 30.5 -90.5s51.833 -28.5 94.5 -28.5c43.333 0 75.333 9.66699 96 29s31 49.333 31 90zM936 152
c-42.667 -57.333 -104.999 -101.166 -186.999 -131.499s-179.333 -45.5 -292 -45.5c-130 0 -230.5 27.167 -301.5 81.5s-106.5 131.166 -106.5 230.499c0 62 13.667 117.667 41 167s67 89.666 119 120.999c41.333 26 99.166 44.5 173.499 55.5s191.833 16.5 352.5 16.5h191
c0 4 0.333008 9.16699 1 15.5s1 10.833 1 13.5c0 56 -16.5 98.667 -49.5 128s-80.833 44 -143.5 44c-71.333 0 -124.333 -9.83301 -159 -29.5s-55.334 -51.5 -62.001 -95.5h-399c12.667 112.667 69.834 195.834 171.501 249.501s253.167 80.5 454.5 80.5
c194 0 336.833 -32 428.5 -96s137.5 -163.333 137.5 -298v-524c0 -28.667 1.5 -53.667 4.5 -75s8.16699 -41.333 15.5 -60h-366c-8.66699 18.667 -15 39 -19 61s-6 46 -6 72v19zM926.001 459l-31 -0.000976562c-162.667 0 -276 -11 -340 -33s-96 -59.667 -96 -113
c0 -38 16.333 -66.5 49 -85.5s81.667 -28.5 147 -28.5c87.333 0 154.333 20.333 201 61s70 99.334 70 176.001v23z" />
    <glyph glyph-name="ae" unicode="&#xe6;" horiz-adv-x="2245" 
d="M1810 629c-0.666992 64 -24 115.501 -70 154.501s-107.333 58.5 -184 58.5c-73.333 0 -132.333 -19.333 -177 -58s-68 -90.334 -70 -155.001h501zM2198 459.001h-890.995v-4c0 -84 24.5 -150.167 73.5 -198.5s116.5 -72.5 202.5 -72.5
c57.333 0 105.166 13.333 143.499 40s60.166 61.334 65.499 104.001h385c-7.33301 -110 -61.333 -196.333 -162 -259s-236.334 -94 -407.001 -94c-131.333 0 -238 15.5 -320 46.5s-143.333 79.167 -184 144.5c-62.667 -64 -142 -111.833 -238 -143.5s-210 -47.5 -342 -47.5
c-158.667 0 -278.167 26 -358.5 78s-120.5 129.333 -120.5 232c0 58.667 13.833 111 41.5 157s68.5 84.333 122.5 115c45.333 26 104.333 44.5 177 55.5s189 16.5 349 16.5l190 2c1.33301 5.33301 2.16602 10.666 2.49902 15.999s0.5 13 0.5 23
c0 62 -17.167 107.167 -51.5 135.5s-88.833 42.5 -163.5 42.5c-60 0 -106.5 -10.333 -139.5 -31s-52.833 -52 -59.5 -94h-399c13.333 110.667 68.166 193.334 164.499 248.001s234.5 82 414.5 82c118 0 210 -10.833 276 -32.5s122.333 -57.5 169 -107.5
c51.333 47.333 115 82.5 191 105.5s165 34.5 267 34.5c198.667 0 348.5 -49.333 449.5 -148s151.5 -245.334 151.5 -440.001v-6zM926.005 459.001l-33 -0.000976562c-164 0 -277.333 -11 -340 -33s-94 -59.667 -94 -113c0 -38 16.333 -66.5 49 -85.5s81.667 -28.5 147 -28.5
c87.333 0 154.333 20.333 201 61s70 99.334 70 176.001v23z" />
    <glyph glyph-name="ccedilla" unicode="&#xe7;" horiz-adv-x="1434" 
d="M961 666c-8.66699 56 -31.6689 98.001 -69.002 126.001s-89.666 42 -156.999 42c-81.333 0 -144.333 -28.833 -189 -86.5s-67 -138.834 -67 -243.501c0 -94.667 21.833 -167.167 65.5 -217.5s106.5 -75.5 188.5 -75.5c74.667 0 131.334 16.167 170.001 48.5
s58.667 79.5 60 141.5h405c-7.33301 -143.333 -63.166 -249.833 -167.499 -319.5s-261.5 -104.5 -471.5 -104.5c-212.667 0 -375.334 44.833 -488.001 134.5s-169 218.5 -169 386.5c0 177.333 58.5 314.833 175.5 412.5s282.833 146.5 497.5 146.5
c185.333 0 329.833 -33.333 433.5 -100s162.167 -163.667 175.5 -291h-393zM423.998 -396.999l-0.000976562 115.999c74.667 -13.333 139 -23 193 -29s104.333 -9 151 -9c36 0 63.167 5.5 81.5 16.5s27.5 27.833 27.5 50.5c0 22 -11.333 37.833 -34 47.5s-62 14.5 -118 14.5
c-18.667 0 -33.167 -0.166992 -43.5 -0.5s-20.5 -0.833008 -30.5 -1.5v192h111v-82h31c100.667 0 176.667 -14.667 228 -44s77 -72.666 77 -129.999c0 -59.333 -27.333 -104.166 -82 -134.499s-134.667 -45.5 -240 -45.5c-48.667 0 -102.667 3.16699 -162 9.5
s-122.666 16.166 -189.999 29.499z" />
    <glyph glyph-name="egrave" unicode="&#xe8;" horiz-adv-x="1417" 
d="M1335 328c-9.33301 -115.333 -65.8311 -203 -169.498 -263s-251.167 -90 -442.5 -90c-208.667 0 -369.334 45.167 -482.001 135.5s-169 219.5 -169 387.5c0 177.333 58.5 314.833 175.5 412.5s282.833 146.5 497.5 146.5c202.667 0 355.167 -49.833 457.5 -149.5
s153.5 -248.5 153.5 -446.5v-35h-891c3.33301 -73.333 29.166 -131.333 77.499 -174s112.5 -64 192.5 -64c62 0 112 12.5 150 37.5s59.667 59.167 65 102.5h385zM467.002 635l500.998 -0.000976562c-2 64.667 -25 115.334 -69 152.001s-103.333 55 -178 55
c-75.333 0 -135.166 -18 -179.499 -54s-69.166 -87 -74.499 -153zM942 1165h-178l-447 285h357z" />
    <glyph glyph-name="eacute" unicode="&#xe9;" horiz-adv-x="1417" 
d="M1335 328c-9.33301 -115.333 -65.8311 -203 -169.498 -263s-251.167 -90 -442.5 -90c-208.667 0 -369.334 45.167 -482.001 135.5s-169 219.5 -169 387.5c0 177.333 58.5 314.833 175.5 412.5s282.833 146.5 497.5 146.5c202.667 0 355.167 -49.833 457.5 -149.5
s153.5 -248.5 153.5 -446.5v-35h-891c3.33301 -73.333 29.166 -131.333 77.499 -174s112.5 -64 192.5 -64c62 0 112 12.5 150 37.5s59.667 59.167 65 102.5h385zM467.002 635l500.998 -0.000976562c-2 64.667 -25 115.334 -69 152.001s-103.333 55 -178 55
c-75.333 0 -135.166 -18 -179.499 -54s-69.166 -87 -74.499 -153zM528 1165l268 285h357l-447 -285h-178z" />
    <glyph glyph-name="ecircumflex" unicode="&#xea;" horiz-adv-x="1417" 
d="M1335 328c-9.33301 -115.333 -65.8311 -203 -169.498 -263s-251.167 -90 -442.5 -90c-208.667 0 -369.334 45.167 -482.001 135.5s-169 219.5 -169 387.5c0 177.333 58.5 314.833 175.5 412.5s282.833 146.5 497.5 146.5c202.667 0 355.167 -49.833 457.5 -149.5
s153.5 -248.5 153.5 -446.5v-35h-891c3.33301 -73.333 29.166 -131.333 77.499 -174s112.5 -64 192.5 -64c62 0 112 12.5 150 37.5s59.667 59.167 65 102.5h385zM467.002 635l500.998 -0.000976562c-2 64.667 -25 115.334 -69 152.001s-103.333 55 -178 55
c-75.333 0 -135.166 -18 -179.499 -54s-69.166 -87 -74.499 -153zM319 1165l269 285h294l269 -285h-178l-238 160l-238 -160h-178z" />
    <glyph glyph-name="edieresis" unicode="&#xeb;" horiz-adv-x="1417" 
d="M1335 328c-9.33301 -115.333 -65.8311 -203 -169.498 -263s-251.167 -90 -442.5 -90c-208.667 0 -369.334 45.167 -482.001 135.5s-169 219.5 -169 387.5c0 177.333 58.5 314.833 175.5 412.5s282.833 146.5 497.5 146.5c202.667 0 355.167 -49.833 457.5 -149.5
s153.5 -248.5 153.5 -446.5v-35h-891c3.33301 -73.333 29.166 -131.333 77.499 -174s112.5 -64 192.5 -64c62 0 112 12.5 150 37.5s59.667 59.167 65 102.5h385zM467.002 635l500.998 -0.000976562c-2 64.667 -25 115.334 -69 152.001s-103.333 55 -178 55
c-75.333 0 -135.166 -18 -179.499 -54s-69.166 -87 -74.499 -153zM817 1190v237h291v-237h-291zM362 1190v237h291v-237h-291z" />
    <glyph glyph-name="igrave" unicode="&#xec;" horiz-adv-x="653" 
d="M131 0v1028h393v-1028h-393zM535 1165h-178l-447 285h357z" />
    <glyph glyph-name="iacute" unicode="&#xed;" horiz-adv-x="653" 
d="M131 0v1028h393v-1028h-393zM121 1165l268 285h357l-447 -285h-178z" />
    <glyph glyph-name="icircumflex" unicode="&#xee;" horiz-adv-x="653" 
d="M131 0v1028h393v-1028h-393zM-88 1165l269 285h294l269 -285h-178l-238 160l-238 -160h-178z" />
    <glyph glyph-name="idieresis" unicode="&#xef;" horiz-adv-x="653" 
d="M131 0v1028h393v-1028h-393zM410 1190v237h291v-237h-291zM-45 1190v237h291v-237h-291z" />
    <glyph glyph-name="eth" unicode="&#xf0;" horiz-adv-x="1540" 
d="M913 1006c-20.667 31.333 -40.6641 59.832 -59.9971 85.499s-38.666 49.5 -57.999 71.5l-465 -104l-31 133l393 90l-71 80l186 178l211 -197l346 72l31 -131l-271 -57c119.333 -134.667 206.166 -260.667 260.499 -378s81.5 -236.333 81.5 -357
c0 -171.333 -60 -300.333 -180 -387s-298.667 -130 -536 -130c-220.667 0 -388.834 44.333 -504.501 133s-173.5 217.334 -173.5 386.001c0 166 59.167 294.167 177.5 384.5s287.166 135.5 506.499 135.5c31.333 0 81.666 -2.66699 150.999 -8h6zM764.003 204.999
c92 0 163.499 26.5 214.499 79.5s76.5 127.5 76.5 223.5c0 92 -25.667 164.833 -77 218.5s-120.666 80.5 -207.999 80.5c-90.667 0 -160.834 -26.167 -210.501 -78.5s-74.5 -126.5 -74.5 -222.5s24.333 -170.167 73 -222.5s117.334 -78.5 206.001 -78.5z" />
    <glyph glyph-name="ntilde" unicode="&#xf1;" horiz-adv-x="1542" 
d="M137 0v786c0 52.667 -1 97.834 -3 135.501s-5 73.167 -9 106.5h395c3.33301 -26.667 5.83301 -53.667 7.5 -81s2.5 -55 2.5 -83c62 65.333 128.667 113.166 200 143.499s152.333 45.5 243 45.5c140 0 249.333 -37.5 328 -112.5s118 -178.833 118 -311.5v-629h-395v610
c0 69.333 -18.333 121.833 -55 157.5s-90.667 53.5 -162 53.5c-93.333 0 -162.833 -24.5 -208.5 -73.5s-68.5 -124.167 -68.5 -225.5v-522h-393zM1203 1434c-17.333 -72 -49.8311 -127.665 -97.498 -166.998s-106.167 -59 -175.5 -59c-14 0 -27.5 0.666992 -40.5 2
s-25.5 3.66602 -37.5 6.99902l-173 32c-8 2 -16.5 3.5 -25.5 4.5s-18.5 1.5 -28.5 1.5c-31.333 0 -56.666 -5.66699 -75.999 -17s-34.333 -29.333 -45 -54h-125c22 73.333 54.667 128.166 98 164.499s99 54.5 167 54.5c14.667 0 29.167 -0.666992 43.5 -2
s28.5 -3.33301 42.5 -6l163 -33c9.33301 -2 19.666 -3.5 30.999 -4.5s23.666 -1.5 36.999 -1.5c28.667 0 52.667 6.5 72 19.5s33.666 32.5 42.999 58.5h127z" />
    <glyph glyph-name="ograve" unicode="&#xf2;" horiz-adv-x="1540" 
d="M752 -25c-220.667 0 -389.165 46.332 -505.498 138.999s-174.5 226.667 -174.5 402c0 174 59.667 307.333 179 400s291.666 139 516.999 139c226.667 0 399.667 -46.667 519 -140s179 -227.666 179 -402.999c0 -178 -59.833 -312 -179.5 -402
s-297.834 -135 -534.501 -135zM772.002 204.999c87.333 0 156.334 28.5 207.001 85.5s76 134.833 76 233.5c0 100 -25.5 179 -76.5 237s-120.5 87 -208.5 87c-90.667 0 -160.834 -28 -210.501 -84s-74.5 -135.333 -74.5 -238c0 -104 24.5 -183.5 73.5 -238.5
s120.167 -82.5 213.5 -82.5zM977.003 1165h-178l-447 285h357z" />
    <glyph glyph-name="oacute" unicode="&#xf3;" horiz-adv-x="1540" 
d="M752 -25c-220.667 0 -389.165 46.332 -505.498 138.999s-174.5 226.667 -174.5 402c0 174 59.667 307.333 179 400s291.666 139 516.999 139c226.667 0 399.667 -46.667 519 -140s179 -227.666 179 -402.999c0 -178 -59.833 -312 -179.5 -402
s-297.834 -135 -534.501 -135zM772.002 204.999c87.333 0 156.334 28.5 207.001 85.5s76 134.833 76 233.5c0 100 -25.5 179 -76.5 237s-120.5 87 -208.5 87c-90.667 0 -160.834 -28 -210.501 -84s-74.5 -135.333 -74.5 -238c0 -104 24.5 -183.5 73.5 -238.5
s120.167 -82.5 213.5 -82.5zM563.003 1165l268 285h357l-447 -285h-178z" />
    <glyph glyph-name="ocircumflex" unicode="&#xf4;" horiz-adv-x="1540" 
d="M752 -25c-220.667 0 -389.165 46.332 -505.498 138.999s-174.5 226.667 -174.5 402c0 174 59.667 307.333 179 400s291.666 139 516.999 139c226.667 0 399.667 -46.667 519 -140s179 -227.666 179 -402.999c0 -178 -59.833 -312 -179.5 -402
s-297.834 -135 -534.501 -135zM772.002 204.999c87.333 0 156.334 28.5 207.001 85.5s76 134.833 76 233.5c0 100 -25.5 179 -76.5 237s-120.5 87 -208.5 87c-90.667 0 -160.834 -28 -210.501 -84s-74.5 -135.333 -74.5 -238c0 -104 24.5 -183.5 73.5 -238.5
s120.167 -82.5 213.5 -82.5zM354.003 1165l269 285h294l269 -285h-178l-238 160l-238 -160h-178z" />
    <glyph glyph-name="otilde" unicode="&#xf5;" horiz-adv-x="1540" 
d="M752 -25c-220.667 0 -389.165 46.332 -505.498 138.999s-174.5 226.667 -174.5 402c0 174 59.667 307.333 179 400s291.666 139 516.999 139c226.667 0 399.667 -46.667 519 -140s179 -227.666 179 -402.999c0 -178 -59.833 -312 -179.5 -402
s-297.834 -135 -534.501 -135zM772.002 204.999c87.333 0 156.334 28.5 207.001 85.5s76 134.833 76 233.5c0 100 -25.5 179 -76.5 237s-120.5 87 -208.5 87c-90.667 0 -160.834 -28 -210.501 -84s-74.5 -135.333 -74.5 -238c0 -104 24.5 -183.5 73.5 -238.5
s120.167 -82.5 213.5 -82.5zM1182 1434c-17.333 -72 -49.8311 -127.665 -97.498 -166.998s-106.167 -59 -175.5 -59c-14 0 -27.5 0.666992 -40.5 2s-25.5 3.66602 -37.5 6.99902l-173 32c-8 2 -16.5 3.5 -25.5 4.5s-18.5 1.5 -28.5 1.5
c-31.333 0 -56.666 -5.66699 -75.999 -17s-34.333 -29.333 -45 -54h-125c22 73.333 54.667 128.166 98 164.499s99 54.5 167 54.5c14.667 0 29.167 -0.666992 43.5 -2s28.5 -3.33301 42.5 -6l163 -33c9.33301 -2 19.666 -3.5 30.999 -4.5s23.666 -1.5 36.999 -1.5
c28.667 0 52.667 6.5 72 19.5s33.666 32.5 42.999 58.5h127z" />
    <glyph glyph-name="odieresis" unicode="&#xf6;" horiz-adv-x="1540" 
d="M752 -25c-220.667 0 -389.165 46.332 -505.498 138.999s-174.5 226.667 -174.5 402c0 174 59.667 307.333 179 400s291.666 139 516.999 139c226.667 0 399.667 -46.667 519 -140s179 -227.666 179 -402.999c0 -178 -59.833 -312 -179.5 -402
s-297.834 -135 -534.501 -135zM772.002 204.999c87.333 0 156.334 28.5 207.001 85.5s76 134.833 76 233.5c0 100 -25.5 179 -76.5 237s-120.5 87 -208.5 87c-90.667 0 -160.834 -28 -210.501 -84s-74.5 -135.333 -74.5 -238c0 -104 24.5 -183.5 73.5 -238.5
s120.167 -82.5 213.5 -82.5zM852.003 1190v237h291v-237h-291zM397.003 1190v237h291v-237h-291z" />
    <glyph glyph-name="divide" unicode="&#xf7;" horiz-adv-x="1706" 
d="M854 371c45.333 0 84 -16.167 116 -48.5s48 -71.5 48 -117.5c0 -45.333 -15.833 -84 -47.5 -116s-70.5 -48 -116.5 -48s-85.167 16 -117.5 48s-48.5 70.667 -48.5 116s16.333 84.333 49 117s71.667 49 117 49zM254 727h1198v-231h-1198v231zM854 1182
c44.667 0 83.167 -16.333 115.5 -49s48.5 -71.667 48.5 -117s-16.167 -84 -48.5 -116s-71.5 -48 -117.5 -48s-84.833 16 -116.5 48s-47.5 70.667 -47.5 116s16.333 84.333 49 117s71.667 49 117 49z" />
    <glyph glyph-name="oslash" unicode="&#xf8;" horiz-adv-x="1540" 
d="M127 -49l137 144.999c-64 50.667 -111.667 109.834 -143 177.501s-47 145.834 -47 234.501c0 176.667 59.667 312.334 179 407.001s291 142 515 142c60 0 117.333 -3.83301 172 -11.5s107.334 -18.834 158.001 -33.501l162 174l108 -92l-135 -142
c78 -48.667 136 -108.834 174 -180.501s57 -156.167 57 -253.5c0 -180 -59.5 -316.167 -178.5 -408.5s-294.833 -138.5 -527.5 -138.5c-68.667 0 -133.334 4.83301 -194.001 14.5s-117.667 24.167 -171 43.5l-160 -172zM592 243.999c20.667 -16.667 46.168 -29 76.501 -37
s64.833 -12 103.5 -12c90 0 161.667 29.5 215 88.5s80 138.5 80 238.5c0 36.667 -3.83301 71.5 -11.5 104.5s-18.834 63.833 -33.501 92.5zM502.001 357.999l424.001 461c-22.667 13.333 -46.667 23.166 -72 29.499s-53.333 9.5 -84 9.5c-94 0 -166.667 -29.167 -218 -87.5
s-77 -141.833 -77 -250.5c0 -30 2.16699 -58.167 6.5 -84.5s11.166 -52.166 20.499 -77.499z" />
    <glyph glyph-name="ugrave" unicode="&#xf9;" horiz-adv-x="1542" 
d="M1016 0c-3.33301 28 -5.83301 55.666 -7.5 82.999s-2.5 54.333 -2.5 81c-60 -62 -127.5 -109 -202.5 -141s-155.167 -48 -240.5 -48c-144 0 -254.333 38.167 -331 114.5s-115 185.833 -115 328.5v610h395v-596c0 -77.333 17.833 -134.166 53.5 -170.499
s91.5 -54.5 167.5 -54.5c90 0 158 25.333 204 76s69 125.667 69 225v520h393v-784c0 -46 3.33301 -119.333 10 -220c1.33301 -11.333 2 -19.333 2 -24h-395zM979 1165h-178l-447 285h357z" />
    <glyph glyph-name="uacute" unicode="&#xfa;" horiz-adv-x="1542" 
d="M1016 0c-3.33301 28 -5.83301 55.666 -7.5 82.999s-2.5 54.333 -2.5 81c-60 -62 -127.5 -109 -202.5 -141s-155.167 -48 -240.5 -48c-144 0 -254.333 38.167 -331 114.5s-115 185.833 -115 328.5v610h395v-596c0 -77.333 17.833 -134.166 53.5 -170.499
s91.5 -54.5 167.5 -54.5c90 0 158 25.333 204 76s69 125.667 69 225v520h393v-784c0 -46 3.33301 -119.333 10 -220c1.33301 -11.333 2 -19.333 2 -24h-395zM565 1165l268 285h357l-447 -285h-178z" />
    <glyph glyph-name="ucircumflex" unicode="&#xfb;" horiz-adv-x="1542" 
d="M1016 0c-3.33301 28 -5.83301 55.666 -7.5 82.999s-2.5 54.333 -2.5 81c-60 -62 -127.5 -109 -202.5 -141s-155.167 -48 -240.5 -48c-144 0 -254.333 38.167 -331 114.5s-115 185.833 -115 328.5v610h395v-596c0 -77.333 17.833 -134.166 53.5 -170.499
s91.5 -54.5 167.5 -54.5c90 0 158 25.333 204 76s69 125.667 69 225v520h393v-784c0 -46 3.33301 -119.333 10 -220c1.33301 -11.333 2 -19.333 2 -24h-395zM356 1165l269 285h294l269 -285h-178l-238 160l-238 -160h-178z" />
    <glyph glyph-name="udieresis" unicode="&#xfc;" horiz-adv-x="1542" 
d="M1016 0c-3.33301 28 -5.83301 55.666 -7.5 82.999s-2.5 54.333 -2.5 81c-60 -62 -127.5 -109 -202.5 -141s-155.167 -48 -240.5 -48c-144 0 -254.333 38.167 -331 114.5s-115 185.833 -115 328.5v610h395v-596c0 -77.333 17.833 -134.166 53.5 -170.499
s91.5 -54.5 167.5 -54.5c90 0 158 25.333 204 76s69 125.667 69 225v520h393v-784c0 -46 3.33301 -119.333 10 -220c1.33301 -11.333 2 -19.333 2 -24h-395zM854 1190v237h291v-237h-291zM399 1190v237h291v-237h-291z" />
    <glyph glyph-name="yacute" unicode="&#xfd;" horiz-adv-x="1366" 
d="M256 -389l233 405l-522 1012h432l299 -682l320 682h377l-729 -1417h-410zM477 1165l268 285h357l-447 -285h-178z" />
    <glyph glyph-name="thorn" unicode="&#xfe;" horiz-adv-x="1587" 
d="M137 1475h393v-639c56 72 121.833 126.5 197.5 163.5s159.5 55.5 251.5 55.5c162.667 0 290 -48.5 382 -145.5s138 -231.5 138 -403.5c0 -164 -47.333 -293.833 -142 -389.5s-223.334 -143.5 -386.001 -143.5c-88 0 -168.667 14.5 -242 43.5
s-139.666 72.5 -198.999 130.5v-536h-393v1864zM815 180c88 0 156.833 28.167 206.5 84.5s74.5 134.833 74.5 235.5c0 96 -26 172.5 -78 229.5s-121.667 85.5 -209 85.5c-89.333 0 -158.833 -27.5 -208.5 -82.5s-74.5 -132.5 -74.5 -232.5
c0 -104.667 24.667 -184.167 74 -238.5s121 -81.5 215 -81.5z" />
    <glyph glyph-name="ydieresis" unicode="&#xff;" horiz-adv-x="1366" 
d="M256 -389l233 405l-522 1012h432l299 -682l320 682h377l-729 -1417h-410zM766 1190v237h291v-237h-291zM311 1190v237h291v-237h-291z" />
    <glyph glyph-name="Cacute" unicode="&#x106;" horiz-adv-x="1712" 
d="M1644 514c-6 -176.667 -70.168 -310.668 -192.501 -402.001s-298.833 -137 -529.5 -137c-271.333 0 -478.166 65 -620.499 195s-213.5 318.333 -213.5 565s72.833 434.667 218.5 564s357.5 194 635.5 194c218.667 0 385.5 -41.667 500.5 -125
s180.167 -209.666 195.5 -378.999h-421c-11.333 68.667 -42.5 120.667 -93.5 156s-120.5 53 -208.5 53c-136 0 -236.833 -37.167 -302.5 -111.5s-98.5 -188.833 -98.5 -343.5c0 -156 31.5 -272.833 94.5 -350.5s157.833 -116.5 284.5 -116.5
c101.333 0 178.5 19.333 231.5 58s85.167 98.667 96.5 180h423zM675.999 1611l268 285h357l-447 -285h-178z" />
    <glyph glyph-name="cacute" unicode="&#x107;" horiz-adv-x="1434" 
d="M961 666c-8.66699 56 -31.6689 98.001 -69.002 126.001s-89.666 42 -156.999 42c-81.333 0 -144.333 -28.833 -189 -86.5s-67 -138.834 -67 -243.501c0 -94.667 21.833 -167.167 65.5 -217.5s106.5 -75.5 188.5 -75.5c74.667 0 131.334 16.167 170.001 48.5
s58.667 79.5 60 141.5h405c-7.33301 -143.333 -63.166 -249.833 -167.499 -319.5s-261.5 -104.5 -471.5 -104.5c-212.667 0 -375.334 44.833 -488.001 134.5s-169 218.5 -169 386.5c0 177.333 58.5 314.833 175.5 412.5s282.833 146.5 497.5 146.5
c185.333 0 329.833 -33.333 433.5 -100s162.167 -163.667 175.5 -291h-393zM529.998 1165l268 285h357l-447 -285h-178z" />
    <glyph glyph-name="Ccaron" unicode="&#x10c;" horiz-adv-x="1712" 
d="M1644 514c-6 -176.667 -70.168 -310.668 -192.501 -402.001s-298.833 -137 -529.5 -137c-271.333 0 -478.166 65 -620.499 195s-213.5 318.333 -213.5 565s72.833 434.667 218.5 564s357.5 194 635.5 194c218.667 0 385.5 -41.667 500.5 -125
s180.167 -209.666 195.5 -378.999h-421c-11.333 68.667 -42.5 120.667 -93.5 156s-120.5 53 -208.5 53c-136 0 -236.833 -37.167 -302.5 -111.5s-98.5 -188.833 -98.5 -343.5c0 -156 31.5 -272.833 94.5 -350.5s157.833 -116.5 284.5 -116.5
c101.333 0 178.5 19.333 231.5 58s85.167 98.667 96.5 180h423zM466.999 1896h178l238 -158l238 158h178l-269 -285h-294z" />
    <glyph glyph-name="ccaron" unicode="&#x10d;" horiz-adv-x="1434" 
d="M961 666c-8.66699 56 -31.6689 98.001 -69.002 126.001s-89.666 42 -156.999 42c-81.333 0 -144.333 -28.833 -189 -86.5s-67 -138.834 -67 -243.501c0 -94.667 21.833 -167.167 65.5 -217.5s106.5 -75.5 188.5 -75.5c74.667 0 131.334 16.167 170.001 48.5
s58.667 79.5 60 141.5h405c-7.33301 -143.333 -63.166 -249.833 -167.499 -319.5s-261.5 -104.5 -471.5 -104.5c-212.667 0 -375.334 44.833 -488.001 134.5s-169 218.5 -169 386.5c0 177.333 58.5 314.833 175.5 412.5s282.833 146.5 497.5 146.5
c185.333 0 329.833 -33.333 433.5 -100s162.167 -163.667 175.5 -291h-393zM320.998 1450h178l238 -158l238 158h178l-269 -285h-294z" />
    <glyph glyph-name="dcroat" unicode="&#x111;" horiz-adv-x="1597" 
d="M1450 1475l-0.00195312 -155.999h137v-156h-137v-930c0 -36.667 1.33301 -74 4 -112s6.66699 -78.333 12 -121h-397c-4 25.333 -7 51.333 -9 78s-3 54 -3 82v33c-54 -72 -118.833 -126.333 -194.5 -163s-159.834 -55 -252.501 -55
c-163.333 0 -291.166 48.333 -383.499 145s-138.5 230.667 -138.5 402c0 164 47.333 293.833 142 389.5s223.334 143.5 386.001 143.5c88 0 168.333 -14.333 241 -43s139.334 -72.334 200.001 -131.001v282h-406v156h406v156h393zM771.998 848.001
c-85.333 0 -153 -27.666 -203 -82.999s-75 -129.333 -75 -222c0 -104.667 24.833 -185.834 74.5 -243.501s119.5 -86.5 209.5 -86.5c89.333 0 158.833 27.5 208.5 82.5s74.5 132.5 74.5 232.5c0 104.667 -24.667 184.167 -74 238.5s-121 81.5 -215 81.5z" />
    <glyph glyph-name="Gbreve" unicode="&#x11e;" horiz-adv-x="1849" 
d="M1331 303l-0.00195312 243.998h-370v276h786v-747c-107.333 -33.333 -220.833 -58.5 -340.5 -75.5s-245.167 -25.5 -376.5 -25.5c-313.333 0 -548.666 62.833 -705.999 188.5s-236 312.834 -236 561.501c0 246.667 77.667 436.334 233 569.001s377.333 199 666 199
c244 0 429.167 -40.667 555.5 -122s194.5 -203.666 204.5 -366.999h-451c-2.66699 67.333 -32.5 120.666 -89.5 159.999s-134.167 59 -231.5 59c-145.333 0 -257.166 -41.167 -335.499 -123.5s-117.5 -199.5 -117.5 -351.5c0 -162 41.5 -283.833 124.5 -365.5
s206.833 -122.5 371.5 -122.5c49.333 0 100 3.66699 152 11s105.667 18 161 32zM513.998 1892h166c10 -45.333 34.333 -78.166 73 -98.499s96.334 -30.5 173.001 -30.5c78 0 136.167 10.167 174.5 30.5s62.166 53.166 71.499 98.499h164
c-13.333 -96 -52.833 -166.5 -118.5 -211.5s-162.834 -67.5 -291.501 -67.5s-226.167 22.5 -292.5 67.5s-106.166 115.5 -119.499 211.5z" />
    <glyph glyph-name="gbreve" unicode="&#x11f;" horiz-adv-x="1597" 
d="M500 537c0 -82 25.501 -147.668 76.501 -197.001s118.833 -74 203.5 -74c94 0 165.667 24.333 215 73s74 119.334 74 212.001c0 88 -24.833 156.333 -74.5 205s-119.834 73 -210.501 73c-90 0 -159.833 -25.5 -209.5 -76.5s-74.5 -122.833 -74.5 -215.5zM1075 873.999
c0 30 0.999023 57.832 2.99902 83.499s5 49.167 9 70.5h385c-4.66699 -37.333 -8.16699 -75.5 -10.5 -114.5s-3.5 -78.5 -3.5 -118.5v-525c0 -132 -7.16699 -229.667 -21.5 -293s-38.5 -117.666 -72.5 -162.999c-56.667 -74 -136.334 -128.667 -239.001 -164
s-232.667 -53 -390 -53c-193.333 0 -338.333 30 -435 90s-146 150.667 -148 272h388c2.66699 -46 21.334 -80.667 56.001 -104s85.334 -35 152.001 -35c108 0 187.833 25 239.5 75s77.5 127.333 77.5 232v86c-50.667 -58 -112.667 -101.5 -186 -130.5
s-157.333 -43.5 -252 -43.5c-158.667 0 -286.834 46.333 -384.501 139s-146.5 213 -146.5 361c0 160 48.833 285.667 146.5 377s231.834 137 402.501 137c80.667 0 157 -14.833 229 -44.5s139 -74.5 201 -134.5zM387 1446h166c10 -45.333 34.333 -78.166 73 -98.499
s96.334 -30.5 173.001 -30.5c78 0 136.167 10.167 174.5 30.5s62.166 53.166 71.499 98.499h164c-13.333 -96 -52.833 -166.5 -118.5 -211.5s-162.834 -67.5 -291.501 -67.5s-226.167 22.5 -292.5 67.5s-106.166 115.5 -119.499 211.5z" />
    <glyph glyph-name="Idotaccent" unicode="&#x130;" horiz-adv-x="768" 
d="M172 0v1475h422v-1475h-422zM233 1628v248h304v-248h-304z" />
    <glyph glyph-name="dotlessi" unicode="&#x131;" horiz-adv-x="653" 
d="M131 0v1028h393v-1028h-393z" />
    <glyph glyph-name="Lslash" unicode="&#x141;" horiz-adv-x="1391" 
d="M176 0v524l-166 -108v250l166 108v701h416v-480l377 244v-250l-377 -244v-423h776v-322h-1192z" />
    <glyph glyph-name="lslash" unicode="&#x142;" horiz-adv-x="692" 
d="M150 0v567l-142 -90v185l142 92v721h393v-510l141 90v-185l-141 -90v-780h-393z" />
    <glyph glyph-name="OE" unicode="&#x152;" horiz-adv-x="2660" 
d="M1300 307l-0.00195312 871c-56 9.33301 -109.5 16.333 -160.5 21s-99.833 7 -146.5 7c-159.333 0 -279.333 -38.833 -360 -116.5s-121 -193.834 -121 -348.501c0 -155.333 38.333 -271.166 115 -347.499s193.334 -114.5 350.001 -114.5
c48.667 0 99.834 2.33301 153.501 7s110.167 11.667 169.5 21zM1389 0c-20.667 0 -83.834 -2.99902 -189.501 -8.99902s-201.167 -9 -286.5 -9c-132 0 -245.167 14 -339.5 42s-174.833 71.333 -241.5 130c-79.333 69.333 -139.833 155.166 -181.5 257.499
s-62.5 215.833 -62.5 340.5c0 234.667 71.5 416.167 214.5 544.5s345.833 192.5 608.5 192.5c52 0 121.833 -2.33301 209.5 -7s149.834 -7 186.501 -7h1257v-314h-850v-256h807v-303h-807v-285h871v-317h-1196z" />
    <glyph glyph-name="oe" unicode="&#x153;" horiz-adv-x="2376" 
d="M1247 127c-58.667 -52.667 -128.999 -91.834 -210.999 -117.501s-177.333 -38.5 -286 -38.5c-220 0 -388 47.833 -504 143.5s-174 233.5 -174 413.5c0 164 60.833 292.833 182.5 386.5s288.834 140.5 501.501 140.5c108.667 0 203.667 -12.833 285 -38.5
s152.666 -65.5 213.999 -119.5c56 52.667 123.333 91.834 202 117.501s170.667 38.5 276 38.5c196 0 344 -50 444 -150s150 -248 150 -444v-29h-891c2 -74 27.167 -132.833 75.5 -176.5s113.166 -65.5 194.499 -65.5c62 0 112 12.5 150 37.5s59.667 59.167 65 102.5h385
c-8.66699 -111.333 -63.334 -198 -164 -260c-100.667 -62 -237.667 -93 -411 -93c-111.333 0 -206.833 12.5 -286.5 37.5s-145.5 63.167 -197.5 114.5zM1438 635l500.998 -0.000976562c-2 64.667 -25 115.334 -69 152.001s-103.333 55 -178 55
c-75.333 0 -135.666 -18.5 -180.999 -55.5s-69.666 -87.5 -72.999 -151.5zM765.999 204.999c85.333 0 152.668 28.5 202.001 85.5s74 134.833 74 233.5c0 100 -24.833 179 -74.5 237s-117.5 87 -203.5 87c-88.667 0 -157.334 -28.167 -206.001 -84.5s-73 -135.5 -73 -237.5
c0 -104 24 -183.5 72 -238.5s117.667 -82.5 209 -82.5z" />
    <glyph glyph-name="Scedilla" unicode="&#x15e;" horiz-adv-x="1589" 
d="M100 492l418 -0.00292969v-15c0 -72.667 24 -126.334 72 -161.001s122.333 -52 223 -52c89.333 0 156 12.833 200 38.5s66 64.167 66 115.5c0 74.667 -102 130.334 -306 167.001l-95 17c-201.333 38.667 -342.833 90.667 -424.5 156s-122.5 156 -122.5 272
c0 150.667 59.167 265.834 177.5 345.501s289.166 119.5 512.499 119.5c213.333 0 371.333 -35.667 474 -107s158.334 -183.666 167.001 -336.999h-397v4c0 54 -21.5 94.833 -64.5 122.5s-106.833 41.5 -191.5 41.5c-82 0 -145.167 -12 -189.5 -36s-66.5 -58 -66.5 -102
c0 -70 98.667 -123.333 296 -160l81 -16l17 -3c217.333 -42 361 -93.333 431 -154c40.667 -35.333 71.667 -78.5 93 -129.5s32 -106.833 32 -167.5c0 -152.667 -61.5 -270.167 -184.5 -352.5s-298.833 -123.5 -527.5 -123.5c-230.667 0 -403.5 40.333 -518.5 121
s-172.5 202.334 -172.5 365.001v31zM502 -397.003l-0.000976562 115.999c74.667 -13.333 139 -23 193 -29s104.333 -9 151 -9c36 0 63.167 5.5 81.5 16.5s27.5 27.833 27.5 50.5c0 22 -11.333 37.833 -34 47.5s-62 14.5 -118 14.5c-18.667 0 -33.167 -0.166992 -43.5 -0.5
s-20.5 -0.833008 -30.5 -1.5v192h111v-82h31c100.667 0 176.667 -14.667 228 -44s77 -72.666 77 -129.999c0 -59.333 -27.333 -104.166 -82 -134.499s-134.667 -45.5 -240 -45.5c-48.667 0 -102.667 3.16699 -162 9.5s-122.666 16.166 -189.999 29.499z" />
    <glyph glyph-name="scedilla" unicode="&#x15f;" horiz-adv-x="1294" 
d="M70 326h390.998c0 -44 16.5 -78 49.5 -102s79.833 -36 140.5 -36c56.667 0 100.5 9.33301 131.5 28s46.5 45 46.5 79c0 54.667 -71.333 91 -214 109c-25.333 3.33301 -44.666 6 -57.999 8c-174.667 22.667 -292.334 56.834 -353.001 102.501s-91 116.5 -91 212.5
c0 106 44.333 186.833 133 242.5s217 83.5 385 83.5c198.667 0 343.167 -27 433.5 -81s135.5 -139.667 135.5 -257h-385v4c0 43.333 -13.833 75.333 -41.5 96s-70.5 31 -128.5 31c-49.333 0 -87.166 -7.33301 -113.499 -22s-39.5 -35.334 -39.5 -62.001
c0 -48.667 71.667 -84.334 215 -107.001c30.667 -5.33301 54.334 -9.33301 71.001 -12c182 -30 301 -66.167 357 -108.5s84 -107.166 84 -194.499c0 -124 -47.333 -215.833 -142 -275.5s-240.667 -89.5 -438 -89.5c-194 0 -335.333 27.5 -424 82.5s-137 144.5 -145 268.5z
M353.998 -397l-0.000976562 115.999c74.667 -13.333 139 -23 193 -29s104.333 -9 151 -9c36 0 63.167 5.5 81.5 16.5s27.5 27.833 27.5 50.5c0 22 -11.333 37.833 -34 47.5s-62 14.5 -118 14.5c-18.667 0 -33.167 -0.166992 -43.5 -0.5s-20.5 -0.833008 -30.5 -1.5v192h111
v-82h31c100.667 0 176.667 -14.667 228 -44s77 -72.666 77 -129.999c0 -59.333 -27.333 -104.166 -82 -134.499s-134.667 -45.5 -240 -45.5c-48.667 0 -102.667 3.16699 -162 9.5s-122.666 16.166 -189.999 29.499z" />
    <glyph glyph-name="Scaron" unicode="&#x160;" horiz-adv-x="1589" 
d="M100 492l418 -0.00292969v-15c0 -72.667 24 -126.334 72 -161.001s122.333 -52 223 -52c89.333 0 156 12.833 200 38.5s66 64.167 66 115.5c0 74.667 -102 130.334 -306 167.001l-95 17c-201.333 38.667 -342.833 90.667 -424.5 156s-122.5 156 -122.5 272
c0 150.667 59.167 265.834 177.5 345.501s289.166 119.5 512.499 119.5c213.333 0 371.333 -35.667 474 -107s158.334 -183.666 167.001 -336.999h-397v4c0 54 -21.5 94.833 -64.5 122.5s-106.833 41.5 -191.5 41.5c-82 0 -145.167 -12 -189.5 -36s-66.5 -58 -66.5 -102
c0 -70 98.667 -123.333 296 -160l81 -16l17 -3c217.333 -42 361 -93.333 431 -154c40.667 -35.333 71.667 -78.5 93 -129.5s32 -106.833 32 -167.5c0 -152.667 -61.5 -270.167 -184.5 -352.5s-298.833 -123.5 -527.5 -123.5c-230.667 0 -403.5 40.333 -518.5 121
s-172.5 202.334 -172.5 365.001v31zM379 1896h178l238 -158l238 158h178l-269 -285h-294z" />
    <glyph glyph-name="scaron" unicode="&#x161;" horiz-adv-x="1294" 
d="M70 326h390.998c0 -44 16.5 -78 49.5 -102s79.833 -36 140.5 -36c56.667 0 100.5 9.33301 131.5 28s46.5 45 46.5 79c0 54.667 -71.333 91 -214 109c-25.333 3.33301 -44.666 6 -57.999 8c-174.667 22.667 -292.334 56.834 -353.001 102.501s-91 116.5 -91 212.5
c0 106 44.333 186.833 133 242.5s217 83.5 385 83.5c198.667 0 343.167 -27 433.5 -81s135.5 -139.667 135.5 -257h-385v4c0 43.333 -13.833 75.333 -41.5 96s-70.5 31 -128.5 31c-49.333 0 -87.166 -7.33301 -113.499 -22s-39.5 -35.334 -39.5 -62.001
c0 -48.667 71.667 -84.334 215 -107.001c30.667 -5.33301 54.334 -9.33301 71.001 -12c182 -30 301 -66.167 357 -108.5s84 -107.166 84 -194.499c0 -124 -47.333 -215.833 -142 -275.5s-240.667 -89.5 -438 -89.5c-194 0 -335.333 27.5 -424 82.5s-137 144.5 -145 268.5z
M230.998 1450h178l238 -158l238 158h178l-269 -285h-294z" />
    <glyph glyph-name="Ydieresis" unicode="&#x178;" horiz-adv-x="1548" 
d="M567 0v530l-665 945h493l410 -611l391 611h455l-666 -951v-524h-418zM856 1636v237h291v-237h-291zM401 1636v237h291v-237h-291z" />
    <glyph glyph-name="Zcaron" unicode="&#x17d;" horiz-adv-x="1636" 
d="M96 0v375l932 801h-870v299h1353v-379l-919 -789h944v-307h-1440zM403 1896h178l238 -158l238 158h178l-269 -285h-294z" />
    <glyph glyph-name="zcaron" unicode="&#x17e;" horiz-adv-x="1298" 
d="M92 0v293l633 498h-582v237h1039v-260l-647 -516h694v-252h-1137zM233 1450h178l238 -158l238 158h178l-269 -285h-294z" />
    <glyph glyph-name="florin" unicode="&#x192;" horiz-adv-x="1554" 
d="M72 -342l34.998 222.999c26 -7.33301 51.333 -12.833 76 -16.5s49 -5.5 73 -5.5c33.333 0 62 4.33301 86 13s45.333 22.667 64 42c28.667 30.667 52.667 109 72 235l11 74l84 527h-301l37 237h297c17.333 172 64.833 292.167 142.5 360.5s205.834 102.5 384.501 102.5
c45.333 0 92.5 -2.83301 141.5 -8.5s100.833 -14.5 155.5 -26.5l-35 -223c-30 8 -57.667 14.167 -83 18.5s-48.333 6.5 -69 6.5c-64.667 0 -114 -18.333 -148 -55s-55.667 -95 -65 -175h332l-37 -237h-328l-102 -648c-17.333 -112.667 -34.5 -192.167 -51.5 -238.5
s-39.5 -84.166 -67.5 -113.499c-40.667 -44 -93.667 -76.167 -159 -96.5s-148.666 -30.5 -249.999 -30.5c-46 0 -93.5 3 -142.5 9s-99.833 14.667 -152.5 26z" />
    <glyph glyph-name="circumflex" unicode="&#x2c6;" 
d="M96 1165l269 285h294l269 -285h-178l-238 160l-238 -160h-178z" />
    <glyph glyph-name="caron" unicode="&#x2c7;" 
d="M96 1450h178l238 -158l238 158h178l-269 -285h-294z" />
    <glyph glyph-name="breve" unicode="&#x2d8;" 
d="M100 1446h166c10 -45.333 34.333 -78.166 73 -98.499s96.334 -30.5 173.001 -30.5c78 0 136.167 10.167 174.5 30.5s62.166 53.166 71.499 98.499h164c-13.333 -96 -52.833 -166.5 -118.5 -211.5s-162.834 -67.5 -291.501 -67.5s-226.167 22.5 -292.5 67.5
s-106.166 115.5 -119.499 211.5z" />
    <glyph glyph-name="dotaccent" unicode="&#x2d9;" 
d="M360 1182v248h304v-248h-304z" />
    <glyph glyph-name="ring" unicode="&#x2da;" 
d="M840 1352c0 -64 -28.333 -113.167 -85 -147.5s-137.667 -51.5 -243 -51.5s-186.333 17.167 -243 51.5s-85 83.5 -85 147.5s28.333 113 85 147s137.667 51 243 51s186.333 -17 243 -51s85 -83 85 -147zM637 1354c0 40.667 -10 70.667 -30 90s-51.667 29 -95 29
s-75.333 -9.66699 -96 -29s-31 -49.333 -31 -90c0 -41.333 10.333 -71.833 31 -91.5s52.667 -29.5 96 -29.5c42.667 0 74.167 9.83301 94.5 29.5s30.5 50.167 30.5 91.5z" />
    <glyph glyph-name="ogonek" unicode="&#x2db;" 
d="M657 0c-52 -29.333 -91.833 -60.5 -119.5 -93.5s-41.5 -65.167 -41.5 -96.5c0 -24 8.66699 -42 26 -54s43.333 -18 78 -18h129v-160h-135c-99.333 0 -174.333 14.5 -225 43.5s-76 71.833 -76 128.5c0 42.667 18.667 83.5 56 122.5s98.333 81.5 183 127.5h125z" />
    <glyph glyph-name="tilde" unicode="&#x2dc;" 
d="M924 1434c-17.333 -72 -49.8311 -127.665 -97.498 -166.998s-106.167 -59 -175.5 -59c-14 0 -27.5 0.666992 -40.5 2s-25.5 3.66602 -37.5 6.99902l-173 32c-8 2 -16.5 3.5 -25.5 4.5s-18.5 1.5 -28.5 1.5c-31.333 0 -56.666 -5.66699 -75.999 -17
s-34.333 -29.333 -45 -54h-125c22 73.333 54.667 128.166 98 164.499s99 54.5 167 54.5c14.667 0 29.167 -0.666992 43.5 -2s28.5 -3.33301 42.5 -6l163 -33c9.33301 -2 19.666 -3.5 30.999 -4.5s23.666 -1.5 36.999 -1.5c28.667 0 52.667 6.5 72 19.5
s33.666 32.5 42.999 58.5h127z" />
    <glyph glyph-name="hungarumlaut" unicode="&#x2dd;" 
d="M557 1163l211 285h313l-389 -285h-135zM176 1163l170 285h301l-352 -285h-119z" />
    <glyph glyph-name="Omega" unicode="&#x3a9;" horiz-adv-x="1645" 
d="M1266 307l333.001 -0.00195312v-307h-636v352c61.333 54.667 108.666 120.167 141.999 196.5s50 158.5 50 246.5c0 121.333 -30 217.5 -90 288.5s-141.333 106.5 -244 106.5c-102 0 -183.167 -35.833 -243.5 -107.5s-90.5 -168.167 -90.5 -289.5
c0 -88 16.667 -170.167 50 -246.5s81 -141.166 143 -194.499v-352h-635v307h332c-88 63.333 -154.667 139.833 -200 229.5s-68 189.5 -68 299.5c0 202 65.167 365 195.5 489s302.5 186 516.5 186c215.333 0 388 -61.667 518 -185s195 -286.666 195 -489.999
c0 -110 -22.667 -209.833 -68 -299.5s-112 -166.167 -200 -229.5z" />
    <glyph glyph-name="pi" unicode="&#x3c0;" horiz-adv-x="1530" 
d="M1538 1090l-39 -232h-178l-135 -858h-357l134 858h-232l-135 -858h-354l133 858h-27c-28 0 -51.5 -11.833 -70.5 -35.5s-31.167 -56.167 -36.5 -97.5h-235c22 139.333 63.5 235 124.5 287s164.833 78 311.5 78h1096z" />
    <glyph glyph-name="endash" unicode="&#x2013;" 
d="M0 383v262h1024v-262h-1024z" />
    <glyph glyph-name="emdash" unicode="&#x2014;" horiz-adv-x="2048" 
d="M0 645h2048v-262h-2048v262z" />
    <glyph glyph-name="quoteleft" unicode="&#x2018;" horiz-adv-x="778" 
d="M639 1475l-154 -527h-395l279 527h270z" />
    <glyph glyph-name="quoteright" unicode="&#x2019;" horiz-adv-x="778" 
d="M113 948l155 527h394l-279 -527h-270z" />
    <glyph glyph-name="quotesinglbase" unicode="&#x201a;" horiz-adv-x="778" 
d="M86 -231l156 526h395l-279 -526h-272z" />
    <glyph glyph-name="quotedblleft" unicode="&#x201c;" horiz-adv-x="1290" 
d="M657 1475l-155 -527h-396l279 527h272zM1161 1475l-155 -527h-396l279 527h272z" />
    <glyph glyph-name="quotedblright" unicode="&#x201d;" horiz-adv-x="1290" 
d="M627 948l155 527h396l-279 -527h-272zM123 948l156 527h395l-279 -527h-272z" />
    <glyph glyph-name="quotedblbase" unicode="&#x201e;" horiz-adv-x="1290" 
d="M623 -190l155 526h396l-279 -526h-272zM119 -190l155 526h396l-279 -526h-272z" />
    <glyph glyph-name="dagger" unicode="&#x2020;" horiz-adv-x="1255" 
d="M442 0v891h-381v299h381v285h371v-285h383v-299h-383v-891h-371z" />
    <glyph glyph-name="daggerdbl" unicode="&#x2021;" horiz-adv-x="1255" 
d="M451 0v303h-385v283h385v319h-385v285h385v285h358v-285h381v-285h-381v-317h381v-283h-381v-305h-358z" />
    <glyph glyph-name="bullet" unicode="&#x2022;" horiz-adv-x="1208" 
d="M307 762c0 82 28.999 151.666 86.999 208.999s128 86 210 86c81.333 0 150.833 -28.833 208.5 -86.5s86.5 -127.167 86.5 -208.5s-29.167 -151.166 -87.5 -209.499s-128.166 -87.5 -209.499 -87.5c-82 0 -151.667 29 -209 87s-86 128 -86 210z" />
    <glyph glyph-name="ellipsis" unicode="&#x2026;" horiz-adv-x="2048" 
d="M139 0v322h404v-322h-404zM821 0v322h404v-322h-404zM1505 0v322h404v-322h-404z" />
    <glyph glyph-name="perthousand" unicode="&#x2030;" horiz-adv-x="2920" 
d="M2302 383c0 -78.667 11.667 -134.167 35 -166.5s63 -48.5 119 -48.5c55.333 0 95 16.667 119 50s36 88.333 36 165s-12.167 132 -36.5 166s-63.833 51 -118.5 51c-55.333 0 -94.833 -16.667 -118.5 -50s-35.5 -89 -35.5 -167zM2060 383c0 126 33.667 221.333 101 286
s166.333 97 297 97c130 0 228.667 -32.5 296 -97.5s101 -160.167 101 -285.5c0 -124.667 -34 -219.667 -102 -285s-166.333 -98 -295 -98c-130 0 -228.833 32.5 -296.5 97.5s-101.5 160.167 -101.5 285.5zM1391 383c0 -78 11.833 -133.333 35.5 -166s63.5 -49 119.5 -49
c55.333 0 94.833 16.5 118.5 49.5s35.5 88.167 35.5 165.5s-12 132.833 -36 166.5s-63.333 50.5 -118 50.5c-55.333 0 -95 -16.833 -119 -50.5s-36 -89.167 -36 -166.5zM1151 383c0 126 33.333 221.333 100 286s165 97 295 97s228.833 -32.5 296.5 -97.5
s101.5 -160.167 101.5 -285.5c0 -124.667 -34 -219.667 -102 -285s-166.667 -98 -296 -98s-227.5 32.5 -294.5 97.5s-100.5 160.167 -100.5 285.5zM307 1044c0 -78 11.998 -133.667 35.998 -167s64 -50 120 -50c54.667 0 93.834 16.833 117.501 50.5s35.5 89.167 35.5 166.5
c0 78 -12 133.833 -36 167.5s-63 50.5 -117 50.5c-55.333 0 -95.166 -16.833 -119.499 -50.5s-36.5 -89.5 -36.5 -167.5zM65.998 1044c0 126 33.667 221.333 101 286s166 97 296 97s228.667 -32.5 296 -97.5s101 -160.167 101 -285.5c0 -124.667 -34 -220 -102 -286
s-166.333 -99 -295 -99c-129.333 0 -227.833 32.833 -295.5 98.5s-101.5 161.167 -101.5 286.5zM587.998 -25h-234l1071 1475h234z" />
    <glyph glyph-name="guilsinglleft" unicode="&#x2039;" horiz-adv-x="682" 
d="M76 514l239 393h338l-227 -393l227 -393h-338z" />
    <glyph glyph-name="guilsinglright" unicode="&#x203a;" horiz-adv-x="682" 
d="M606 514l-239 -393h-338l227 393l-227 393h338z" />
    <glyph glyph-name="franc" unicode="&#x20a3;" horiz-adv-x="2484" 
d="M166 0v1475h1249v-314h-837v-297h792v-311h-792v-553h-412zM2442 701c-20.667 3.33301 -41 5.83105 -61 7.49805s-40.667 2.5 -62 2.5c-102 0 -179.833 -30 -233.5 -90s-80.5 -147.667 -80.5 -263v-358h-393v786c0 52.667 -1 97.834 -3 135.501s-5 73.167 -9 106.5h385
c2.66699 -23.333 4.66699 -47.666 6 -72.999s2 -53 2 -83v-47c40 72.667 93.667 126.667 161 162s149.666 53 247 53h41v-339z" />
    <glyph glyph-name="trademark" unicode="&#x2122;" horiz-adv-x="1706" 
d="M797 1464h223l113 -303l114 303h221v-551h-155v390l-146 -390h-65l-150 390v-390h-155v551zM188 1464h502v-127h-164v-424h-174v424h-164v127z" />
    <glyph glyph-name="partialdiff" unicode="&#x2202;" horiz-adv-x="1114" 
d="M766 684c14 75.333 24.668 144.001 32.001 206.001s11 112 11 150c0 58 -9.83301 107.333 -29.5 148s-42.5 61 -68.5 61c-23.333 0 -67.333 -31 -132 -93s-124.667 -93 -180 -93c-32 0 -58.667 11.167 -80 33.5s-32 50.166 -32 83.499c0 46 31 87.833 93 125.5
s135.333 56.5 220 56.5c140 0 250.833 -53.667 332.5 -161s122.5 -254.333 122.5 -441c0 -229.333 -54.167 -417.5 -162.5 -564.5s-247.5 -220.5 -417.5 -220.5c-121.333 0 -221 38.833 -299 116.5s-117 177.5 -117 299.5c0 135.333 39.833 247.333 119.5 336
s179.167 133 298.5 133c67.333 0 124.166 -14.167 170.499 -42.5s85.833 -72.833 118.5 -133.5zM698.001 532.001c0 76 -12.168 134.667 -36.501 176s-59.166 62 -104.499 62c-64 0 -117.5 -45.5 -160.5 -136.5s-64.5 -206.5 -64.5 -346.5c0 -77.333 12.167 -136 36.5 -176
s59.833 -60 106.5 -60c64.667 0 118 45.167 160 135.5s63 205.5 63 345.5z" />
    <glyph glyph-name="Delta" unicode="&#x2206;" horiz-adv-x="1468" 
d="M733 1059l-262 -774h526zM537 1473h395l541 -1473h-1475z" />
    <glyph glyph-name="product" unicode="&#x220f;" horiz-adv-x="1645" 
d="M145 1473h1348v-1866h-399v1532h-549v-1532h-400v1866z" />
    <glyph glyph-name="summation" unicode="&#x2211;" horiz-adv-x="1520" 
d="M72 1473h1335v-302h-838l596 -608l-587 -651h895v-305h-1424v184l684 756l-661 665v261z" />
    <glyph glyph-name="minus" unicode="&#x2212;" horiz-adv-x="1706" 
d="M254 729h1198v-235h-1198v235z" />
    <glyph glyph-name="fraction" unicode="&#x2215;" horiz-adv-x="342" 
d="M475 1450h207l-817 -1475h-207z" />
    <glyph glyph-name="periodcentered" unicode="&#x2219;" horiz-adv-x="778" 
d="M207 715c0 50 17.833 92.5 53.5 127.5s79.167 52.5 130.5 52.5c50 0 92.5 -17.5 127.5 -52.5s52.5 -77.5 52.5 -127.5c0 -50.667 -17.5 -94.167 -52.5 -130.5s-77.5 -54.5 -127.5 -54.5c-51.333 0 -94.833 18 -130.5 54s-53.5 79.667 -53.5 131z" />
    <glyph glyph-name="radical" unicode="&#x221a;" horiz-adv-x="1366" 
d="M1155 1714h215v-149h-96l-590 -1606h-119l-307 846l-145 -55l-37 129l360 127l223 -635z" />
    <glyph glyph-name="infinity" unicode="&#x221e;" horiz-adv-x="1706" 
d="M956 561c28.667 -44.667 62.668 -78.334 102.001 -101.001s83.333 -34 132 -34c60 0 108.833 16.833 146.5 50.5s56.5 76.834 56.5 129.501c0 51.333 -17.167 93.833 -51.5 127.5s-76.833 50.5 -127.5 50.5c-48 0 -91.833 -16.833 -131.5 -50.5
s-81.834 -91.167 -126.501 -172.5zM752.001 657c-28.667 44.667 -62.333 78.167 -101 100.5s-83 33.5 -133 33.5c-60 0 -108.833 -16.667 -146.5 -50s-56.5 -76.333 -56.5 -129c0 -51.333 17 -93.833 51 -127.5s76.667 -50.5 128 -50.5c47.333 0 91.333 17.5 132 52.5
s82.667 91.833 126 170.5zM856.002 442c-45.333 -86.667 -94.5 -151 -147.5 -193s-111.833 -63 -176.5 -63c-92.667 0 -172 40.5 -238 121.5s-99 181.167 -99 300.5c0 125.333 29.167 227 87.5 305s134.166 117 227.499 117c60 0 115.5 -18.833 166.5 -56.5
s109.5 -104.167 175.5 -199.5c47.333 88 97.333 153 150 195s110.667 63 174 63c93.333 0 172.833 -40.333 238.5 -121s98.5 -181 98.5 -301c0 -126 -29.167 -228.167 -87.5 -306.5s-134.166 -117.5 -227.499 -117.5c-60.667 0 -116 18.333 -166 55
s-108.667 103.667 -176 201z" />
    <glyph glyph-name="integral" unicode="&#x222b;" horiz-adv-x="1249" 
d="M362 -248c66 0 105.666 222.335 118.999 667.002c2 67.333 3.33301 118.666 4 153.999c11.333 348.667 54.833 599.667 130.5 753s192.167 230 349.5 230c70 0 126.667 -17.667 170 -53s65 -81 65 -137c0 -42.667 -13.667 -77.167 -41 -103.5
s-62.666 -39.5 -105.999 -39.5c-42.667 0 -74.834 12.833 -96.501 38.5s-32.5 63.167 -32.5 112.5c0 25.333 -2.5 41.666 -7.5 48.999s-13.5 11 -25.5 11c-67.333 0 -108.666 -222.333 -123.999 -667l-3 -91c-7.33301 -219.333 -17.5 -376.833 -30.5 -472.5
s-32.167 -177.167 -57.5 -244.5c-41.333 -110.667 -94.5 -193.667 -159.5 -249s-141.5 -83 -229.5 -83c-71.333 0 -128.5 17.333 -171.5 52s-64.5 81 -64.5 139c0 43.333 14 78 42 104s65.333 39 112 39c40 0 70.833 -12 92.5 -36s32.5 -58.333 32.5 -103
c0 -8 -0.666992 -16 -2 -24v-3c0 -16 2.66699 -27.167 8 -33.5s14 -9.5 26 -9.5z" />
    <glyph glyph-name="approxequal" unicode="&#x2248;" horiz-adv-x="1706" 
d="M1530 602l0.000976562 -253.999c-70 -47.333 -135.333 -82 -196 -104s-121 -33 -181 -33s-154.333 21.833 -283 65.5s-231.667 65.5 -309 65.5c-54.667 0 -112.167 -12.333 -172.5 -37s-130.5 -65 -210.5 -121v254c74 49.333 143.667 85.666 209 108.999
s130.333 35 195 35c76.667 0 178.167 -21.833 304.5 -65.5s217.166 -65.5 272.499 -65.5s112 11.667 170 35s125 62 201 116zM1530 1036l0.00292969 -253.999c-71.333 -46.667 -137 -80.834 -197 -102.501s-119.333 -32.5 -178 -32.5c-60.667 0 -155.334 21.5 -284.001 64.5
s-232 64.5 -310 64.5c-56 0 -113.333 -12 -172 -36s-129 -64.667 -211 -122v256c74.667 49.333 144.334 85.333 209.001 108s129.667 34 195 34c76.667 0 178.167 -21.833 304.5 -65.5s217.166 -65.5 272.499 -65.5s112.166 11.833 170.499 35.5
s125.166 62.167 200.499 115.5z" />
    <glyph glyph-name="notequal" unicode="&#x2260;" horiz-adv-x="1706" 
d="M1194 1251l168 -137l-135 -168h225v-221h-377l-180 -227h557v-222h-704l-246 -307l-170 137l135 170h-213v222h360l183 227h-543v221h694z" />
    <glyph glyph-name="lessequal" unicode="&#x2264;" horiz-adv-x="1706" 
d="M256 213h1196v-229h-1196v229zM1450 1257v-239l-776 -240l776 -239v-240l-1194 379v201z" />
    <glyph glyph-name="greaterequal" unicode="&#x2265;" horiz-adv-x="1706" 
d="M256 213h1196v-229h-1196v229zM258 1257l1192 -378v-201l-1192 -379v240l776 239l-776 240v239z" />
    <glyph glyph-name="lozenge" unicode="&#x25ca;" horiz-adv-x="1012" 
d="M506 1409l-385 -817l385 -825l385 825zM506 1653l500 -1061l-500 -1069l-500 1069z" />
    <glyph glyph-name="apple" unicode="&#xf000;" horiz-adv-x="1618" 
d="M836 1216c-0.666992 4 -1.16699 8.66895 -1.5 14.002s-0.5 13 -0.5 23c0 82.667 31.667 159.167 95 229.5s142 114.166 236 131.499c0.666992 -6.66699 1.16699 -14.334 1.5 -23.001s0.5 -21.667 0.5 -39c0 -87.333 -34.5 -165.5 -103.5 -234.5
s-136.833 -103.5 -203.5 -103.5h-8c-2 0 -4.5 0.333008 -7.5 1s-5.83301 1 -8.5 1zM1505 403.002c-76 -164.667 -144.336 -278.834 -205.003 -342.501s-128.667 -95.5 -204 -95.5c-33.333 0 -77.166 11 -131.499 33s-95.166 33 -122.499 33c-30 0 -73.667 -11 -131 -33
s-99.666 -33 -126.999 -33c-42.667 0 -85.5 14.667 -128.5 44s-86.167 73.333 -129.5 132c-68 93.333 -120.5 191.833 -157.5 295.5s-55.5 203.834 -55.5 300.501c0 146 41.667 264.833 125 356.5s191 137.5 323 137.5c45.333 0 97 -11.333 155 -34s99.333 -34 124 -34
c22.667 0 63.167 11.667 121.5 35s109.166 35 152.499 35c73.333 0 139.333 -13.333 198 -40s112.334 -68 161.001 -124c-68 -43.333 -118.5 -91.833 -151.5 -145.5s-49.5 -114.5 -49.5 -182.5c0 -75.333 20 -142 60 -200s97.667 -104 173 -138z" />
    <glyph glyph-name="fi" unicode="&#xf001;" horiz-adv-x="1614" 
d="M1075 1186v291h424v-291h-424zM248 1169c0 112 36.499 194.332 109.499 246.999s187.833 79 344.5 79c44.667 0 87 -2.16699 127 -6.5s77.667 -11.166 113 -20.499v-217c-5.33301 0.666992 -12.666 1 -21.999 1c-46 2 -79 3 -99 3c-72 0 -120.333 -9.5 -145 -28.5
s-37 -55.167 -37 -108.5v-90h303v-244h-303v-784h-391v784h-236v244h236v141zM1090 -0.000976562v1028h395v-1028h-395z" />
    <glyph glyph-name="fl" unicode="&#xf002;" horiz-adv-x="1612" 
d="M248 1169c0 112 36.499 194.332 109.499 246.999s187.833 79 344.5 79c44.667 0 87 -2.16699 127 -6.5s77.667 -11.166 113 -20.499v-217c-5.33301 0.666992 -12.666 1 -21.999 1c-46 2 -79 3 -99 3c-72 0 -120.333 -9.5 -145 -28.5s-37 -55.167 -37 -108.5v-90h303v-244
h-303v-784h-391v784h-236v244h236v141zM1087 -0.000976562v1477h394v-1477h-394z" />
    <glyph glyph-name=".null" horiz-adv-x="0" 
 />
    <glyph glyph-name="nonmarkingreturn" horiz-adv-x="778" 
 />
    </font>
</defs>
</svg>
